G04 #@! TF.GenerationSoftware,KiCad,Pcbnew,10.0.0*
G04 #@! TF.CreationDate,2026-04-18T18:01:21+10:00*
G04 #@! TF.ProjectId,Circuit Board V2,43697263-7569-4742-9042-6f6172642056,rev?*
G04 #@! TF.SameCoordinates,Original*
G04 #@! TF.FileFunction,Soldermask,Bot*
G04 #@! TF.FilePolarity,Negative*
%FSLAX46Y46*%
G04 Gerber Fmt 4.6, Leading zero omitted, Abs format (unit mm)*
G04 Created by KiCad (PCBNEW 10.0.0) date 2026-04-18 18:01:21*
%MOMM*%
%LPD*%
G01*
G04 APERTURE LIST*
G04 Aperture macros list*
%AMRoundRect*
0 Rectangle with rounded corners*
0 $1 Rounding radius*
0 $2 $3 $4 $5 $6 $7 $8 $9 X,Y pos of 4 corners*
0 Add a 4 corners polygon primitive as box body*
4,1,4,$2,$3,$4,$5,$6,$7,$8,$9,$2,$3,0*
0 Add four circle primitives for the rounded corners*
1,1,$1+$1,$2,$3*
1,1,$1+$1,$4,$5*
1,1,$1+$1,$6,$7*
1,1,$1+$1,$8,$9*
0 Add four rect primitives between the rounded corners*
20,1,$1+$1,$2,$3,$4,$5,0*
20,1,$1+$1,$4,$5,$6,$7,0*
20,1,$1+$1,$6,$7,$8,$9,0*
20,1,$1+$1,$8,$9,$2,$3,0*%
G04 Aperture macros list end*
%ADD10C,1.600000*%
%ADD11RoundRect,0.102000X-0.754000X-0.754000X0.754000X-0.754000X0.754000X0.754000X-0.754000X0.754000X0*%
%ADD12C,1.712000*%
%ADD13R,1.700000X1.700000*%
%ADD14C,1.700000*%
%ADD15RoundRect,0.102000X0.754000X0.754000X-0.754000X0.754000X-0.754000X-0.754000X0.754000X-0.754000X0*%
%ADD16RoundRect,0.250001X-0.499999X0.499999X-0.499999X-0.499999X0.499999X-0.499999X0.499999X0.499999X0*%
%ADD17C,1.500000*%
%ADD18C,1.400000*%
%ADD19R,3.500000X3.500000*%
%ADD20RoundRect,0.750000X1.000000X-0.750000X1.000000X0.750000X-1.000000X0.750000X-1.000000X-0.750000X0*%
%ADD21RoundRect,0.875000X0.875000X-0.875000X0.875000X0.875000X-0.875000X0.875000X-0.875000X-0.875000X0*%
%ADD22RoundRect,0.102000X1.000000X1.000000X-1.000000X1.000000X-1.000000X-1.000000X1.000000X-1.000000X0*%
%ADD23C,2.204000*%
G04 APERTURE END LIST*
D10*
X108000000Y-108500000D03*
X108000000Y-106500000D03*
D11*
X93150000Y-83610000D03*
D12*
X93150000Y-86150000D03*
X93150000Y-88690000D03*
X93150000Y-91230000D03*
X93150000Y-93770000D03*
X93150000Y-96310000D03*
X93150000Y-98850000D03*
X93150000Y-101390000D03*
X105850000Y-83610000D03*
X105850000Y-86150000D03*
X105850000Y-88690000D03*
X105850000Y-91230000D03*
X105850000Y-93770000D03*
X105850000Y-96310000D03*
X105850000Y-98850000D03*
X105850000Y-101390000D03*
D13*
X40500000Y-94310000D03*
D14*
X40500000Y-91770000D03*
X40500000Y-89230000D03*
X40500000Y-86690000D03*
D13*
X110000000Y-88690000D03*
D14*
X110000000Y-91230000D03*
X110000000Y-93770000D03*
X110000000Y-96310000D03*
D15*
X57350000Y-120890000D03*
D12*
X57350000Y-118350000D03*
X57350000Y-115810000D03*
X57350000Y-113270000D03*
X57350000Y-110730000D03*
X57350000Y-108190000D03*
X57350000Y-105650000D03*
X57350000Y-103110000D03*
X44650000Y-120890000D03*
X44650000Y-118350000D03*
X44650000Y-115810000D03*
X44650000Y-113270000D03*
X44650000Y-110730000D03*
X44650000Y-108190000D03*
X44650000Y-105650000D03*
X44650000Y-103110000D03*
D16*
X100040000Y-105982500D03*
D17*
X97500000Y-105982500D03*
X94960000Y-105982500D03*
D18*
X96540000Y-79500000D03*
X91460000Y-79500000D03*
D15*
X57350000Y-99390000D03*
D12*
X57350000Y-96850000D03*
X57350000Y-94310000D03*
X57350000Y-91770000D03*
X57350000Y-89230000D03*
X57350000Y-86690000D03*
X57350000Y-84150000D03*
X57350000Y-81610000D03*
X44650000Y-99390000D03*
X44650000Y-96850000D03*
X44650000Y-94310000D03*
X44650000Y-91770000D03*
X44650000Y-89230000D03*
X44650000Y-86690000D03*
X44650000Y-84150000D03*
X44650000Y-81610000D03*
D19*
X102500000Y-114500000D03*
D20*
X102500000Y-120500000D03*
D21*
X107200000Y-117500000D03*
D22*
X88200000Y-119015000D03*
D23*
X88200000Y-116475000D03*
X88200000Y-113935000D03*
X88200000Y-111395000D03*
X88200000Y-108855000D03*
X88200000Y-106315000D03*
X88200000Y-103775000D03*
X88200000Y-101235000D03*
X88200000Y-98695000D03*
X88200000Y-96155000D03*
X88200000Y-93615000D03*
X88200000Y-91075000D03*
X88200000Y-88535000D03*
X88200000Y-85995000D03*
X88200000Y-83455000D03*
X62800000Y-83455000D03*
X62800000Y-85995000D03*
X62800000Y-88535000D03*
X62800000Y-91075000D03*
X62800000Y-93615000D03*
X62800000Y-96155000D03*
X62800000Y-98695000D03*
X62800000Y-101235000D03*
X62800000Y-103775000D03*
X62800000Y-106315000D03*
X62800000Y-108855000D03*
X62800000Y-111395000D03*
X62800000Y-113935000D03*
X62800000Y-116475000D03*
X62800000Y-119015000D03*
D13*
X40500000Y-115580000D03*
D14*
X40500000Y-113040000D03*
X40500000Y-110500000D03*
X40500000Y-107960000D03*
M02*
