G04 #@! TF.GenerationSoftware,KiCad,Pcbnew,10.0.2*
G04 #@! TF.CreationDate,2026-05-31T13:56:21+10:00*
G04 #@! TF.ProjectId,Circuit Board V2,43697263-7569-4742-9042-6f6172642056,rev?*
G04 #@! TF.SameCoordinates,Original*
G04 #@! TF.FileFunction,Copper,L1,Top*
G04 #@! TF.FilePolarity,Positive*
%FSLAX46Y46*%
G04 Gerber Fmt 4.6, Leading zero omitted, Abs format (unit mm)*
G04 Created by KiCad (PCBNEW 10.0.2) date 2026-05-31 13:56:21*
%MOMM*%
%LPD*%
G01*
G04 APERTURE LIST*
G04 Aperture macros list*
%AMRoundRect*
0 Rectangle with rounded corners*
0 $1 Rounding radius*
0 $2 $3 $4 $5 $6 $7 $8 $9 X,Y pos of 4 corners*
0 Add a 4 corners polygon primitive as box body*
4,1,4,$2,$3,$4,$5,$6,$7,$8,$9,$2,$3,0*
0 Add four circle primitives for the rounded corners*
1,1,$1+$1,$2,$3*
1,1,$1+$1,$4,$5*
1,1,$1+$1,$6,$7*
1,1,$1+$1,$8,$9*
0 Add four rect primitives between the rounded corners*
20,1,$1+$1,$2,$3,$4,$5,0*
20,1,$1+$1,$4,$5,$6,$7,0*
20,1,$1+$1,$6,$7,$8,$9,0*
20,1,$1+$1,$8,$9,$2,$3,0*%
G04 Aperture macros list end*
G04 #@! TA.AperFunction,ComponentPad*
%ADD10R,2.000000X2.000000*%
G04 #@! TD*
G04 #@! TA.AperFunction,ComponentPad*
%ADD11C,2.000000*%
G04 #@! TD*
G04 #@! TA.AperFunction,ComponentPad*
%ADD12C,1.700000*%
G04 #@! TD*
G04 #@! TA.AperFunction,ComponentPad*
%ADD13R,1.700000X1.700000*%
G04 #@! TD*
G04 #@! TA.AperFunction,ComponentPad*
%ADD14C,1.508000*%
G04 #@! TD*
G04 #@! TA.AperFunction,ComponentPad*
%ADD15R,1.508000X1.508000*%
G04 #@! TD*
G04 #@! TA.AperFunction,ComponentPad*
%ADD16R,1.500000X1.500000*%
G04 #@! TD*
G04 #@! TA.AperFunction,ComponentPad*
%ADD17C,1.600000*%
G04 #@! TD*
G04 #@! TA.AperFunction,ComponentPad*
%ADD18RoundRect,0.250001X-0.499999X0.499999X-0.499999X-0.499999X0.499999X-0.499999X0.499999X0.499999X0*%
G04 #@! TD*
G04 #@! TA.AperFunction,ComponentPad*
%ADD19C,1.500000*%
G04 #@! TD*
G04 #@! TA.AperFunction,ComponentPad*
%ADD20R,3.500000X3.500000*%
G04 #@! TD*
G04 #@! TA.AperFunction,ComponentPad*
%ADD21RoundRect,0.750000X1.000000X-0.750000X1.000000X0.750000X-1.000000X0.750000X-1.000000X-0.750000X0*%
G04 #@! TD*
G04 #@! TA.AperFunction,ComponentPad*
%ADD22RoundRect,0.875000X0.875000X-0.875000X0.875000X0.875000X-0.875000X0.875000X-0.875000X-0.875000X0*%
G04 #@! TD*
G04 #@! TA.AperFunction,ViaPad*
%ADD23C,0.600000*%
G04 #@! TD*
G04 #@! TA.AperFunction,Conductor*
%ADD24C,0.200000*%
G04 #@! TD*
G04 #@! TA.AperFunction,Conductor*
%ADD25C,1.000000*%
G04 #@! TD*
G04 #@! TA.AperFunction,Conductor*
%ADD26C,0.600000*%
G04 #@! TD*
G04 APERTURE END LIST*
D10*
X88200000Y-119015000D03*
D11*
X88200000Y-116475000D03*
X88200000Y-113935000D03*
X88200000Y-111395000D03*
X88200000Y-108855000D03*
X88200000Y-106315000D03*
X88200000Y-103775000D03*
X88200000Y-101235000D03*
X88200000Y-98695000D03*
X88200000Y-96155000D03*
X88200000Y-93615000D03*
X88200000Y-91075000D03*
X88200000Y-88535000D03*
X88200000Y-85995000D03*
X88200000Y-83455000D03*
X62800000Y-83455000D03*
X62800000Y-85995000D03*
X62800000Y-88535000D03*
X62800000Y-91075000D03*
X62800000Y-93615000D03*
X62800000Y-96155000D03*
X62800000Y-98695000D03*
X62800000Y-101235000D03*
X62800000Y-103775000D03*
X62800000Y-106315000D03*
X62800000Y-108855000D03*
X62800000Y-111395000D03*
X62800000Y-113935000D03*
X62800000Y-116475000D03*
X62800000Y-119015000D03*
D12*
X109500000Y-115040000D03*
X109500000Y-112500000D03*
X109500000Y-109960000D03*
D13*
X109500000Y-107420000D03*
D14*
X105850000Y-98390000D03*
X105850000Y-95850000D03*
X105850000Y-93310000D03*
X105850000Y-90770000D03*
X105850000Y-88230000D03*
X105850000Y-85690000D03*
X105850000Y-83150000D03*
X105850000Y-80610000D03*
X93150000Y-98390000D03*
X93150000Y-95850000D03*
X93150000Y-93310000D03*
X93150000Y-90770000D03*
X93150000Y-88230000D03*
X93150000Y-85690000D03*
X93150000Y-83150000D03*
D15*
X93150000Y-80610000D03*
X93050000Y-102545000D03*
D14*
X93050000Y-105085000D03*
X93050000Y-107625000D03*
X93050000Y-110165000D03*
X93050000Y-112705000D03*
X93050000Y-115245000D03*
X93050000Y-117785000D03*
X93050000Y-120325000D03*
X105750000Y-102545000D03*
X105750000Y-105085000D03*
X105750000Y-107625000D03*
X105750000Y-110165000D03*
X105750000Y-112705000D03*
X105750000Y-115245000D03*
X105750000Y-117785000D03*
X105750000Y-120325000D03*
D16*
X120000000Y-92500000D03*
D17*
X117460000Y-92500000D03*
X122540000Y-92500000D03*
D16*
X120000000Y-88500000D03*
D17*
X117460000Y-88500000D03*
X122540000Y-88500000D03*
D16*
X120040000Y-84500000D03*
D17*
X117500000Y-84500000D03*
X122580000Y-84500000D03*
D16*
X120000000Y-80500000D03*
D17*
X117460000Y-80500000D03*
X122540000Y-80500000D03*
D13*
X40500000Y-94310000D03*
D12*
X40500000Y-91770000D03*
X40500000Y-89230000D03*
X40500000Y-86690000D03*
D13*
X110000000Y-85690000D03*
D12*
X110000000Y-88230000D03*
X110000000Y-90770000D03*
X110000000Y-93310000D03*
D15*
X57350000Y-120890000D03*
D14*
X57350000Y-118350000D03*
X57350000Y-115810000D03*
X57350000Y-113270000D03*
X57350000Y-110730000D03*
X57350000Y-108190000D03*
X57350000Y-105650000D03*
X57350000Y-103110000D03*
X44650000Y-120890000D03*
X44650000Y-118350000D03*
X44650000Y-115810000D03*
X44650000Y-113270000D03*
X44650000Y-110730000D03*
X44650000Y-108190000D03*
X44650000Y-105650000D03*
X44650000Y-103110000D03*
D18*
X120540000Y-101982500D03*
D19*
X118000000Y-101982500D03*
X115460000Y-101982500D03*
D20*
X118000000Y-113500000D03*
D21*
X118000000Y-119500000D03*
D22*
X122700000Y-116500000D03*
D13*
X40500000Y-115580000D03*
D12*
X40500000Y-113040000D03*
X40500000Y-110500000D03*
X40500000Y-107960000D03*
D15*
X57350000Y-99390000D03*
D14*
X57350000Y-96850000D03*
X57350000Y-94310000D03*
X57350000Y-91770000D03*
X57350000Y-89230000D03*
X57350000Y-86690000D03*
X57350000Y-84150000D03*
X57350000Y-81610000D03*
X44650000Y-99390000D03*
X44650000Y-96850000D03*
X44650000Y-94310000D03*
X44650000Y-91770000D03*
X44650000Y-89230000D03*
X44650000Y-86690000D03*
X44650000Y-84150000D03*
X44650000Y-81610000D03*
D23*
X94268000Y-104453500D03*
X86979700Y-115424700D03*
X66650000Y-115226800D03*
X86220000Y-113936200D03*
X83745000Y-111255000D03*
X63908600Y-112665000D03*
X65515000Y-77401400D03*
X113645000Y-77401400D03*
X85410000Y-82870800D03*
X83710600Y-106253300D03*
X45744700Y-95437600D03*
X85680000Y-107161200D03*
X86703400Y-80208200D03*
X65900000Y-111981100D03*
X77765000Y-121136200D03*
D24*
X113850000Y-83150000D02*
X114000000Y-83000000D01*
X114000000Y-83000000D02*
X117000000Y-86000000D01*
D25*
X105850000Y-83150000D02*
X113850000Y-83150000D01*
D24*
X117000000Y-86000000D02*
X121080000Y-86000000D01*
X121080000Y-86000000D02*
X122580000Y-84500000D01*
X62800000Y-116475000D02*
X64325000Y-118000000D01*
X64325000Y-118000000D02*
X85000000Y-118000000D01*
D25*
X85000000Y-118000000D02*
X86525000Y-116475000D01*
X86525000Y-116475000D02*
X88200000Y-116475000D01*
X93050000Y-115245000D02*
X89429999Y-115245000D01*
X89429999Y-115245000D02*
X88200000Y-116475000D01*
X44650000Y-120890000D02*
X46260000Y-122500000D01*
X46260000Y-122500000D02*
X108000000Y-122500000D01*
X108000000Y-122500000D02*
X117000000Y-113500000D01*
X117000000Y-113500000D02*
X118000000Y-113500000D01*
X105750000Y-102545000D02*
X106705000Y-103500000D01*
X106705000Y-103500000D02*
X119022500Y-103500000D01*
X119022500Y-103500000D02*
X120540000Y-101982500D01*
D24*
X93415200Y-103600700D02*
X94268000Y-104453500D01*
X93050000Y-103600700D02*
X93415200Y-103600700D01*
X66847900Y-115424700D02*
X66650000Y-115226800D01*
X86979700Y-115424700D02*
X66847900Y-115424700D01*
X93050000Y-102545000D02*
X93050000Y-103600700D01*
X62801200Y-113936200D02*
X62800000Y-113935000D01*
X86220000Y-113936200D02*
X62801200Y-113936200D01*
X62940000Y-111255000D02*
X62800000Y-111395000D01*
X83745000Y-111255000D02*
X62940000Y-111255000D01*
X90305000Y-101235000D02*
X93150000Y-98390000D01*
X88200000Y-101235000D02*
X90305000Y-101235000D01*
X86930000Y-112665000D02*
X88200000Y-113935000D01*
X63908600Y-112665000D02*
X86930000Y-112665000D01*
X65515000Y-77401400D02*
X113645000Y-77401400D01*
X113187000Y-84227000D02*
X117460000Y-88500000D01*
X92166000Y-84227000D02*
X113187000Y-84227000D01*
X90087700Y-82148700D02*
X92166000Y-84227000D01*
X87627400Y-82148700D02*
X90087700Y-82148700D01*
X78701100Y-91075000D02*
X87627400Y-82148700D01*
X62800000Y-91075000D02*
X78701100Y-91075000D01*
X86540100Y-81740700D02*
X85410000Y-82870800D01*
X114740700Y-81740700D02*
X86540100Y-81740700D01*
X117500000Y-84500000D02*
X114740700Y-81740700D01*
X62861700Y-106253300D02*
X62800000Y-106315000D01*
X83710600Y-106253300D02*
X62861700Y-106253300D01*
X104520000Y-119015000D02*
X88200000Y-119015000D01*
X105750000Y-117785000D02*
X104520000Y-119015000D01*
X56222400Y-95437600D02*
X57350000Y-94310000D01*
X45744700Y-95437600D02*
X56222400Y-95437600D01*
X85596600Y-120316700D02*
X86898300Y-119015000D01*
X59316700Y-120316700D02*
X85596600Y-120316700D01*
X57350000Y-118350000D02*
X59316700Y-120316700D01*
X88200000Y-119015000D02*
X86898300Y-119015000D01*
X83986200Y-108855000D02*
X62800000Y-108855000D01*
X85680000Y-107161200D02*
X83986200Y-108855000D01*
X116501500Y-79541500D02*
X117460000Y-80500000D01*
X87370100Y-79541500D02*
X116501500Y-79541500D01*
X86703400Y-80208200D02*
X87370100Y-79541500D01*
X62105000Y-99390000D02*
X62800000Y-98695000D01*
X59565000Y-99390000D02*
X62800000Y-96155000D01*
X57350000Y-99390000D02*
X59565000Y-99390000D01*
D26*
X40500000Y-107960000D02*
X44420000Y-107960000D01*
D24*
X44420000Y-107960000D02*
X44650000Y-108190000D01*
D26*
X40500000Y-110500000D02*
X44420000Y-110500000D01*
D24*
X44420000Y-110500000D02*
X44650000Y-110730000D01*
D26*
X40500000Y-113040000D02*
X44420000Y-113040000D01*
D24*
X44420000Y-113040000D02*
X44650000Y-113270000D01*
D26*
X41651700Y-115580000D02*
X40500000Y-115580000D01*
X41881700Y-115810000D02*
X41651700Y-115580000D01*
X44650000Y-115810000D02*
X41881700Y-115810000D01*
D24*
X87613900Y-111981100D02*
X88200000Y-111395000D01*
X65900000Y-111981100D02*
X87613900Y-111981100D01*
X58651900Y-121136200D02*
X58405700Y-120890000D01*
X77765000Y-121136200D02*
X58651900Y-121136200D01*
X57350000Y-120890000D02*
X58405700Y-120890000D01*
X88355000Y-98850000D02*
X88200000Y-98695000D01*
X91045000Y-95850000D02*
X93150000Y-95850000D01*
X88200000Y-98695000D02*
X91045000Y-95850000D01*
X62800000Y-116475000D02*
X62135000Y-115810000D01*
G04 #@! TA.AperFunction,Conductor*
G36*
X64488755Y-76504968D02*
G01*
X64515898Y-76504407D01*
X64549063Y-76515031D01*
X64583417Y-76520764D01*
X64607294Y-76533685D01*
X64633145Y-76541967D01*
X64661061Y-76562783D01*
X64691695Y-76579361D01*
X64710083Y-76599335D01*
X64731844Y-76615562D01*
X64751490Y-76644316D01*
X64775079Y-76669941D01*
X64785984Y-76694802D01*
X64801299Y-76717217D01*
X64810543Y-76750791D01*
X64824535Y-76782688D01*
X64826777Y-76809746D01*
X64833983Y-76835916D01*
X64831825Y-76870671D01*
X64834702Y-76905385D01*
X64827937Y-76933307D01*
X64826355Y-76958797D01*
X64807511Y-77017621D01*
X64805606Y-77022221D01*
X64745263Y-77167903D01*
X64714500Y-77322558D01*
X64714500Y-77480242D01*
X64745263Y-77634897D01*
X64805606Y-77780579D01*
X64893211Y-77911689D01*
X65004711Y-78023189D01*
X65135821Y-78110794D01*
X65281503Y-78171137D01*
X65436158Y-78201900D01*
X65436161Y-78201900D01*
X65593839Y-78201900D01*
X65593842Y-78201900D01*
X65748497Y-78171137D01*
X65894179Y-78110794D01*
X65962822Y-78064927D01*
X66075050Y-78014312D01*
X66170602Y-78001900D01*
X112989398Y-78001900D01*
X113110836Y-78022164D01*
X113124052Y-78026981D01*
X113162718Y-78041903D01*
X113265821Y-78110794D01*
X113411503Y-78171137D01*
X113566158Y-78201900D01*
X113577305Y-78201900D01*
X113619233Y-78218081D01*
X113643349Y-78232329D01*
X113732452Y-78200187D01*
X113878497Y-78171137D01*
X114024179Y-78110794D01*
X114155289Y-78023189D01*
X114266789Y-77911689D01*
X114354394Y-77780579D01*
X114414737Y-77634897D01*
X114445500Y-77480242D01*
X114445500Y-77322558D01*
X114414737Y-77167903D01*
X114356326Y-77026886D01*
X114328577Y-76906941D01*
X114341277Y-76784481D01*
X114393052Y-76672780D01*
X114478291Y-76583943D01*
X114587757Y-76527596D01*
X114701966Y-76509766D01*
X126030142Y-76513149D01*
X126151569Y-76533450D01*
X126259830Y-76592079D01*
X126343187Y-76682684D01*
X126392609Y-76795446D01*
X126404023Y-76885629D01*
X126499497Y-100376389D01*
X126499500Y-100377909D01*
X126499500Y-123946657D01*
X126479236Y-124068095D01*
X126420639Y-124176373D01*
X126330059Y-124259757D01*
X126217312Y-124309213D01*
X126127020Y-124320654D01*
X82123747Y-124499497D01*
X82122227Y-124499500D01*
X38374500Y-124499500D01*
X38253062Y-124479236D01*
X38144784Y-124420639D01*
X38061400Y-124330059D01*
X38011944Y-124217312D01*
X38000500Y-124125500D01*
X38000500Y-118251118D01*
X43646000Y-118251118D01*
X43646000Y-118448883D01*
X43684583Y-118642854D01*
X43726241Y-118743427D01*
X44119669Y-118349999D01*
X44053844Y-118284174D01*
X44150000Y-118284174D01*
X44150000Y-118415826D01*
X44184075Y-118542993D01*
X44249901Y-118657007D01*
X44342993Y-118750099D01*
X44457007Y-118815925D01*
X44584174Y-118850000D01*
X44715826Y-118850000D01*
X44842993Y-118815925D01*
X44957007Y-118750099D01*
X45050099Y-118657007D01*
X45115925Y-118542993D01*
X45150000Y-118415826D01*
X45150000Y-118350000D01*
X45180330Y-118350000D01*
X45573758Y-118743428D01*
X45615416Y-118642858D01*
X45653999Y-118448883D01*
X45654000Y-118448883D01*
X45654000Y-118251117D01*
X45653999Y-118251116D01*
X45615416Y-118057145D01*
X45573757Y-117956571D01*
X45180330Y-118350000D01*
X45150000Y-118350000D01*
X45150000Y-118284174D01*
X45115925Y-118157007D01*
X45050099Y-118042993D01*
X44957007Y-117949901D01*
X44842993Y-117884075D01*
X44715826Y-117850000D01*
X44584174Y-117850000D01*
X44457007Y-117884075D01*
X44342993Y-117949901D01*
X44249901Y-118042993D01*
X44184075Y-118157007D01*
X44150000Y-118284174D01*
X44053844Y-118284174D01*
X43726241Y-117956571D01*
X43684584Y-118057141D01*
X43646000Y-118251118D01*
X38000500Y-118251118D01*
X38000500Y-107853713D01*
X39149500Y-107853713D01*
X39149500Y-108066287D01*
X39178861Y-108251661D01*
X39182754Y-108276242D01*
X39182754Y-108276246D01*
X39248443Y-108478412D01*
X39336349Y-108650939D01*
X39344949Y-108667816D01*
X39419552Y-108770499D01*
X39469893Y-108839788D01*
X39469898Y-108839794D01*
X39595646Y-108965542D01*
X39667186Y-109065740D01*
X39702316Y-109183739D01*
X39697228Y-109306751D01*
X39652474Y-109421445D01*
X39595646Y-109494458D01*
X39469898Y-109620205D01*
X39469893Y-109620211D01*
X39344949Y-109792184D01*
X39344947Y-109792186D01*
X39248443Y-109981587D01*
X39182754Y-110183753D01*
X39182754Y-110183757D01*
X39149500Y-110393713D01*
X39149500Y-110606287D01*
X39182754Y-110816242D01*
X39182754Y-110816246D01*
X39248443Y-111018412D01*
X39336349Y-111190939D01*
X39344949Y-111207816D01*
X39413188Y-111301739D01*
X39469893Y-111379788D01*
X39469898Y-111379794D01*
X39595646Y-111505542D01*
X39667186Y-111605740D01*
X39702316Y-111723739D01*
X39697228Y-111846751D01*
X39652474Y-111961445D01*
X39595646Y-112034458D01*
X39469898Y-112160205D01*
X39469893Y-112160211D01*
X39344949Y-112332184D01*
X39344947Y-112332186D01*
X39248443Y-112521587D01*
X39182754Y-112723753D01*
X39182754Y-112723757D01*
X39149500Y-112933713D01*
X39149500Y-113146287D01*
X39179481Y-113335579D01*
X39182754Y-113356242D01*
X39182754Y-113356246D01*
X39248443Y-113558412D01*
X39344947Y-113747813D01*
X39344948Y-113747815D01*
X39366836Y-113777941D01*
X39398541Y-113821580D01*
X39403692Y-113828669D01*
X39458677Y-113938825D01*
X39474914Y-114060866D01*
X39450646Y-114181568D01*
X39388501Y-114287849D01*
X39325255Y-114347898D01*
X39292455Y-114372452D01*
X39292451Y-114372456D01*
X39206207Y-114487663D01*
X39206202Y-114487673D01*
X39155909Y-114622515D01*
X39155908Y-114622520D01*
X39149500Y-114682125D01*
X39149500Y-116477868D01*
X39151499Y-116496463D01*
X39155909Y-116537483D01*
X39206204Y-116672331D01*
X39206205Y-116672333D01*
X39206207Y-116672336D01*
X39292451Y-116787543D01*
X39292456Y-116787548D01*
X39407663Y-116873792D01*
X39407664Y-116873792D01*
X39407669Y-116873796D01*
X39542517Y-116924091D01*
X39602127Y-116930500D01*
X41397872Y-116930499D01*
X41457483Y-116924091D01*
X41592331Y-116873796D01*
X41707546Y-116787546D01*
X41727890Y-116760370D01*
X41816887Y-116675298D01*
X41928685Y-116623733D01*
X42027292Y-116610500D01*
X43521453Y-116610500D01*
X43642891Y-116630764D01*
X43738296Y-116679778D01*
X43763785Y-116697916D01*
X43832748Y-116766879D01*
X43992499Y-116882944D01*
X44102719Y-116939104D01*
X44125190Y-116955095D01*
X44149520Y-116979349D01*
X44177142Y-116999769D01*
X44192819Y-117022512D01*
X44212383Y-117042015D01*
X44227518Y-117072851D01*
X44247016Y-117101137D01*
X44254459Y-117127739D01*
X44266630Y-117152536D01*
X44270932Y-117186617D01*
X44280189Y-117219700D01*
X44278865Y-117249454D01*
X44282051Y-117274683D01*
X44276573Y-117301013D01*
X44275161Y-117332780D01*
X44256570Y-117426240D01*
X44649999Y-117819669D01*
X45043427Y-117426241D01*
X45024837Y-117332782D01*
X45021021Y-117209724D01*
X45057368Y-117092095D01*
X45129939Y-116992641D01*
X45221856Y-116926582D01*
X45307501Y-116882944D01*
X45334516Y-116863316D01*
X45467243Y-116766886D01*
X45467249Y-116766881D01*
X45467252Y-116766879D01*
X45606879Y-116627252D01*
X45630145Y-116595230D01*
X45722941Y-116467505D01*
X45722944Y-116467501D01*
X45812591Y-116291561D01*
X45873610Y-116103763D01*
X45904500Y-115908731D01*
X45904500Y-115711269D01*
X45873610Y-115516237D01*
X45817560Y-115343731D01*
X45812593Y-115328444D01*
X45812592Y-115328442D01*
X45812591Y-115328439D01*
X45722944Y-115152499D01*
X45722941Y-115152494D01*
X45606886Y-114992756D01*
X45606876Y-114992745D01*
X45467253Y-114853122D01*
X45467252Y-114853121D01*
X45452734Y-114842573D01*
X45366403Y-114754805D01*
X45313244Y-114643756D01*
X45299024Y-114521463D01*
X45325282Y-114401179D01*
X45389174Y-114295939D01*
X45452733Y-114237427D01*
X45467252Y-114226879D01*
X45606879Y-114087252D01*
X45626050Y-114060866D01*
X45722941Y-113927505D01*
X45722944Y-113927501D01*
X45812591Y-113751561D01*
X45873610Y-113563763D01*
X45904500Y-113368731D01*
X45904500Y-113171269D01*
X45873610Y-112976237D01*
X45834689Y-112856449D01*
X45812593Y-112788444D01*
X45812592Y-112788442D01*
X45812591Y-112788439D01*
X45722944Y-112612499D01*
X45722941Y-112612494D01*
X45606886Y-112452756D01*
X45606876Y-112452745D01*
X45467253Y-112313122D01*
X45467252Y-112313121D01*
X45452734Y-112302573D01*
X45366403Y-112214805D01*
X45313244Y-112103756D01*
X45299024Y-111981463D01*
X45325282Y-111861179D01*
X45389174Y-111755939D01*
X45452733Y-111697427D01*
X45467252Y-111686879D01*
X45606879Y-111547252D01*
X45613420Y-111538250D01*
X45722941Y-111387505D01*
X45722944Y-111387501D01*
X45812591Y-111211561D01*
X45873610Y-111023763D01*
X45904500Y-110828731D01*
X45904500Y-110631269D01*
X45873610Y-110436237D01*
X45834689Y-110316449D01*
X45812593Y-110248444D01*
X45812592Y-110248442D01*
X45812591Y-110248439D01*
X45722944Y-110072499D01*
X45722941Y-110072494D01*
X45606886Y-109912756D01*
X45606876Y-109912745D01*
X45467253Y-109773122D01*
X45467241Y-109773113D01*
X45452734Y-109762573D01*
X45366403Y-109674805D01*
X45313244Y-109563756D01*
X45299024Y-109441463D01*
X45325282Y-109321179D01*
X45389174Y-109215939D01*
X45452733Y-109157427D01*
X45467252Y-109146879D01*
X45606879Y-109007252D01*
X45613420Y-108998250D01*
X45722941Y-108847505D01*
X45722944Y-108847501D01*
X45812591Y-108671561D01*
X45873610Y-108483763D01*
X45904500Y-108288731D01*
X45904500Y-108091269D01*
X45904476Y-108091118D01*
X56346000Y-108091118D01*
X56346000Y-108288883D01*
X56384583Y-108482854D01*
X56426241Y-108583427D01*
X56819669Y-108189999D01*
X56753844Y-108124174D01*
X56850000Y-108124174D01*
X56850000Y-108255826D01*
X56884075Y-108382993D01*
X56949901Y-108497007D01*
X57042993Y-108590099D01*
X57157007Y-108655925D01*
X57284174Y-108690000D01*
X57415826Y-108690000D01*
X57542993Y-108655925D01*
X57657007Y-108590099D01*
X57750099Y-108497007D01*
X57815925Y-108382993D01*
X57850000Y-108255826D01*
X57850000Y-108190000D01*
X57880330Y-108190000D01*
X58273758Y-108583428D01*
X58315416Y-108482858D01*
X58353999Y-108288883D01*
X58354000Y-108288883D01*
X58354000Y-108091117D01*
X58353999Y-108091116D01*
X58315416Y-107897145D01*
X58273757Y-107796571D01*
X57880330Y-108190000D01*
X57850000Y-108190000D01*
X57850000Y-108124174D01*
X57815925Y-107997007D01*
X57750099Y-107882993D01*
X57657007Y-107789901D01*
X57542993Y-107724075D01*
X57415826Y-107690000D01*
X57284174Y-107690000D01*
X57157007Y-107724075D01*
X57042993Y-107789901D01*
X56949901Y-107882993D01*
X56884075Y-107997007D01*
X56850000Y-108124174D01*
X56753844Y-108124174D01*
X56426241Y-107796571D01*
X56384584Y-107897141D01*
X56346000Y-108091118D01*
X45904476Y-108091118D01*
X45873610Y-107896237D01*
X45841227Y-107796571D01*
X45812593Y-107708444D01*
X45812592Y-107708442D01*
X45812591Y-107708439D01*
X45722944Y-107532499D01*
X45722941Y-107532494D01*
X45606886Y-107372756D01*
X45606876Y-107372745D01*
X45467253Y-107233122D01*
X45467252Y-107233121D01*
X45452734Y-107222573D01*
X45366403Y-107134805D01*
X45313244Y-107023756D01*
X45299024Y-106901463D01*
X45325282Y-106781179D01*
X45389174Y-106675939D01*
X45452733Y-106617427D01*
X45467252Y-106606879D01*
X45606879Y-106467252D01*
X45610320Y-106462517D01*
X45722941Y-106307505D01*
X45722944Y-106307501D01*
X45812591Y-106131561D01*
X45873610Y-105943763D01*
X45904500Y-105748731D01*
X45904500Y-105551269D01*
X45873610Y-105356237D01*
X45830396Y-105223236D01*
X45812593Y-105168444D01*
X45812592Y-105168442D01*
X45812591Y-105168439D01*
X45722944Y-104992499D01*
X45722941Y-104992494D01*
X45606886Y-104832756D01*
X45606876Y-104832745D01*
X45467254Y-104693123D01*
X45467243Y-104693113D01*
X45307505Y-104577058D01*
X45276843Y-104561435D01*
X45221855Y-104533416D01*
X45122856Y-104460230D01*
X45052982Y-104358862D01*
X45019809Y-104240299D01*
X45024837Y-104127219D01*
X45043427Y-104033757D01*
X44650000Y-103640330D01*
X44256570Y-104033758D01*
X44275161Y-104127220D01*
X44278977Y-104250278D01*
X44242629Y-104367907D01*
X44170057Y-104467360D01*
X44078144Y-104533416D01*
X43992500Y-104577054D01*
X43992494Y-104577058D01*
X43832756Y-104693113D01*
X43832745Y-104693123D01*
X43693123Y-104832745D01*
X43693113Y-104832756D01*
X43577058Y-104992494D01*
X43577058Y-104992495D01*
X43487410Y-105168437D01*
X43487406Y-105168444D01*
X43426392Y-105356229D01*
X43426390Y-105356234D01*
X43426390Y-105356237D01*
X43395500Y-105551269D01*
X43395500Y-105748731D01*
X43419816Y-105902254D01*
X43426390Y-105943761D01*
X43426392Y-105943770D01*
X43487406Y-106131555D01*
X43487408Y-106131559D01*
X43487409Y-106131561D01*
X43577056Y-106307501D01*
X43577058Y-106307504D01*
X43577058Y-106307505D01*
X43693113Y-106467243D01*
X43693123Y-106467254D01*
X43746911Y-106521042D01*
X43818451Y-106621240D01*
X43853581Y-106739239D01*
X43848493Y-106862251D01*
X43803739Y-106976945D01*
X43724169Y-107070893D01*
X43618405Y-107133915D01*
X43497909Y-107159181D01*
X43482453Y-107159500D01*
X41764312Y-107159500D01*
X41642874Y-107139236D01*
X41534596Y-107080639D01*
X41499854Y-107049958D01*
X41379794Y-106929898D01*
X41379788Y-106929893D01*
X41340657Y-106901463D01*
X41207816Y-106804949D01*
X41207813Y-106804947D01*
X41018412Y-106708443D01*
X40816244Y-106642754D01*
X40774251Y-106636103D01*
X40606287Y-106609500D01*
X40393713Y-106609500D01*
X40183757Y-106642754D01*
X40183753Y-106642754D01*
X39981587Y-106708443D01*
X39792186Y-106804947D01*
X39792184Y-106804949D01*
X39620211Y-106929893D01*
X39620205Y-106929898D01*
X39469898Y-107080205D01*
X39469893Y-107080211D01*
X39344949Y-107252184D01*
X39344947Y-107252186D01*
X39248443Y-107441587D01*
X39182754Y-107643753D01*
X39182754Y-107643757D01*
X39149500Y-107853713D01*
X38000500Y-107853713D01*
X38000500Y-103011118D01*
X43646000Y-103011118D01*
X43646000Y-103208883D01*
X43684583Y-103402854D01*
X43726241Y-103503427D01*
X44119669Y-103109999D01*
X44053844Y-103044174D01*
X44150000Y-103044174D01*
X44150000Y-103175826D01*
X44184075Y-103302993D01*
X44249901Y-103417007D01*
X44342993Y-103510099D01*
X44457007Y-103575925D01*
X44584174Y-103610000D01*
X44715826Y-103610000D01*
X44842993Y-103575925D01*
X44957007Y-103510099D01*
X45050099Y-103417007D01*
X45115925Y-103302993D01*
X45150000Y-103175826D01*
X45150000Y-103110000D01*
X45180330Y-103110000D01*
X45573758Y-103503428D01*
X45615416Y-103402858D01*
X45653999Y-103208883D01*
X45654000Y-103208883D01*
X45654000Y-103011269D01*
X56095500Y-103011269D01*
X56095500Y-103208731D01*
X56119816Y-103362254D01*
X56126390Y-103403761D01*
X56126392Y-103403770D01*
X56187406Y-103591555D01*
X56187408Y-103591559D01*
X56187409Y-103591561D01*
X56260378Y-103734769D01*
X56277058Y-103767504D01*
X56277058Y-103767505D01*
X56393113Y-103927243D01*
X56393120Y-103927251D01*
X56393121Y-103927252D01*
X56532748Y-104066879D01*
X56532751Y-104066881D01*
X56547266Y-104077427D01*
X56633600Y-104165200D01*
X56686757Y-104276251D01*
X56700975Y-104398544D01*
X56674714Y-104518827D01*
X56610821Y-104624066D01*
X56547266Y-104682573D01*
X56532751Y-104693118D01*
X56532745Y-104693123D01*
X56393123Y-104832745D01*
X56393113Y-104832756D01*
X56277058Y-104992494D01*
X56277058Y-104992495D01*
X56187410Y-105168437D01*
X56187406Y-105168444D01*
X56126392Y-105356229D01*
X56126390Y-105356234D01*
X56126390Y-105356237D01*
X56095500Y-105551269D01*
X56095500Y-105748731D01*
X56119816Y-105902254D01*
X56126390Y-105943761D01*
X56126392Y-105943770D01*
X56187406Y-106131555D01*
X56187408Y-106131559D01*
X56187409Y-106131561D01*
X56277056Y-106307501D01*
X56277058Y-106307504D01*
X56277058Y-106307505D01*
X56393113Y-106467243D01*
X56393123Y-106467254D01*
X56532745Y-106606876D01*
X56532756Y-106606886D01*
X56692494Y-106722941D01*
X56692496Y-106722942D01*
X56692499Y-106722944D01*
X56778142Y-106766581D01*
X56877142Y-106839769D01*
X56947016Y-106941137D01*
X56980189Y-107059700D01*
X56975161Y-107172780D01*
X56956570Y-107266240D01*
X57349999Y-107659669D01*
X57743427Y-107266241D01*
X57724837Y-107172782D01*
X57721021Y-107049724D01*
X57757368Y-106932095D01*
X57829939Y-106832641D01*
X57921856Y-106766582D01*
X58007501Y-106722944D01*
X58034516Y-106703316D01*
X58167243Y-106606886D01*
X58167245Y-106606883D01*
X58167252Y-106606879D01*
X58306879Y-106467252D01*
X58310320Y-106462517D01*
X58422941Y-106307505D01*
X58422944Y-106307501D01*
X58512591Y-106131561D01*
X58573610Y-105943763D01*
X58604500Y-105748731D01*
X58604500Y-105551269D01*
X58573610Y-105356237D01*
X58530396Y-105223236D01*
X58512593Y-105168444D01*
X58512592Y-105168442D01*
X58512591Y-105168439D01*
X58422944Y-104992499D01*
X58422941Y-104992494D01*
X58306886Y-104832756D01*
X58306876Y-104832745D01*
X58167253Y-104693122D01*
X58167252Y-104693121D01*
X58152734Y-104682573D01*
X58066403Y-104594805D01*
X58013244Y-104483756D01*
X57999024Y-104361463D01*
X58025282Y-104241179D01*
X58089174Y-104135939D01*
X58152733Y-104077427D01*
X58167252Y-104066879D01*
X58306879Y-103927252D01*
X58331701Y-103893088D01*
X58422941Y-103767505D01*
X58422944Y-103767501D01*
X58512591Y-103591561D01*
X58573610Y-103403763D01*
X58604500Y-103208731D01*
X58604500Y-103011269D01*
X58573610Y-102816237D01*
X58541227Y-102716571D01*
X58512593Y-102628444D01*
X58512592Y-102628442D01*
X58512591Y-102628439D01*
X58422944Y-102452499D01*
X58422941Y-102452494D01*
X58306886Y-102292756D01*
X58306876Y-102292745D01*
X58167254Y-102153123D01*
X58167243Y-102153113D01*
X58007505Y-102037058D01*
X57976843Y-102021435D01*
X57831561Y-101947409D01*
X57831559Y-101947408D01*
X57831555Y-101947406D01*
X57643770Y-101886392D01*
X57643767Y-101886391D01*
X57643763Y-101886390D01*
X57448731Y-101855500D01*
X57251269Y-101855500D01*
X57056237Y-101886390D01*
X57056234Y-101886390D01*
X57056229Y-101886392D01*
X56868444Y-101947406D01*
X56868437Y-101947410D01*
X56692495Y-102037058D01*
X56692494Y-102037058D01*
X56532756Y-102153113D01*
X56532745Y-102153123D01*
X56393123Y-102292745D01*
X56393113Y-102292756D01*
X56277058Y-102452494D01*
X56277058Y-102452495D01*
X56187410Y-102628437D01*
X56187406Y-102628444D01*
X56126392Y-102816229D01*
X56126390Y-102816234D01*
X56126390Y-102816237D01*
X56095500Y-103011269D01*
X45654000Y-103011269D01*
X45654000Y-103011117D01*
X45653999Y-103011116D01*
X45615416Y-102817145D01*
X45573757Y-102716571D01*
X45180330Y-103110000D01*
X45150000Y-103110000D01*
X45150000Y-103044174D01*
X45115925Y-102917007D01*
X45050099Y-102802993D01*
X44957007Y-102709901D01*
X44842993Y-102644075D01*
X44715826Y-102610000D01*
X44584174Y-102610000D01*
X44457007Y-102644075D01*
X44342993Y-102709901D01*
X44249901Y-102802993D01*
X44184075Y-102917007D01*
X44150000Y-103044174D01*
X44053844Y-103044174D01*
X43726241Y-102716571D01*
X43684584Y-102817141D01*
X43646000Y-103011118D01*
X38000500Y-103011118D01*
X38000500Y-102186241D01*
X44256571Y-102186241D01*
X44649999Y-102579669D01*
X45043427Y-102186241D01*
X44942854Y-102144583D01*
X44748883Y-102106000D01*
X44551118Y-102106000D01*
X44357141Y-102144584D01*
X44256571Y-102186241D01*
X38000500Y-102186241D01*
X38000500Y-99291269D01*
X43395500Y-99291269D01*
X43395500Y-99488731D01*
X43424608Y-99672510D01*
X43426390Y-99683761D01*
X43426392Y-99683770D01*
X43487406Y-99871555D01*
X43487408Y-99871559D01*
X43487409Y-99871561D01*
X43574310Y-100042111D01*
X43577058Y-100047504D01*
X43577058Y-100047505D01*
X43693113Y-100207243D01*
X43693123Y-100207254D01*
X43832745Y-100346876D01*
X43832756Y-100346886D01*
X43992494Y-100462941D01*
X43992496Y-100462942D01*
X43992499Y-100462944D01*
X44168439Y-100552591D01*
X44168442Y-100552592D01*
X44168444Y-100552593D01*
X44259282Y-100582107D01*
X44356237Y-100613610D01*
X44551269Y-100644500D01*
X44551273Y-100644500D01*
X44748727Y-100644500D01*
X44748731Y-100644500D01*
X44943763Y-100613610D01*
X45131561Y-100552591D01*
X45307501Y-100462944D01*
X45307505Y-100462941D01*
X45327294Y-100448564D01*
X45412955Y-100386328D01*
X45467243Y-100346886D01*
X45467245Y-100346883D01*
X45467252Y-100346879D01*
X45606879Y-100207252D01*
X45618053Y-100191873D01*
X45722941Y-100047505D01*
X45722944Y-100047501D01*
X45812591Y-99871561D01*
X45873610Y-99683763D01*
X45904500Y-99488731D01*
X45904500Y-99291269D01*
X45873610Y-99096237D01*
X45812591Y-98908439D01*
X45722944Y-98732499D01*
X45722941Y-98732494D01*
X45606886Y-98572756D01*
X45606876Y-98572745D01*
X45467254Y-98433123D01*
X45467243Y-98433113D01*
X45307505Y-98317058D01*
X45298619Y-98312530D01*
X45221855Y-98273416D01*
X45122856Y-98200230D01*
X45052982Y-98098862D01*
X45019809Y-97980299D01*
X45024837Y-97867219D01*
X45043427Y-97773757D01*
X44650000Y-97380330D01*
X44256570Y-97773758D01*
X44275161Y-97867220D01*
X44278977Y-97990278D01*
X44242629Y-98107907D01*
X44170057Y-98207360D01*
X44078144Y-98273416D01*
X43992500Y-98317054D01*
X43992494Y-98317058D01*
X43832756Y-98433113D01*
X43832745Y-98433123D01*
X43693123Y-98572745D01*
X43693113Y-98572756D01*
X43577058Y-98732494D01*
X43577058Y-98732495D01*
X43487410Y-98908437D01*
X43487406Y-98908444D01*
X43426392Y-99096229D01*
X43426390Y-99096234D01*
X43426390Y-99096237D01*
X43395500Y-99291269D01*
X38000500Y-99291269D01*
X38000500Y-99085003D01*
X38001324Y-96751118D01*
X43646000Y-96751118D01*
X43646000Y-96948883D01*
X43684583Y-97142854D01*
X43726241Y-97243427D01*
X44119669Y-96849999D01*
X43726241Y-96456571D01*
X43684584Y-96557141D01*
X43646000Y-96751118D01*
X38001324Y-96751118D01*
X38001331Y-96732610D01*
X38002742Y-92737423D01*
X38004915Y-86583713D01*
X39149500Y-86583713D01*
X39149500Y-86796287D01*
X39179195Y-86983770D01*
X39182754Y-87006242D01*
X39182754Y-87006246D01*
X39248443Y-87208412D01*
X39342217Y-87392456D01*
X39344949Y-87397816D01*
X39440589Y-87529454D01*
X39469893Y-87569788D01*
X39469898Y-87569794D01*
X39595646Y-87695542D01*
X39667186Y-87795740D01*
X39702316Y-87913739D01*
X39697228Y-88036751D01*
X39652474Y-88151445D01*
X39595646Y-88224458D01*
X39469898Y-88350205D01*
X39469893Y-88350211D01*
X39344949Y-88522184D01*
X39344947Y-88522186D01*
X39248443Y-88711587D01*
X39182754Y-88913753D01*
X39182754Y-88913757D01*
X39149500Y-89123713D01*
X39149500Y-89336287D01*
X39179195Y-89523770D01*
X39182754Y-89546242D01*
X39182754Y-89546246D01*
X39248443Y-89748412D01*
X39341212Y-89930483D01*
X39344949Y-89937816D01*
X39440589Y-90069454D01*
X39469893Y-90109788D01*
X39469898Y-90109794D01*
X39595646Y-90235542D01*
X39667186Y-90335740D01*
X39702316Y-90453739D01*
X39697228Y-90576751D01*
X39652474Y-90691445D01*
X39595646Y-90764458D01*
X39469898Y-90890205D01*
X39469893Y-90890211D01*
X39344949Y-91062184D01*
X39344947Y-91062186D01*
X39248443Y-91251587D01*
X39182754Y-91453753D01*
X39182754Y-91453757D01*
X39149500Y-91663713D01*
X39149500Y-91876287D01*
X39181851Y-92080542D01*
X39182754Y-92086242D01*
X39182754Y-92086246D01*
X39248443Y-92288412D01*
X39344947Y-92477813D01*
X39344948Y-92477815D01*
X39367794Y-92509260D01*
X39403690Y-92558667D01*
X39403692Y-92558669D01*
X39458677Y-92668825D01*
X39474914Y-92790866D01*
X39450646Y-92911568D01*
X39388501Y-93017849D01*
X39325255Y-93077898D01*
X39292455Y-93102452D01*
X39292451Y-93102456D01*
X39206207Y-93217663D01*
X39206202Y-93217673D01*
X39155909Y-93352515D01*
X39155908Y-93352520D01*
X39149500Y-93412125D01*
X39149500Y-95207868D01*
X39153853Y-95248358D01*
X39155909Y-95267483D01*
X39206204Y-95402331D01*
X39206205Y-95402333D01*
X39206207Y-95402336D01*
X39292451Y-95517543D01*
X39292456Y-95517548D01*
X39407663Y-95603792D01*
X39407664Y-95603792D01*
X39407669Y-95603796D01*
X39542517Y-95654091D01*
X39602127Y-95660500D01*
X41397872Y-95660499D01*
X41457483Y-95654091D01*
X41592331Y-95603796D01*
X41707546Y-95517546D01*
X41793796Y-95402331D01*
X41844091Y-95267483D01*
X41850500Y-95207873D01*
X41850499Y-93412128D01*
X41844091Y-93352517D01*
X41793796Y-93217669D01*
X41793792Y-93217663D01*
X41707548Y-93102456D01*
X41707544Y-93102452D01*
X41674747Y-93077900D01*
X41589676Y-92988902D01*
X41538112Y-92877103D01*
X41525643Y-92754620D01*
X41553620Y-92634724D01*
X41596308Y-92558669D01*
X41655051Y-92477816D01*
X41751557Y-92288412D01*
X41817246Y-92086243D01*
X41850500Y-91876287D01*
X41850500Y-91663713D01*
X41817246Y-91453757D01*
X41816025Y-91450000D01*
X41795787Y-91387713D01*
X41751557Y-91251588D01*
X41655051Y-91062184D01*
X41530104Y-90890208D01*
X41404354Y-90764458D01*
X41332814Y-90664260D01*
X41297684Y-90546261D01*
X41302772Y-90423249D01*
X41347526Y-90308555D01*
X41404354Y-90235542D01*
X41453020Y-90186876D01*
X41530104Y-90109792D01*
X41655051Y-89937816D01*
X41751557Y-89748412D01*
X41817246Y-89546243D01*
X41850500Y-89336287D01*
X41850500Y-89123713D01*
X41817246Y-88913757D01*
X41808347Y-88886370D01*
X41786808Y-88820080D01*
X41751557Y-88711588D01*
X41655051Y-88522184D01*
X41530104Y-88350208D01*
X41404354Y-88224458D01*
X41332814Y-88124260D01*
X41297684Y-88006261D01*
X41302772Y-87883249D01*
X41347526Y-87768555D01*
X41404354Y-87695542D01*
X41457379Y-87642517D01*
X41530104Y-87569792D01*
X41655051Y-87397816D01*
X41751557Y-87208412D01*
X41817246Y-87006243D01*
X41850500Y-86796287D01*
X41850500Y-86583713D01*
X41817246Y-86373757D01*
X41808347Y-86346370D01*
X41763532Y-86208444D01*
X41751557Y-86171588D01*
X41655051Y-85982184D01*
X41530104Y-85810208D01*
X41379792Y-85659896D01*
X41207816Y-85534949D01*
X41207813Y-85534947D01*
X41018412Y-85438443D01*
X40816244Y-85372754D01*
X40774251Y-85366103D01*
X40606287Y-85339500D01*
X40393713Y-85339500D01*
X40183757Y-85372754D01*
X40183753Y-85372754D01*
X39981587Y-85438443D01*
X39792186Y-85534947D01*
X39792184Y-85534949D01*
X39620211Y-85659893D01*
X39620205Y-85659898D01*
X39469898Y-85810205D01*
X39469893Y-85810211D01*
X39344949Y-85982184D01*
X39344947Y-85982186D01*
X39248443Y-86171587D01*
X39182754Y-86373753D01*
X39182754Y-86373757D01*
X39149500Y-86583713D01*
X38004915Y-86583713D01*
X38005809Y-84051269D01*
X43395500Y-84051269D01*
X43395500Y-84248731D01*
X43424608Y-84432510D01*
X43426390Y-84443761D01*
X43426392Y-84443770D01*
X43487406Y-84631555D01*
X43487408Y-84631559D01*
X43487409Y-84631561D01*
X43576825Y-84807047D01*
X43577058Y-84807504D01*
X43577058Y-84807505D01*
X43693113Y-84967243D01*
X43693120Y-84967251D01*
X43693121Y-84967252D01*
X43832748Y-85106879D01*
X43832751Y-85106881D01*
X43847266Y-85117427D01*
X43933600Y-85205200D01*
X43986757Y-85316251D01*
X44000975Y-85438544D01*
X43974714Y-85558827D01*
X43910821Y-85664066D01*
X43847266Y-85722573D01*
X43832751Y-85733118D01*
X43832745Y-85733123D01*
X43693123Y-85872745D01*
X43693113Y-85872756D01*
X43577058Y-86032494D01*
X43577058Y-86032495D01*
X43487410Y-86208437D01*
X43487406Y-86208444D01*
X43426392Y-86396229D01*
X43426390Y-86396234D01*
X43426390Y-86396237D01*
X43395500Y-86591269D01*
X43395500Y-86788731D01*
X43426135Y-86982151D01*
X43426390Y-86983761D01*
X43426392Y-86983770D01*
X43487406Y-87171555D01*
X43487408Y-87171559D01*
X43487409Y-87171561D01*
X43577056Y-87347501D01*
X43577058Y-87347504D01*
X43577058Y-87347505D01*
X43693113Y-87507243D01*
X43693120Y-87507251D01*
X43693121Y-87507252D01*
X43832748Y-87646879D01*
X43832751Y-87646881D01*
X43847266Y-87657427D01*
X43933600Y-87745200D01*
X43986757Y-87856251D01*
X44000975Y-87978544D01*
X43974714Y-88098827D01*
X43910821Y-88204066D01*
X43847266Y-88262573D01*
X43832751Y-88273118D01*
X43832745Y-88273123D01*
X43693123Y-88412745D01*
X43693113Y-88412756D01*
X43577058Y-88572494D01*
X43577058Y-88572495D01*
X43487410Y-88748437D01*
X43487406Y-88748444D01*
X43426392Y-88936229D01*
X43426390Y-88936234D01*
X43426390Y-88936237D01*
X43395500Y-89131269D01*
X43395500Y-89328731D01*
X43426390Y-89523761D01*
X43426392Y-89523770D01*
X43487406Y-89711555D01*
X43487408Y-89711559D01*
X43487409Y-89711561D01*
X43576662Y-89886727D01*
X43577058Y-89887504D01*
X43577058Y-89887505D01*
X43693113Y-90047243D01*
X43693120Y-90047251D01*
X43693121Y-90047252D01*
X43832748Y-90186879D01*
X43832751Y-90186881D01*
X43847266Y-90197427D01*
X43933600Y-90285200D01*
X43986757Y-90396251D01*
X44000975Y-90518544D01*
X43974714Y-90638827D01*
X43910821Y-90744066D01*
X43847266Y-90802573D01*
X43832751Y-90813118D01*
X43832745Y-90813123D01*
X43693123Y-90952745D01*
X43693113Y-90952756D01*
X43577058Y-91112494D01*
X43577058Y-91112495D01*
X43487410Y-91288437D01*
X43487406Y-91288444D01*
X43426392Y-91476229D01*
X43426390Y-91476234D01*
X43426390Y-91476237D01*
X43395500Y-91671269D01*
X43395500Y-91868731D01*
X43425974Y-92061137D01*
X43426390Y-92063761D01*
X43426392Y-92063770D01*
X43487406Y-92251555D01*
X43487408Y-92251559D01*
X43487409Y-92251561D01*
X43577056Y-92427501D01*
X43577058Y-92427504D01*
X43577058Y-92427505D01*
X43693113Y-92587243D01*
X43693120Y-92587251D01*
X43693121Y-92587252D01*
X43832748Y-92726879D01*
X43832751Y-92726881D01*
X43847266Y-92737427D01*
X43933600Y-92825200D01*
X43986757Y-92936251D01*
X44000975Y-93058544D01*
X43974714Y-93178827D01*
X43910821Y-93284066D01*
X43847266Y-93342573D01*
X43832751Y-93353118D01*
X43832745Y-93353123D01*
X43693123Y-93492745D01*
X43693113Y-93492756D01*
X43577058Y-93652494D01*
X43577058Y-93652495D01*
X43487410Y-93828437D01*
X43487406Y-93828444D01*
X43426392Y-94016229D01*
X43426390Y-94016234D01*
X43426390Y-94016237D01*
X43395500Y-94211269D01*
X43395500Y-94408731D01*
X43426390Y-94603761D01*
X43426392Y-94603770D01*
X43487406Y-94791555D01*
X43487408Y-94791559D01*
X43487409Y-94791561D01*
X43577056Y-94967501D01*
X43577058Y-94967504D01*
X43577058Y-94967505D01*
X43693113Y-95127243D01*
X43693123Y-95127254D01*
X43832745Y-95266876D01*
X43832756Y-95266886D01*
X43992494Y-95382941D01*
X43992496Y-95382942D01*
X43992499Y-95382944D01*
X44078142Y-95426581D01*
X44177142Y-95499769D01*
X44247016Y-95601137D01*
X44280189Y-95719700D01*
X44275161Y-95832780D01*
X44256570Y-95926240D01*
X44680330Y-96350000D01*
X44584174Y-96350000D01*
X44457007Y-96384075D01*
X44342993Y-96449901D01*
X44249901Y-96542993D01*
X44184075Y-96657007D01*
X44150000Y-96784174D01*
X44150000Y-96915826D01*
X44184075Y-97042993D01*
X44249901Y-97157007D01*
X44342993Y-97250099D01*
X44457007Y-97315925D01*
X44584174Y-97350000D01*
X44715826Y-97350000D01*
X44842993Y-97315925D01*
X44957007Y-97250099D01*
X45050099Y-97157007D01*
X45115925Y-97042993D01*
X45150000Y-96915826D01*
X45150000Y-96819670D01*
X45573758Y-97243428D01*
X45615416Y-97142858D01*
X45653999Y-96948883D01*
X45654000Y-96948883D01*
X45654000Y-96751117D01*
X45653999Y-96751114D01*
X45635255Y-96656881D01*
X45631438Y-96533823D01*
X45667784Y-96416194D01*
X45740356Y-96316740D01*
X45841287Y-96246238D01*
X45853910Y-96240513D01*
X45890265Y-96224827D01*
X45978197Y-96207337D01*
X46123879Y-96146994D01*
X46220851Y-96082198D01*
X46252144Y-96068698D01*
X46279273Y-96062002D01*
X46304750Y-96050512D01*
X46349249Y-96044731D01*
X46371674Y-96039197D01*
X46383652Y-96040262D01*
X46400302Y-96038100D01*
X55779976Y-96038100D01*
X55901414Y-96058364D01*
X56009692Y-96116961D01*
X56093076Y-96207541D01*
X56142532Y-96320288D01*
X56152699Y-96442985D01*
X56135671Y-96527672D01*
X56126392Y-96556229D01*
X56126390Y-96556234D01*
X56126390Y-96556237D01*
X56095500Y-96751269D01*
X56095500Y-96948731D01*
X56125974Y-97141137D01*
X56126390Y-97143761D01*
X56126392Y-97143770D01*
X56187406Y-97331555D01*
X56187408Y-97331559D01*
X56187409Y-97331561D01*
X56277056Y-97507501D01*
X56277058Y-97507504D01*
X56277058Y-97507505D01*
X56401758Y-97679141D01*
X56400533Y-97680030D01*
X56455656Y-97771670D01*
X56481422Y-97892060D01*
X56466701Y-98014294D01*
X56413088Y-98125125D01*
X56331942Y-98208468D01*
X56238455Y-98278452D01*
X56238451Y-98278456D01*
X56152207Y-98393663D01*
X56152202Y-98393673D01*
X56101909Y-98528515D01*
X56101908Y-98528520D01*
X56095500Y-98588125D01*
X56095500Y-100191868D01*
X56097908Y-100214266D01*
X56101909Y-100251483D01*
X56152204Y-100386331D01*
X56152205Y-100386333D01*
X56152207Y-100386336D01*
X56238451Y-100501543D01*
X56238456Y-100501548D01*
X56353663Y-100587792D01*
X56353664Y-100587792D01*
X56353669Y-100587796D01*
X56488517Y-100638091D01*
X56548127Y-100644500D01*
X58151872Y-100644499D01*
X58211483Y-100638091D01*
X58346331Y-100587796D01*
X58461546Y-100501546D01*
X58547796Y-100386331D01*
X58598091Y-100251483D01*
X58598091Y-100251481D01*
X58604685Y-100233803D01*
X58609993Y-100224581D01*
X58612606Y-100214266D01*
X58640585Y-100171439D01*
X58666109Y-100127103D01*
X58674124Y-100120104D01*
X58679944Y-100111197D01*
X58720310Y-100079778D01*
X58758850Y-100046129D01*
X58768705Y-100042111D01*
X58777101Y-100035577D01*
X58825477Y-100018969D01*
X58872859Y-99999655D01*
X58885998Y-99998192D01*
X58893547Y-99995601D01*
X58955105Y-99990500D01*
X59463001Y-99990500D01*
X59463017Y-99990501D01*
X59485943Y-99990501D01*
X59644056Y-99990501D01*
X59644057Y-99990501D01*
X59796785Y-99949577D01*
X59846904Y-99920639D01*
X59933716Y-99870520D01*
X60045520Y-99758716D01*
X60045521Y-99758713D01*
X60763004Y-99041229D01*
X60863199Y-98969692D01*
X60981198Y-98934562D01*
X61104210Y-98939650D01*
X61218904Y-98984404D01*
X61312852Y-99063974D01*
X61375874Y-99169738D01*
X61383150Y-99190106D01*
X61409432Y-99270992D01*
X61472108Y-99394000D01*
X61480161Y-99409805D01*
X61508179Y-99482795D01*
X61545421Y-99621781D01*
X61545422Y-99621782D01*
X61545423Y-99621785D01*
X61624481Y-99758716D01*
X61624482Y-99758717D01*
X61626499Y-99760734D01*
X61632779Y-99769530D01*
X61639405Y-99778165D01*
X61639107Y-99778393D01*
X61698039Y-99860932D01*
X61733169Y-99978931D01*
X61728081Y-100101943D01*
X61683327Y-100216637D01*
X61663101Y-100244861D01*
X61664120Y-100245602D01*
X61561871Y-100386336D01*
X61516657Y-100448567D01*
X61489663Y-100501546D01*
X61409433Y-100659005D01*
X61409432Y-100659007D01*
X61409432Y-100659008D01*
X61336447Y-100883632D01*
X61299500Y-101116908D01*
X61299500Y-101353092D01*
X61336447Y-101586368D01*
X61409432Y-101810992D01*
X61516657Y-102021433D01*
X61547180Y-102063444D01*
X61655481Y-102212508D01*
X61655484Y-102212512D01*
X61683518Y-102240546D01*
X61755057Y-102340745D01*
X61790185Y-102458744D01*
X61785096Y-102581755D01*
X61740341Y-102696449D01*
X61683518Y-102769454D01*
X61655484Y-102797487D01*
X61655481Y-102797491D01*
X61543839Y-102951154D01*
X61516657Y-102988567D01*
X61497301Y-103026555D01*
X61409433Y-103199005D01*
X61409432Y-103199007D01*
X61409432Y-103199008D01*
X61336447Y-103423632D01*
X61299500Y-103656908D01*
X61299500Y-103893092D01*
X61336447Y-104126368D01*
X61409432Y-104350992D01*
X61516657Y-104561433D01*
X61562163Y-104624066D01*
X61655481Y-104752508D01*
X61655484Y-104752512D01*
X61683518Y-104780546D01*
X61755057Y-104880745D01*
X61790185Y-104998744D01*
X61785096Y-105121755D01*
X61740341Y-105236449D01*
X61683518Y-105309454D01*
X61655484Y-105337487D01*
X61655481Y-105337491D01*
X61520545Y-105523215D01*
X61516657Y-105528567D01*
X61467309Y-105625417D01*
X61409433Y-105739005D01*
X61409432Y-105739007D01*
X61409432Y-105739008D01*
X61336447Y-105963632D01*
X61299500Y-106196908D01*
X61299500Y-106433092D01*
X61336447Y-106666368D01*
X61409432Y-106890992D01*
X61516657Y-107101433D01*
X61547180Y-107143444D01*
X61655481Y-107292508D01*
X61655484Y-107292512D01*
X61683518Y-107320546D01*
X61755057Y-107420745D01*
X61790185Y-107538744D01*
X61785096Y-107661755D01*
X61740341Y-107776449D01*
X61683518Y-107849454D01*
X61655484Y-107877487D01*
X61655481Y-107877491D01*
X61516659Y-108068564D01*
X61516657Y-108068567D01*
X61477734Y-108144958D01*
X61409433Y-108279005D01*
X61409432Y-108279007D01*
X61409432Y-108279008D01*
X61336447Y-108503632D01*
X61299500Y-108736908D01*
X61299500Y-108973092D01*
X61336447Y-109206368D01*
X61409432Y-109430992D01*
X61516657Y-109641433D01*
X61558845Y-109699500D01*
X61655481Y-109832508D01*
X61655484Y-109832512D01*
X61683518Y-109860546D01*
X61755057Y-109960745D01*
X61790185Y-110078744D01*
X61785096Y-110201755D01*
X61740341Y-110316449D01*
X61683518Y-110389454D01*
X61655484Y-110417487D01*
X61655481Y-110417491D01*
X61516659Y-110608564D01*
X61516657Y-110608567D01*
X61493253Y-110654500D01*
X61409433Y-110819005D01*
X61409432Y-110819007D01*
X61409432Y-110819008D01*
X61336447Y-111043632D01*
X61299500Y-111276908D01*
X61299500Y-111513092D01*
X61336447Y-111746368D01*
X61409432Y-111970992D01*
X61516657Y-112181433D01*
X61558845Y-112239500D01*
X61655481Y-112372508D01*
X61655484Y-112372512D01*
X61683518Y-112400546D01*
X61755057Y-112500745D01*
X61790185Y-112618744D01*
X61785096Y-112741755D01*
X61740341Y-112856449D01*
X61683518Y-112929454D01*
X61655484Y-112957487D01*
X61655481Y-112957491D01*
X61516659Y-113148564D01*
X61516657Y-113148567D01*
X61497301Y-113186555D01*
X61409433Y-113359005D01*
X61409432Y-113359007D01*
X61409432Y-113359008D01*
X61336447Y-113583632D01*
X61299500Y-113816908D01*
X61299500Y-114053092D01*
X61336447Y-114286368D01*
X61409432Y-114510992D01*
X61516657Y-114721433D01*
X61655483Y-114912510D01*
X61822490Y-115079517D01*
X62013567Y-115218343D01*
X62086851Y-115255683D01*
X62095854Y-115260921D01*
X62115977Y-115277607D01*
X62177999Y-115322669D01*
X62800000Y-115944670D01*
X62800001Y-115944670D01*
X63421997Y-115322671D01*
X63445361Y-115305695D01*
X63453502Y-115296285D01*
X63504146Y-115260920D01*
X63513134Y-115255690D01*
X63586433Y-115218343D01*
X63777510Y-115079517D01*
X63944517Y-114912510D01*
X64083343Y-114721433D01*
X64083351Y-114721416D01*
X64087107Y-114715289D01*
X64091388Y-114710358D01*
X64091980Y-114709545D01*
X64092050Y-114709596D01*
X64167836Y-114622334D01*
X64274372Y-114560627D01*
X64395172Y-114536857D01*
X64405997Y-114536700D01*
X65515367Y-114536700D01*
X65636805Y-114556964D01*
X65745083Y-114615561D01*
X65828467Y-114706141D01*
X65877923Y-114818888D01*
X65888090Y-114941585D01*
X65882181Y-114983665D01*
X65880264Y-114993299D01*
X65880263Y-114993303D01*
X65849500Y-115147958D01*
X65849500Y-115305642D01*
X65880263Y-115460297D01*
X65940606Y-115605979D01*
X66028211Y-115737089D01*
X66139711Y-115848589D01*
X66270821Y-115936194D01*
X66416503Y-115996537D01*
X66571158Y-116027300D01*
X66571161Y-116027300D01*
X66728842Y-116027300D01*
X66731868Y-116027002D01*
X66768525Y-116025201D01*
X66768842Y-116025200D01*
X66768843Y-116025201D01*
X66926957Y-116025201D01*
X66926960Y-116025200D01*
X66949897Y-116025200D01*
X86324098Y-116025200D01*
X86445536Y-116045464D01*
X86531877Y-116088227D01*
X86600521Y-116134094D01*
X86719125Y-116183221D01*
X86823561Y-116248413D01*
X86901173Y-116343985D01*
X86943548Y-116459580D01*
X86950000Y-116528751D01*
X86950000Y-116573373D01*
X86980779Y-116767709D01*
X87041581Y-116954835D01*
X87104003Y-117077347D01*
X87141078Y-117194749D01*
X87138024Y-117317828D01*
X87095171Y-117433246D01*
X87017165Y-117528497D01*
X86979040Y-117555116D01*
X86979083Y-117555173D01*
X86842456Y-117657451D01*
X86842451Y-117657456D01*
X86756207Y-117772663D01*
X86756202Y-117772673D01*
X86705909Y-117907515D01*
X86705908Y-117907520D01*
X86699500Y-117967125D01*
X86699500Y-118220449D01*
X86679236Y-118341887D01*
X86620639Y-118450165D01*
X86547473Y-118517517D01*
X86549036Y-118519554D01*
X86529586Y-118534478D01*
X86529584Y-118534479D01*
X86529584Y-118534480D01*
X85939065Y-119125000D01*
X85457407Y-119606658D01*
X85357209Y-119678198D01*
X85239210Y-119713328D01*
X85192949Y-119716200D01*
X64646043Y-119716200D01*
X64524605Y-119695936D01*
X64416327Y-119637339D01*
X64332943Y-119546759D01*
X64283487Y-119434012D01*
X64273320Y-119311315D01*
X64276647Y-119283695D01*
X64278552Y-119271670D01*
X64300500Y-119133092D01*
X64300500Y-118896908D01*
X64263553Y-118663632D01*
X64190568Y-118439008D01*
X64083343Y-118228567D01*
X63944517Y-118037490D01*
X63777510Y-117870483D01*
X63626282Y-117760609D01*
X63623023Y-117758241D01*
X63623021Y-117758239D01*
X63586433Y-117731657D01*
X63513149Y-117694317D01*
X63504146Y-117689079D01*
X63483983Y-117672361D01*
X63422001Y-117627331D01*
X62800000Y-117005330D01*
X62177997Y-117627332D01*
X62154632Y-117644304D01*
X62146492Y-117653715D01*
X62095849Y-117689081D01*
X62086837Y-117694323D01*
X62013567Y-117731657D01*
X61976983Y-117758236D01*
X61976969Y-117758245D01*
X61822495Y-117870478D01*
X61655479Y-118037494D01*
X61522555Y-118220449D01*
X61516657Y-118228567D01*
X61497301Y-118266555D01*
X61409433Y-118439005D01*
X61409432Y-118439007D01*
X61409432Y-118439008D01*
X61336447Y-118663632D01*
X61299500Y-118896908D01*
X61299500Y-119133092D01*
X61321448Y-119271670D01*
X61323353Y-119283695D01*
X61322334Y-119406807D01*
X61281397Y-119522919D01*
X61204976Y-119619446D01*
X61101353Y-119685930D01*
X60981758Y-119715165D01*
X60953957Y-119716200D01*
X59720351Y-119716200D01*
X59598913Y-119695936D01*
X59490635Y-119637339D01*
X59455893Y-119606658D01*
X58697335Y-118848100D01*
X58625795Y-118747902D01*
X58590665Y-118629903D01*
X58592397Y-118525141D01*
X58604500Y-118448731D01*
X58604500Y-118251269D01*
X58573610Y-118056237D01*
X58541227Y-117956571D01*
X58512593Y-117868444D01*
X58512592Y-117868442D01*
X58512591Y-117868439D01*
X58422944Y-117692499D01*
X58422941Y-117692494D01*
X58306886Y-117532756D01*
X58306876Y-117532745D01*
X58167253Y-117393122D01*
X58167252Y-117393121D01*
X58152734Y-117382573D01*
X58066403Y-117294805D01*
X58013244Y-117183756D01*
X57999024Y-117061463D01*
X58025282Y-116941179D01*
X58089174Y-116835939D01*
X58152733Y-116777427D01*
X58167252Y-116766879D01*
X58306879Y-116627252D01*
X58330145Y-116595230D01*
X58422941Y-116467505D01*
X58422944Y-116467501D01*
X58469248Y-116376626D01*
X61550000Y-116376626D01*
X61550000Y-116573373D01*
X61580779Y-116767709D01*
X61641581Y-116954837D01*
X61691621Y-117053046D01*
X62269670Y-116475000D01*
X62202527Y-116407857D01*
X62290000Y-116407857D01*
X62290000Y-116542143D01*
X62324755Y-116671853D01*
X62391898Y-116788147D01*
X62486853Y-116883102D01*
X62603147Y-116950245D01*
X62732857Y-116985000D01*
X62867143Y-116985000D01*
X62996853Y-116950245D01*
X63113147Y-116883102D01*
X63208102Y-116788147D01*
X63275245Y-116671853D01*
X63310000Y-116542143D01*
X63310000Y-116474999D01*
X63330330Y-116474999D01*
X63330330Y-116475000D01*
X63908376Y-117053046D01*
X63908377Y-117053046D01*
X63958419Y-116954833D01*
X63958420Y-116954831D01*
X64019220Y-116767709D01*
X64050000Y-116573373D01*
X64050000Y-116376626D01*
X64019220Y-116182290D01*
X63958420Y-115995169D01*
X63908376Y-115896951D01*
X63330330Y-116474999D01*
X63310000Y-116474999D01*
X63310000Y-116407857D01*
X63275245Y-116278147D01*
X63208102Y-116161853D01*
X63113147Y-116066898D01*
X62996853Y-115999755D01*
X62867143Y-115965000D01*
X62732857Y-115965000D01*
X62603147Y-115999755D01*
X62486853Y-116066898D01*
X62391898Y-116161853D01*
X62324755Y-116278147D01*
X62290000Y-116407857D01*
X62202527Y-116407857D01*
X61691622Y-115896952D01*
X61641580Y-115995167D01*
X61580779Y-116182290D01*
X61550000Y-116376626D01*
X58469248Y-116376626D01*
X58512591Y-116291561D01*
X58573610Y-116103763D01*
X58604500Y-115908731D01*
X58604500Y-115711269D01*
X58573610Y-115516237D01*
X58517560Y-115343731D01*
X58512593Y-115328444D01*
X58512592Y-115328442D01*
X58512591Y-115328439D01*
X58422944Y-115152499D01*
X58422941Y-115152494D01*
X58306886Y-114992756D01*
X58306876Y-114992745D01*
X58167253Y-114853122D01*
X58167252Y-114853121D01*
X58152734Y-114842573D01*
X58066403Y-114754805D01*
X58013244Y-114643756D01*
X57999024Y-114521463D01*
X58025282Y-114401179D01*
X58089174Y-114295939D01*
X58152733Y-114237427D01*
X58167252Y-114226879D01*
X58306879Y-114087252D01*
X58326050Y-114060866D01*
X58422941Y-113927505D01*
X58422944Y-113927501D01*
X58512591Y-113751561D01*
X58573610Y-113563763D01*
X58604500Y-113368731D01*
X58604500Y-113171269D01*
X58573610Y-112976237D01*
X58534689Y-112856449D01*
X58512593Y-112788444D01*
X58512592Y-112788442D01*
X58512591Y-112788439D01*
X58422944Y-112612499D01*
X58422941Y-112612494D01*
X58306886Y-112452756D01*
X58306876Y-112452745D01*
X58167253Y-112313122D01*
X58167252Y-112313121D01*
X58152734Y-112302573D01*
X58066403Y-112214805D01*
X58013244Y-112103756D01*
X57999024Y-111981463D01*
X58025282Y-111861179D01*
X58089174Y-111755939D01*
X58152733Y-111697427D01*
X58167252Y-111686879D01*
X58306879Y-111547252D01*
X58313420Y-111538250D01*
X58422941Y-111387505D01*
X58422944Y-111387501D01*
X58512591Y-111211561D01*
X58573610Y-111023763D01*
X58604500Y-110828731D01*
X58604500Y-110631269D01*
X58573610Y-110436237D01*
X58534689Y-110316449D01*
X58512593Y-110248444D01*
X58512592Y-110248442D01*
X58512591Y-110248439D01*
X58422944Y-110072499D01*
X58422941Y-110072494D01*
X58306886Y-109912756D01*
X58306876Y-109912745D01*
X58167254Y-109773123D01*
X58167243Y-109773113D01*
X58007505Y-109657058D01*
X57982299Y-109644215D01*
X57921855Y-109613416D01*
X57822856Y-109540230D01*
X57752982Y-109438862D01*
X57719809Y-109320299D01*
X57724837Y-109207219D01*
X57743427Y-109113757D01*
X57350000Y-108720330D01*
X56956570Y-109113758D01*
X56975161Y-109207220D01*
X56978977Y-109330278D01*
X56942629Y-109447907D01*
X56870057Y-109547360D01*
X56778144Y-109613416D01*
X56692500Y-109657054D01*
X56692494Y-109657058D01*
X56532756Y-109773113D01*
X56532745Y-109773123D01*
X56393123Y-109912745D01*
X56393113Y-109912756D01*
X56277058Y-110072494D01*
X56277058Y-110072495D01*
X56187410Y-110248437D01*
X56187406Y-110248444D01*
X56126392Y-110436229D01*
X56126390Y-110436234D01*
X56126390Y-110436237D01*
X56095500Y-110631269D01*
X56095500Y-110828731D01*
X56126032Y-111021503D01*
X56126390Y-111023761D01*
X56126392Y-111023770D01*
X56187406Y-111211555D01*
X56187408Y-111211559D01*
X56187409Y-111211561D01*
X56273540Y-111380600D01*
X56277058Y-111387504D01*
X56277058Y-111387505D01*
X56393113Y-111547243D01*
X56393120Y-111547251D01*
X56393121Y-111547252D01*
X56532748Y-111686879D01*
X56532751Y-111686881D01*
X56547266Y-111697427D01*
X56633600Y-111785200D01*
X56686757Y-111896251D01*
X56700975Y-112018544D01*
X56674714Y-112138827D01*
X56610821Y-112244066D01*
X56547266Y-112302573D01*
X56532751Y-112313118D01*
X56532745Y-112313123D01*
X56393123Y-112452745D01*
X56393113Y-112452756D01*
X56277058Y-112612494D01*
X56277058Y-112612495D01*
X56187410Y-112788437D01*
X56187406Y-112788444D01*
X56126392Y-112976229D01*
X56126390Y-112976234D01*
X56126390Y-112976237D01*
X56095500Y-113171269D01*
X56095500Y-113368731D01*
X56126390Y-113563761D01*
X56126392Y-113563770D01*
X56187406Y-113751555D01*
X56187408Y-113751559D01*
X56187409Y-113751561D01*
X56273128Y-113919792D01*
X56277058Y-113927504D01*
X56277058Y-113927505D01*
X56393113Y-114087243D01*
X56393118Y-114087248D01*
X56393121Y-114087252D01*
X56532748Y-114226879D01*
X56532751Y-114226881D01*
X56547266Y-114237427D01*
X56633600Y-114325200D01*
X56686757Y-114436251D01*
X56700975Y-114558544D01*
X56674714Y-114678827D01*
X56610821Y-114784066D01*
X56547266Y-114842573D01*
X56532751Y-114853118D01*
X56532745Y-114853123D01*
X56393123Y-114992745D01*
X56393113Y-114992756D01*
X56277058Y-115152494D01*
X56277058Y-115152495D01*
X56187410Y-115328437D01*
X56187406Y-115328444D01*
X56126392Y-115516229D01*
X56126390Y-115516234D01*
X56126390Y-115516237D01*
X56095500Y-115711269D01*
X56095500Y-115908731D01*
X56123930Y-116088229D01*
X56126390Y-116103761D01*
X56126392Y-116103770D01*
X56187406Y-116291555D01*
X56187408Y-116291559D01*
X56187409Y-116291561D01*
X56248395Y-116411251D01*
X56277058Y-116467504D01*
X56277058Y-116467505D01*
X56393113Y-116627243D01*
X56393120Y-116627251D01*
X56393121Y-116627252D01*
X56532748Y-116766879D01*
X56540986Y-116772864D01*
X56547266Y-116777427D01*
X56633600Y-116865200D01*
X56686757Y-116976251D01*
X56700975Y-117098544D01*
X56674714Y-117218827D01*
X56610821Y-117324066D01*
X56547266Y-117382573D01*
X56532751Y-117393118D01*
X56532745Y-117393123D01*
X56393123Y-117532745D01*
X56393113Y-117532756D01*
X56277058Y-117692494D01*
X56277058Y-117692495D01*
X56187410Y-117868437D01*
X56187406Y-117868444D01*
X56126392Y-118056229D01*
X56126390Y-118056234D01*
X56126390Y-118056237D01*
X56095500Y-118251269D01*
X56095500Y-118448731D01*
X56122718Y-118620576D01*
X56126390Y-118643761D01*
X56126392Y-118643770D01*
X56187406Y-118831555D01*
X56187408Y-118831559D01*
X56187409Y-118831561D01*
X56273234Y-119000000D01*
X56277058Y-119007504D01*
X56277058Y-119007505D01*
X56401758Y-119179141D01*
X56400533Y-119180030D01*
X56455656Y-119271670D01*
X56481422Y-119392060D01*
X56466701Y-119514294D01*
X56413088Y-119625125D01*
X56331942Y-119708468D01*
X56238455Y-119778452D01*
X56238451Y-119778456D01*
X56152207Y-119893663D01*
X56152202Y-119893673D01*
X56101909Y-120028515D01*
X56101908Y-120028520D01*
X56095500Y-120088125D01*
X56095500Y-120088127D01*
X56095500Y-120791272D01*
X56095501Y-121125500D01*
X56075237Y-121246937D01*
X56016640Y-121355215D01*
X55926060Y-121438600D01*
X55813313Y-121488056D01*
X55721501Y-121499500D01*
X46829336Y-121499500D01*
X46707898Y-121479236D01*
X46599620Y-121420639D01*
X46564878Y-121389958D01*
X45978818Y-120803898D01*
X45907278Y-120703700D01*
X45877797Y-120610348D01*
X45877041Y-120610530D01*
X45874459Y-120599779D01*
X45873880Y-120597944D01*
X45873610Y-120596237D01*
X45812591Y-120408439D01*
X45722944Y-120232499D01*
X45722941Y-120232494D01*
X45606886Y-120072756D01*
X45606876Y-120072745D01*
X45467254Y-119933123D01*
X45467243Y-119933113D01*
X45307505Y-119817058D01*
X45287779Y-119807007D01*
X45221855Y-119773416D01*
X45122856Y-119700230D01*
X45052982Y-119598862D01*
X45019809Y-119480299D01*
X45024837Y-119367219D01*
X45043427Y-119273757D01*
X44650000Y-118880330D01*
X44256570Y-119273758D01*
X44275161Y-119367220D01*
X44278977Y-119490278D01*
X44242629Y-119607907D01*
X44170057Y-119707360D01*
X44078144Y-119773416D01*
X43992500Y-119817054D01*
X43992494Y-119817058D01*
X43832756Y-119933113D01*
X43832745Y-119933123D01*
X43693123Y-120072745D01*
X43693113Y-120072756D01*
X43577058Y-120232494D01*
X43577058Y-120232495D01*
X43487410Y-120408437D01*
X43487406Y-120408444D01*
X43426392Y-120596229D01*
X43426392Y-120596230D01*
X43426390Y-120596237D01*
X43395500Y-120791269D01*
X43395500Y-120988731D01*
X43426339Y-121183441D01*
X43426390Y-121183761D01*
X43426392Y-121183770D01*
X43487406Y-121371555D01*
X43487408Y-121371559D01*
X43487409Y-121371561D01*
X43533235Y-121461498D01*
X43577058Y-121547504D01*
X43577058Y-121547505D01*
X43693113Y-121707243D01*
X43693123Y-121707254D01*
X43832745Y-121846876D01*
X43832756Y-121846886D01*
X43992494Y-121962941D01*
X43992496Y-121962942D01*
X43992499Y-121962944D01*
X44168439Y-122052591D01*
X44356237Y-122113610D01*
X44357944Y-122113880D01*
X44359422Y-122114374D01*
X44370530Y-122117041D01*
X44370297Y-122118007D01*
X44474713Y-122152889D01*
X44563898Y-122218818D01*
X45482858Y-123137778D01*
X45482861Y-123137782D01*
X45622218Y-123277139D01*
X45786086Y-123386632D01*
X45914834Y-123439961D01*
X45968164Y-123462051D01*
X45968168Y-123462051D01*
X45968169Y-123462052D01*
X46064785Y-123481270D01*
X46064791Y-123481270D01*
X46064812Y-123481275D01*
X46161459Y-123500500D01*
X46161460Y-123500500D01*
X46161462Y-123500500D01*
X108098542Y-123500500D01*
X108098542Y-123500499D01*
X108195188Y-123481275D01*
X108291836Y-123462051D01*
X108345165Y-123439961D01*
X108473914Y-123386632D01*
X108637782Y-123277139D01*
X108777139Y-123137782D01*
X108777139Y-123137780D01*
X108798450Y-123116470D01*
X108798456Y-123116463D01*
X113222923Y-118691995D01*
X116000000Y-118691995D01*
X116000000Y-119125000D01*
X116667894Y-119125000D01*
X116599901Y-119192993D01*
X116534075Y-119307007D01*
X116500000Y-119434174D01*
X116500000Y-119565826D01*
X116534075Y-119692993D01*
X116599901Y-119807007D01*
X116667894Y-119875000D01*
X116000000Y-119875000D01*
X116000000Y-120308004D01*
X116010609Y-120427331D01*
X116066558Y-120622864D01*
X116160720Y-120803127D01*
X116160723Y-120803132D01*
X116289245Y-120960751D01*
X116289248Y-120960754D01*
X116446867Y-121089276D01*
X116446872Y-121089279D01*
X116627135Y-121183441D01*
X116822668Y-121239390D01*
X116941995Y-121249999D01*
X116942005Y-121250000D01*
X117625000Y-121250000D01*
X117625000Y-120000000D01*
X118375000Y-120000000D01*
X118375000Y-121250000D01*
X119057995Y-121250000D01*
X119058004Y-121249999D01*
X119177331Y-121239390D01*
X119372864Y-121183441D01*
X119553127Y-121089279D01*
X119553132Y-121089276D01*
X119710751Y-120960754D01*
X119710754Y-120960751D01*
X119839276Y-120803132D01*
X119839279Y-120803127D01*
X119933441Y-120622864D01*
X119989390Y-120427331D01*
X119999999Y-120308004D01*
X120000000Y-120307995D01*
X120000000Y-119875000D01*
X119332106Y-119875000D01*
X119400099Y-119807007D01*
X119465925Y-119692993D01*
X119500000Y-119565826D01*
X119500000Y-119434174D01*
X119465925Y-119307007D01*
X119400099Y-119192993D01*
X119332106Y-119125000D01*
X120000000Y-119125000D01*
X120000000Y-118692004D01*
X119999999Y-118691995D01*
X119989390Y-118572668D01*
X119933441Y-118377135D01*
X119839279Y-118196872D01*
X119839276Y-118196867D01*
X119710754Y-118039248D01*
X119710751Y-118039245D01*
X119553132Y-117910723D01*
X119553127Y-117910720D01*
X119372864Y-117816558D01*
X119177331Y-117760609D01*
X119058004Y-117750000D01*
X118375000Y-117750000D01*
X118375000Y-119000000D01*
X117625000Y-119000000D01*
X117625000Y-117750000D01*
X116941995Y-117750000D01*
X116822668Y-117760609D01*
X116627135Y-117816558D01*
X116446872Y-117910720D01*
X116446867Y-117910723D01*
X116289248Y-118039245D01*
X116289245Y-118039248D01*
X116160723Y-118196867D01*
X116160720Y-118196872D01*
X116066558Y-118377135D01*
X116010609Y-118572668D01*
X116000000Y-118691995D01*
X113222923Y-118691995D01*
X116054880Y-115860038D01*
X116155075Y-115788501D01*
X116273074Y-115753371D01*
X116319319Y-115750499D01*
X119797872Y-115750499D01*
X119857483Y-115744091D01*
X119944805Y-115711522D01*
X120065662Y-115688071D01*
X120187591Y-115705134D01*
X120297373Y-115760863D01*
X120383111Y-115849218D01*
X120435515Y-115960626D01*
X120449500Y-116061942D01*
X120449500Y-117468614D01*
X120449501Y-117468656D01*
X120452293Y-117521228D01*
X120452294Y-117521237D01*
X120452295Y-117521241D01*
X120485416Y-117692499D01*
X120496756Y-117751130D01*
X120496756Y-117751131D01*
X120579423Y-117970184D01*
X120579424Y-117970185D01*
X120579426Y-117970190D01*
X120689054Y-118157007D01*
X120697930Y-118172132D01*
X120848855Y-118351139D01*
X120848860Y-118351144D01*
X120957215Y-118442501D01*
X121027868Y-118502070D01*
X121229810Y-118620574D01*
X121229814Y-118620575D01*
X121229815Y-118620576D01*
X121291257Y-118643763D01*
X121448874Y-118703245D01*
X121678759Y-118747705D01*
X121678764Y-118747705D01*
X121678771Y-118747706D01*
X121716632Y-118749716D01*
X121731378Y-118750500D01*
X121731385Y-118750500D01*
X123668615Y-118750500D01*
X123668622Y-118750500D01*
X123688913Y-118749422D01*
X123721228Y-118747706D01*
X123721233Y-118747705D01*
X123721241Y-118747705D01*
X123951126Y-118703245D01*
X124170190Y-118620574D01*
X124372132Y-118502070D01*
X124551142Y-118351142D01*
X124702070Y-118172132D01*
X124820574Y-117970190D01*
X124903245Y-117751126D01*
X124947705Y-117521241D01*
X124950500Y-117468622D01*
X124950500Y-115531378D01*
X124949695Y-115516229D01*
X124947706Y-115478771D01*
X124947705Y-115478762D01*
X124947705Y-115478759D01*
X124903245Y-115248874D01*
X124894817Y-115226542D01*
X124820576Y-115029815D01*
X124820575Y-115029814D01*
X124820574Y-115029810D01*
X124702070Y-114827868D01*
X124579192Y-114682127D01*
X124551144Y-114648860D01*
X124551139Y-114648855D01*
X124372132Y-114497930D01*
X124354646Y-114487669D01*
X124170190Y-114379426D01*
X124170185Y-114379424D01*
X124170184Y-114379423D01*
X123951130Y-114296756D01*
X123951127Y-114296755D01*
X123951126Y-114296755D01*
X123836183Y-114274525D01*
X123721237Y-114252294D01*
X123721228Y-114252293D01*
X123668656Y-114249501D01*
X123668627Y-114249500D01*
X123668622Y-114249500D01*
X121731378Y-114249500D01*
X121731372Y-114249500D01*
X121731343Y-114249501D01*
X121678771Y-114252293D01*
X121678762Y-114252294D01*
X121448869Y-114296756D01*
X121448868Y-114296756D01*
X121229815Y-114379423D01*
X121229814Y-114379424D01*
X121229811Y-114379425D01*
X121229810Y-114379426D01*
X121192741Y-114401179D01*
X121027867Y-114497930D01*
X120865575Y-114634762D01*
X120759671Y-114697547D01*
X120639118Y-114722542D01*
X120516981Y-114707040D01*
X120406495Y-114652720D01*
X120319634Y-114565469D01*
X120265809Y-114454741D01*
X120250499Y-114348833D01*
X120250499Y-111702128D01*
X120244091Y-111642517D01*
X120193796Y-111507669D01*
X120192204Y-111505542D01*
X120107548Y-111392456D01*
X120107543Y-111392451D01*
X119992336Y-111306207D01*
X119992333Y-111306205D01*
X119992331Y-111306204D01*
X119965453Y-111296179D01*
X119857484Y-111255909D01*
X119857479Y-111255908D01*
X119797874Y-111249500D01*
X116202131Y-111249500D01*
X116142517Y-111255909D01*
X116007671Y-111306203D01*
X116007663Y-111306207D01*
X115892456Y-111392451D01*
X115892451Y-111392456D01*
X115806207Y-111507663D01*
X115806202Y-111507673D01*
X115755909Y-111642515D01*
X115755908Y-111642520D01*
X115749500Y-111702125D01*
X115749500Y-113180663D01*
X115729236Y-113302101D01*
X115670639Y-113410379D01*
X115639958Y-113445121D01*
X107695122Y-121389958D01*
X107594924Y-121461498D01*
X107476925Y-121496628D01*
X107430664Y-121499500D01*
X106549086Y-121499500D01*
X106427648Y-121479236D01*
X106319370Y-121420639D01*
X106284628Y-121389958D01*
X105750000Y-120855330D01*
X105215371Y-121389958D01*
X105115172Y-121461498D01*
X104997173Y-121496628D01*
X104950913Y-121499500D01*
X94469833Y-121499500D01*
X94348395Y-121479236D01*
X94240117Y-121420639D01*
X94156733Y-121330059D01*
X94107277Y-121217312D01*
X94097110Y-121094615D01*
X94127334Y-120975266D01*
X94136597Y-120955707D01*
X94191813Y-120847339D01*
X94212591Y-120806561D01*
X94273610Y-120618763D01*
X94304500Y-120423731D01*
X94304500Y-120226269D01*
X94287606Y-120119606D01*
X94276266Y-120048005D01*
X94277285Y-119924893D01*
X94318222Y-119808781D01*
X94394643Y-119712254D01*
X94498266Y-119645770D01*
X94617861Y-119616535D01*
X94645662Y-119615500D01*
X104411739Y-119615500D01*
X104533177Y-119635764D01*
X104641455Y-119694361D01*
X104724839Y-119784941D01*
X104774295Y-119897688D01*
X104784462Y-120020385D01*
X104778553Y-120062464D01*
X104746000Y-120226118D01*
X104746000Y-120423883D01*
X104784583Y-120617854D01*
X104826241Y-120718427D01*
X105250000Y-120294669D01*
X105250000Y-120390826D01*
X105284075Y-120517993D01*
X105349901Y-120632007D01*
X105442993Y-120725099D01*
X105557007Y-120790925D01*
X105684174Y-120825000D01*
X105815826Y-120825000D01*
X105942993Y-120790925D01*
X106057007Y-120725099D01*
X106150099Y-120632007D01*
X106215925Y-120517993D01*
X106250000Y-120390826D01*
X106250000Y-120325000D01*
X106280330Y-120325000D01*
X106673758Y-120718428D01*
X106715416Y-120617858D01*
X106753999Y-120423883D01*
X106754000Y-120423883D01*
X106754000Y-120226117D01*
X106753999Y-120226116D01*
X106715416Y-120032145D01*
X106673757Y-119931571D01*
X106280330Y-120325000D01*
X106250000Y-120325000D01*
X106250000Y-120259174D01*
X106215925Y-120132007D01*
X106150099Y-120017993D01*
X106057007Y-119924901D01*
X105942993Y-119859075D01*
X105815826Y-119825000D01*
X105719670Y-119825000D01*
X106143427Y-119401241D01*
X106124837Y-119307782D01*
X106121021Y-119184724D01*
X106157368Y-119067095D01*
X106229939Y-118967641D01*
X106321856Y-118901582D01*
X106407501Y-118857944D01*
X106465336Y-118815925D01*
X106567243Y-118741886D01*
X106567245Y-118741883D01*
X106567252Y-118741879D01*
X106706879Y-118602252D01*
X106756120Y-118534478D01*
X106818421Y-118448727D01*
X106822944Y-118442501D01*
X106912591Y-118266561D01*
X106973610Y-118078763D01*
X107004500Y-117883731D01*
X107004500Y-117686269D01*
X106973610Y-117491237D01*
X106922125Y-117332782D01*
X106912593Y-117303444D01*
X106912592Y-117303442D01*
X106912591Y-117303439D01*
X106822944Y-117127499D01*
X106822941Y-117127494D01*
X106706886Y-116967756D01*
X106706876Y-116967745D01*
X106567253Y-116828122D01*
X106567252Y-116828121D01*
X106552734Y-116817573D01*
X106466403Y-116729805D01*
X106413244Y-116618756D01*
X106399024Y-116496463D01*
X106425282Y-116376179D01*
X106489174Y-116270939D01*
X106552733Y-116212427D01*
X106567252Y-116201879D01*
X106706879Y-116062252D01*
X106707105Y-116061942D01*
X106822941Y-115902505D01*
X106822944Y-115902501D01*
X106912591Y-115726561D01*
X106973610Y-115538763D01*
X107004500Y-115343731D01*
X107004500Y-115146269D01*
X106973610Y-114951237D01*
X106939943Y-114847621D01*
X106912593Y-114763444D01*
X106912592Y-114763442D01*
X106912591Y-114763439D01*
X106822944Y-114587499D01*
X106822941Y-114587494D01*
X106706886Y-114427756D01*
X106706876Y-114427745D01*
X106567253Y-114288122D01*
X106567252Y-114288121D01*
X106552734Y-114277573D01*
X106466403Y-114189805D01*
X106413244Y-114078756D01*
X106399024Y-113956463D01*
X106425282Y-113836179D01*
X106489174Y-113730939D01*
X106552733Y-113672427D01*
X106567252Y-113661879D01*
X106706879Y-113522252D01*
X106719020Y-113505542D01*
X106822941Y-113362505D01*
X106822944Y-113362501D01*
X106912591Y-113186561D01*
X106973610Y-112998763D01*
X107004500Y-112803731D01*
X107004500Y-112606269D01*
X106973610Y-112411237D01*
X106917780Y-112239408D01*
X106912593Y-112223444D01*
X106912592Y-112223442D01*
X106912591Y-112223439D01*
X106822944Y-112047499D01*
X106822941Y-112047494D01*
X106706886Y-111887756D01*
X106706876Y-111887745D01*
X106567253Y-111748122D01*
X106567252Y-111748121D01*
X106552734Y-111737573D01*
X106466403Y-111649805D01*
X106413244Y-111538756D01*
X106399024Y-111416463D01*
X106425282Y-111296179D01*
X106489174Y-111190939D01*
X106552733Y-111132427D01*
X106567252Y-111121879D01*
X106706879Y-110982252D01*
X106719020Y-110965542D01*
X106822941Y-110822505D01*
X106822944Y-110822501D01*
X106912591Y-110646561D01*
X106973610Y-110458763D01*
X107004500Y-110263731D01*
X107004500Y-110066269D01*
X106973610Y-109871237D01*
X106917780Y-109699408D01*
X106912593Y-109683444D01*
X106912592Y-109683442D01*
X106912591Y-109683439D01*
X106822944Y-109507499D01*
X106822941Y-109507494D01*
X106706886Y-109347756D01*
X106706876Y-109347745D01*
X106567253Y-109208122D01*
X106567252Y-109208121D01*
X106552734Y-109197573D01*
X106466403Y-109109805D01*
X106413244Y-108998756D01*
X106399024Y-108876463D01*
X106425282Y-108756179D01*
X106489174Y-108650939D01*
X106552733Y-108592427D01*
X106567252Y-108581879D01*
X106706879Y-108442252D01*
X106753936Y-108377484D01*
X106822941Y-108282505D01*
X106822944Y-108282501D01*
X106912591Y-108106561D01*
X106973610Y-107918763D01*
X107004500Y-107723731D01*
X107004500Y-107526269D01*
X106973610Y-107331237D01*
X106922125Y-107172782D01*
X106912593Y-107143444D01*
X106912592Y-107143442D01*
X106912591Y-107143439D01*
X106822944Y-106967499D01*
X106822941Y-106967494D01*
X106706886Y-106807756D01*
X106706876Y-106807745D01*
X106694388Y-106795257D01*
X106567252Y-106668121D01*
X106407501Y-106552056D01*
X106348758Y-106522125D01*
X108149500Y-106522125D01*
X108149500Y-108317868D01*
X108149501Y-108317873D01*
X108155909Y-108377483D01*
X108206204Y-108512331D01*
X108206205Y-108512333D01*
X108206207Y-108512336D01*
X108292451Y-108627543D01*
X108292454Y-108627546D01*
X108325251Y-108652098D01*
X108410322Y-108741096D01*
X108461886Y-108852895D01*
X108474356Y-108975378D01*
X108446379Y-109095274D01*
X108403693Y-109171329D01*
X108344947Y-109252185D01*
X108344947Y-109252186D01*
X108248443Y-109441587D01*
X108182754Y-109643753D01*
X108182754Y-109643757D01*
X108149500Y-109853713D01*
X108149500Y-110066287D01*
X108172582Y-110212017D01*
X108182754Y-110276242D01*
X108182754Y-110276246D01*
X108248443Y-110478412D01*
X108337800Y-110653787D01*
X108344949Y-110667816D01*
X108400816Y-110744711D01*
X108469893Y-110839788D01*
X108469898Y-110839794D01*
X108595646Y-110965542D01*
X108667186Y-111065740D01*
X108702316Y-111183739D01*
X108697228Y-111306751D01*
X108652474Y-111421445D01*
X108595646Y-111494458D01*
X108469898Y-111620205D01*
X108469893Y-111620211D01*
X108344949Y-111792184D01*
X108344947Y-111792186D01*
X108248443Y-111981587D01*
X108182754Y-112183753D01*
X108182754Y-112183757D01*
X108149500Y-112393713D01*
X108149500Y-112606287D01*
X108178350Y-112788437D01*
X108182754Y-112816242D01*
X108182754Y-112816246D01*
X108248443Y-113018412D01*
X108334119Y-113186562D01*
X108344949Y-113207816D01*
X108386859Y-113265500D01*
X108469893Y-113379788D01*
X108469898Y-113379794D01*
X108595646Y-113505542D01*
X108667186Y-113605740D01*
X108702316Y-113723739D01*
X108697228Y-113846751D01*
X108652474Y-113961445D01*
X108595646Y-114034458D01*
X108469898Y-114160205D01*
X108469893Y-114160211D01*
X108344949Y-114332184D01*
X108344947Y-114332186D01*
X108248443Y-114521587D01*
X108182754Y-114723753D01*
X108182754Y-114723757D01*
X108149500Y-114933713D01*
X108149500Y-115146287D01*
X108182754Y-115356242D01*
X108182754Y-115356246D01*
X108248443Y-115558412D01*
X108343050Y-115744090D01*
X108344949Y-115747816D01*
X108469896Y-115919792D01*
X108620208Y-116070104D01*
X108792184Y-116195051D01*
X108981588Y-116291557D01*
X109183757Y-116357246D01*
X109393713Y-116390500D01*
X109393717Y-116390500D01*
X109606283Y-116390500D01*
X109606287Y-116390500D01*
X109816243Y-116357246D01*
X110018412Y-116291557D01*
X110207816Y-116195051D01*
X110379792Y-116070104D01*
X110530104Y-115919792D01*
X110655051Y-115747816D01*
X110751557Y-115558412D01*
X110817246Y-115356243D01*
X110850500Y-115146287D01*
X110850500Y-114933713D01*
X110817246Y-114723757D01*
X110816851Y-114722542D01*
X110784349Y-114622511D01*
X110751557Y-114521588D01*
X110655051Y-114332184D01*
X110530104Y-114160208D01*
X110404354Y-114034458D01*
X110332814Y-113934260D01*
X110297684Y-113816261D01*
X110302772Y-113693249D01*
X110347526Y-113578555D01*
X110404354Y-113505542D01*
X110464775Y-113445121D01*
X110530104Y-113379792D01*
X110655051Y-113207816D01*
X110751557Y-113018412D01*
X110817246Y-112816243D01*
X110850500Y-112606287D01*
X110850500Y-112393713D01*
X110817246Y-112183757D01*
X110809734Y-112160639D01*
X110777016Y-112059942D01*
X110751557Y-111981588D01*
X110655051Y-111792184D01*
X110530104Y-111620208D01*
X110404354Y-111494458D01*
X110332814Y-111394260D01*
X110297684Y-111276261D01*
X110302772Y-111153249D01*
X110347526Y-111038555D01*
X110404354Y-110965542D01*
X110530104Y-110839792D01*
X110655051Y-110667816D01*
X110751557Y-110478412D01*
X110817246Y-110276243D01*
X110850500Y-110066287D01*
X110850500Y-109853713D01*
X110817246Y-109643757D01*
X110809734Y-109620639D01*
X110791252Y-109563756D01*
X110751557Y-109441588D01*
X110655051Y-109252184D01*
X110596307Y-109171329D01*
X110541323Y-109061174D01*
X110525084Y-108939133D01*
X110549353Y-108818432D01*
X110611498Y-108712151D01*
X110674744Y-108652101D01*
X110707546Y-108627546D01*
X110793796Y-108512331D01*
X110844091Y-108377483D01*
X110850500Y-108317873D01*
X110850499Y-106522128D01*
X110844091Y-106462517D01*
X110793796Y-106327669D01*
X110780990Y-106310562D01*
X110707548Y-106212456D01*
X110707543Y-106212451D01*
X110592336Y-106126207D01*
X110592333Y-106126205D01*
X110592331Y-106126204D01*
X110592326Y-106126202D01*
X110457484Y-106075909D01*
X110457479Y-106075908D01*
X110397874Y-106069500D01*
X108602131Y-106069500D01*
X108542517Y-106075909D01*
X108407671Y-106126203D01*
X108407663Y-106126207D01*
X108292456Y-106212451D01*
X108292451Y-106212456D01*
X108206207Y-106327663D01*
X108206202Y-106327673D01*
X108155909Y-106462515D01*
X108155908Y-106462520D01*
X108149500Y-106522125D01*
X106348758Y-106522125D01*
X106292954Y-106493691D01*
X106267017Y-106474206D01*
X106246626Y-106452802D01*
X106222856Y-106435230D01*
X106204458Y-106408540D01*
X106182095Y-106385066D01*
X106169758Y-106358200D01*
X106152982Y-106333862D01*
X106144246Y-106302640D01*
X106130719Y-106273181D01*
X106127774Y-106243768D01*
X106119809Y-106215299D01*
X106121382Y-106179916D01*
X106118455Y-106150677D01*
X106123668Y-106128502D01*
X106124837Y-106102219D01*
X106143427Y-106008757D01*
X105750000Y-105615330D01*
X105356570Y-106008758D01*
X105375161Y-106102220D01*
X105378977Y-106225278D01*
X105342629Y-106342907D01*
X105270057Y-106442360D01*
X105178144Y-106508416D01*
X105092500Y-106552054D01*
X105092494Y-106552058D01*
X104932756Y-106668113D01*
X104932745Y-106668123D01*
X104793123Y-106807745D01*
X104793113Y-106807756D01*
X104677058Y-106967494D01*
X104677058Y-106967495D01*
X104587410Y-107143437D01*
X104587406Y-107143444D01*
X104526392Y-107331229D01*
X104526390Y-107331234D01*
X104526390Y-107331237D01*
X104495500Y-107526269D01*
X104495500Y-107723731D01*
X104522966Y-107897145D01*
X104526390Y-107918761D01*
X104526392Y-107918770D01*
X104587406Y-108106555D01*
X104587408Y-108106559D01*
X104587409Y-108106561D01*
X104677056Y-108282501D01*
X104677058Y-108282504D01*
X104677058Y-108282505D01*
X104793113Y-108442243D01*
X104793120Y-108442251D01*
X104793121Y-108442252D01*
X104932748Y-108581879D01*
X104932751Y-108581881D01*
X104947266Y-108592427D01*
X105033600Y-108680200D01*
X105086757Y-108791251D01*
X105100975Y-108913544D01*
X105074714Y-109033827D01*
X105010821Y-109139066D01*
X104947266Y-109197573D01*
X104932751Y-109208118D01*
X104932745Y-109208123D01*
X104793123Y-109347745D01*
X104793113Y-109347756D01*
X104677058Y-109507494D01*
X104677058Y-109507495D01*
X104587410Y-109683437D01*
X104587406Y-109683444D01*
X104526392Y-109871229D01*
X104526390Y-109871234D01*
X104526390Y-109871237D01*
X104495500Y-110066269D01*
X104495500Y-110263731D01*
X104525715Y-110454500D01*
X104526390Y-110458761D01*
X104526392Y-110458770D01*
X104587406Y-110646555D01*
X104587408Y-110646559D01*
X104587409Y-110646561D01*
X104677056Y-110822501D01*
X104677058Y-110822504D01*
X104677058Y-110822505D01*
X104793113Y-110982243D01*
X104793120Y-110982251D01*
X104793121Y-110982252D01*
X104932748Y-111121879D01*
X104932751Y-111121881D01*
X104947266Y-111132427D01*
X105033600Y-111220200D01*
X105086757Y-111331251D01*
X105100975Y-111453544D01*
X105074714Y-111573827D01*
X105010821Y-111679066D01*
X104947266Y-111737573D01*
X104932751Y-111748118D01*
X104932745Y-111748123D01*
X104793123Y-111887745D01*
X104793113Y-111887756D01*
X104677058Y-112047494D01*
X104677058Y-112047495D01*
X104587410Y-112223437D01*
X104587406Y-112223444D01*
X104526392Y-112411229D01*
X104526390Y-112411234D01*
X104526390Y-112411237D01*
X104495500Y-112606269D01*
X104495500Y-112803731D01*
X104526390Y-112998761D01*
X104526392Y-112998770D01*
X104587406Y-113186555D01*
X104587408Y-113186559D01*
X104587409Y-113186561D01*
X104677056Y-113362501D01*
X104677058Y-113362504D01*
X104677058Y-113362505D01*
X104793113Y-113522243D01*
X104793120Y-113522251D01*
X104793121Y-113522252D01*
X104932748Y-113661879D01*
X104932751Y-113661881D01*
X104947266Y-113672427D01*
X105033600Y-113760200D01*
X105086757Y-113871251D01*
X105100975Y-113993544D01*
X105074714Y-114113827D01*
X105010821Y-114219066D01*
X104947266Y-114277573D01*
X104932751Y-114288118D01*
X104932745Y-114288123D01*
X104793123Y-114427745D01*
X104793113Y-114427756D01*
X104677058Y-114587494D01*
X104677058Y-114587495D01*
X104587410Y-114763437D01*
X104587406Y-114763444D01*
X104526392Y-114951229D01*
X104526390Y-114951234D01*
X104526390Y-114951237D01*
X104495500Y-115146269D01*
X104495500Y-115343731D01*
X104526246Y-115537854D01*
X104526390Y-115538761D01*
X104526392Y-115538770D01*
X104587406Y-115726555D01*
X104587408Y-115726559D01*
X104587409Y-115726561D01*
X104674229Y-115896952D01*
X104677058Y-115902504D01*
X104677058Y-115902505D01*
X104793113Y-116062243D01*
X104793120Y-116062251D01*
X104793121Y-116062252D01*
X104932748Y-116201879D01*
X104932751Y-116201881D01*
X104947266Y-116212427D01*
X105033600Y-116300200D01*
X105086757Y-116411251D01*
X105100975Y-116533544D01*
X105074714Y-116653827D01*
X105010821Y-116759066D01*
X104947266Y-116817573D01*
X104932751Y-116828118D01*
X104932745Y-116828123D01*
X104793123Y-116967745D01*
X104793113Y-116967756D01*
X104677058Y-117127494D01*
X104677058Y-117127495D01*
X104587410Y-117303437D01*
X104587406Y-117303444D01*
X104526392Y-117491229D01*
X104526390Y-117491234D01*
X104526390Y-117491237D01*
X104500065Y-117657451D01*
X104495500Y-117686272D01*
X104495500Y-117883732D01*
X104507601Y-117960139D01*
X104507420Y-117981890D01*
X104511885Y-118003178D01*
X104506914Y-118043059D01*
X104506582Y-118083252D01*
X104499348Y-118103766D01*
X104496659Y-118125350D01*
X104479007Y-118161458D01*
X104465643Y-118199363D01*
X104450887Y-118218981D01*
X104442589Y-118235958D01*
X104402669Y-118283094D01*
X104380812Y-118304952D01*
X104280615Y-118376494D01*
X104162618Y-118411627D01*
X104116348Y-118414500D01*
X94658332Y-118414500D01*
X94536894Y-118394236D01*
X94428616Y-118335639D01*
X94345232Y-118245059D01*
X94295776Y-118132312D01*
X94285609Y-118009615D01*
X94288937Y-117981993D01*
X94300732Y-117907520D01*
X94304500Y-117883731D01*
X94304500Y-117686269D01*
X94273610Y-117491237D01*
X94222125Y-117332782D01*
X94212593Y-117303444D01*
X94212592Y-117303442D01*
X94212591Y-117303439D01*
X94122944Y-117127499D01*
X94122941Y-117127494D01*
X94006886Y-116967756D01*
X94006876Y-116967745D01*
X93867254Y-116828123D01*
X93867243Y-116828113D01*
X93707505Y-116712058D01*
X93698619Y-116707530D01*
X93621855Y-116668416D01*
X93522856Y-116595230D01*
X93452982Y-116493862D01*
X93419809Y-116375299D01*
X93424837Y-116262219D01*
X93443427Y-116168757D01*
X93050000Y-115775330D01*
X92656570Y-116168758D01*
X92675161Y-116262220D01*
X92678977Y-116385278D01*
X92642629Y-116502907D01*
X92570057Y-116602360D01*
X92478144Y-116668416D01*
X92392500Y-116712054D01*
X92392494Y-116712058D01*
X92232756Y-116828113D01*
X92232745Y-116828123D01*
X92093123Y-116967745D01*
X92093113Y-116967756D01*
X91977058Y-117127494D01*
X91977058Y-117127495D01*
X91887410Y-117303437D01*
X91887406Y-117303444D01*
X91826392Y-117491229D01*
X91826390Y-117491234D01*
X91826390Y-117491237D01*
X91800065Y-117657451D01*
X91795500Y-117686272D01*
X91795500Y-117883735D01*
X91811063Y-117981993D01*
X91810046Y-118105106D01*
X91769108Y-118221217D01*
X91692688Y-118317745D01*
X91589066Y-118384229D01*
X91469470Y-118413465D01*
X91441668Y-118414500D01*
X90074499Y-118414500D01*
X89953061Y-118394236D01*
X89844783Y-118335639D01*
X89761399Y-118245059D01*
X89711943Y-118132312D01*
X89700499Y-118040500D01*
X89700499Y-117967131D01*
X89700499Y-117967127D01*
X89694091Y-117907517D01*
X89643796Y-117772669D01*
X89634768Y-117760609D01*
X89557548Y-117657456D01*
X89557543Y-117657451D01*
X89420917Y-117555173D01*
X89422139Y-117553539D01*
X89353125Y-117499406D01*
X89286173Y-117396085D01*
X89256398Y-117276623D01*
X89267025Y-117153965D01*
X89295997Y-117077345D01*
X89358418Y-116954834D01*
X89419220Y-116767709D01*
X89450000Y-116573373D01*
X89450000Y-116376626D01*
X89419220Y-116182290D01*
X89358420Y-115995169D01*
X89308376Y-115896951D01*
X89169000Y-115874876D01*
X89150094Y-115868559D01*
X89130254Y-115866615D01*
X89092052Y-115849168D01*
X89052228Y-115835864D01*
X89036398Y-115823752D01*
X89018263Y-115815470D01*
X88987796Y-115786564D01*
X88954450Y-115761050D01*
X88943408Y-115744451D01*
X88928948Y-115730732D01*
X88909520Y-115693506D01*
X88886261Y-115658541D01*
X88881207Y-115639257D01*
X88871985Y-115621586D01*
X88865697Y-115580068D01*
X88855052Y-115539446D01*
X88856534Y-115519566D01*
X88853549Y-115499857D01*
X88861083Y-115458542D01*
X88864205Y-115416670D01*
X88872060Y-115398352D01*
X88875637Y-115378738D01*
X88896180Y-115342103D01*
X88912727Y-115303518D01*
X88927597Y-115286080D01*
X88935856Y-115271353D01*
X88958815Y-115249472D01*
X88978370Y-115226542D01*
X88992419Y-115213993D01*
X89085841Y-115146118D01*
X92046000Y-115146118D01*
X92046000Y-115343883D01*
X92084583Y-115537854D01*
X92126241Y-115638427D01*
X92519669Y-115244999D01*
X92453844Y-115179174D01*
X92550000Y-115179174D01*
X92550000Y-115310826D01*
X92584075Y-115437993D01*
X92649901Y-115552007D01*
X92742993Y-115645099D01*
X92857007Y-115710925D01*
X92984174Y-115745000D01*
X93115826Y-115745000D01*
X93242993Y-115710925D01*
X93357007Y-115645099D01*
X93450099Y-115552007D01*
X93515925Y-115437993D01*
X93550000Y-115310826D01*
X93550000Y-115245000D01*
X93580330Y-115245000D01*
X93973758Y-115638428D01*
X94015416Y-115537858D01*
X94053999Y-115343883D01*
X94054000Y-115343883D01*
X94054000Y-115146117D01*
X94053999Y-115146116D01*
X94015416Y-114952145D01*
X93973757Y-114851571D01*
X93580330Y-115245000D01*
X93550000Y-115245000D01*
X93550000Y-115179174D01*
X93515925Y-115052007D01*
X93450099Y-114937993D01*
X93357007Y-114844901D01*
X93242993Y-114779075D01*
X93115826Y-114745000D01*
X92984174Y-114745000D01*
X92857007Y-114779075D01*
X92742993Y-114844901D01*
X92649901Y-114937993D01*
X92584075Y-115052007D01*
X92550000Y-115179174D01*
X92453844Y-115179174D01*
X92126241Y-114851571D01*
X92084584Y-114952141D01*
X92046000Y-115146118D01*
X89085841Y-115146118D01*
X89177510Y-115079517D01*
X89344517Y-114912510D01*
X89483343Y-114721433D01*
X89590568Y-114510992D01*
X89663553Y-114286368D01*
X89700500Y-114053092D01*
X89700500Y-113816908D01*
X89663553Y-113583632D01*
X89590568Y-113359008D01*
X89483343Y-113148567D01*
X89344517Y-112957490D01*
X89316481Y-112929454D01*
X89244944Y-112829260D01*
X89209814Y-112711261D01*
X89214902Y-112588249D01*
X89259656Y-112473555D01*
X89316480Y-112400546D01*
X89344517Y-112372510D01*
X89483343Y-112181433D01*
X89590568Y-111970992D01*
X89663553Y-111746368D01*
X89700500Y-111513092D01*
X89700500Y-111276908D01*
X89663553Y-111043632D01*
X89590568Y-110819008D01*
X89483343Y-110608567D01*
X89344517Y-110417490D01*
X89316481Y-110389454D01*
X89244944Y-110289260D01*
X89209814Y-110171261D01*
X89214902Y-110048249D01*
X89259656Y-109933555D01*
X89316480Y-109860546D01*
X89344517Y-109832510D01*
X89483343Y-109641433D01*
X89590568Y-109430992D01*
X89663553Y-109206368D01*
X89700500Y-108973092D01*
X89700500Y-108736908D01*
X89663553Y-108503632D01*
X89590568Y-108279008D01*
X89483343Y-108068567D01*
X89344517Y-107877490D01*
X89316481Y-107849454D01*
X89244944Y-107749260D01*
X89209814Y-107631261D01*
X89214902Y-107508249D01*
X89259656Y-107393555D01*
X89316480Y-107320546D01*
X89344517Y-107292510D01*
X89483343Y-107101433D01*
X89590568Y-106890992D01*
X89663553Y-106666368D01*
X89700500Y-106433092D01*
X89700500Y-106196908D01*
X89663553Y-105963632D01*
X89590568Y-105739008D01*
X89483343Y-105528567D01*
X89344517Y-105337490D01*
X89316481Y-105309454D01*
X89244944Y-105209260D01*
X89209814Y-105091261D01*
X89214902Y-104968249D01*
X89259656Y-104853555D01*
X89316480Y-104780546D01*
X89344517Y-104752510D01*
X89483343Y-104561433D01*
X89590568Y-104350992D01*
X89663553Y-104126368D01*
X89700500Y-103893092D01*
X89700500Y-103656908D01*
X89663553Y-103423632D01*
X89590568Y-103199008D01*
X89483343Y-102988567D01*
X89344517Y-102797490D01*
X89316481Y-102769454D01*
X89286096Y-102726897D01*
X89253621Y-102685933D01*
X89250459Y-102676985D01*
X89244944Y-102669260D01*
X89230023Y-102619143D01*
X89212607Y-102569848D01*
X89212522Y-102560357D01*
X89209814Y-102551261D01*
X89211974Y-102499021D01*
X89211508Y-102446736D01*
X89214509Y-102437731D01*
X89214902Y-102428249D01*
X89233905Y-102379547D01*
X89250443Y-102329938D01*
X89256420Y-102321846D01*
X89259656Y-102313555D01*
X89283765Y-102277928D01*
X89298878Y-102258148D01*
X89344517Y-102212510D01*
X89483343Y-102021433D01*
X89490529Y-102007328D01*
X89509556Y-101982428D01*
X89540642Y-101953294D01*
X89568579Y-101921128D01*
X89585293Y-101911447D01*
X89599388Y-101898238D01*
X89638251Y-101880775D01*
X89675117Y-101859424D01*
X89694069Y-101855695D01*
X89711689Y-101847778D01*
X89754111Y-101843881D01*
X89795917Y-101835656D01*
X89806733Y-101835500D01*
X90203001Y-101835500D01*
X90203017Y-101835501D01*
X90225943Y-101835501D01*
X90384056Y-101835501D01*
X90384057Y-101835501D01*
X90536785Y-101794577D01*
X90586904Y-101765639D01*
X90625901Y-101743125D01*
X91795500Y-101743125D01*
X91795500Y-103346868D01*
X91800892Y-103397023D01*
X91801909Y-103406483D01*
X91852204Y-103541331D01*
X91852205Y-103541333D01*
X91852207Y-103541336D01*
X91938451Y-103656543D01*
X91938452Y-103656544D01*
X91938453Y-103656544D01*
X91938454Y-103656546D01*
X92031942Y-103726531D01*
X92117011Y-103815527D01*
X92168576Y-103927325D01*
X92181046Y-104049809D01*
X92153070Y-104169705D01*
X92100656Y-104255058D01*
X92101758Y-104255859D01*
X91977058Y-104427494D01*
X91977058Y-104427495D01*
X91887410Y-104603437D01*
X91887406Y-104603444D01*
X91826392Y-104791229D01*
X91826390Y-104791234D01*
X91826390Y-104791237D01*
X91795500Y-104986269D01*
X91795500Y-105183731D01*
X91826246Y-105377854D01*
X91826390Y-105378761D01*
X91826392Y-105378770D01*
X91887406Y-105566555D01*
X91887408Y-105566559D01*
X91887409Y-105566561D01*
X91977056Y-105742501D01*
X91977058Y-105742504D01*
X91977058Y-105742505D01*
X92093113Y-105902243D01*
X92093120Y-105902251D01*
X92093121Y-105902252D01*
X92232748Y-106041879D01*
X92232751Y-106041881D01*
X92247266Y-106052427D01*
X92333600Y-106140200D01*
X92386757Y-106251251D01*
X92400975Y-106373544D01*
X92374714Y-106493827D01*
X92310821Y-106599066D01*
X92247266Y-106657573D01*
X92232751Y-106668118D01*
X92232745Y-106668123D01*
X92093123Y-106807745D01*
X92093113Y-106807756D01*
X91977058Y-106967494D01*
X91977058Y-106967495D01*
X91887410Y-107143437D01*
X91887406Y-107143444D01*
X91826392Y-107331229D01*
X91826390Y-107331234D01*
X91826390Y-107331237D01*
X91795500Y-107526269D01*
X91795500Y-107723731D01*
X91822966Y-107897145D01*
X91826390Y-107918761D01*
X91826392Y-107918770D01*
X91887406Y-108106555D01*
X91887408Y-108106559D01*
X91887409Y-108106561D01*
X91977056Y-108282501D01*
X91977058Y-108282504D01*
X91977058Y-108282505D01*
X92093113Y-108442243D01*
X92093120Y-108442251D01*
X92093121Y-108442252D01*
X92232748Y-108581879D01*
X92232751Y-108581881D01*
X92247266Y-108592427D01*
X92333600Y-108680200D01*
X92386757Y-108791251D01*
X92400975Y-108913544D01*
X92374714Y-109033827D01*
X92310821Y-109139066D01*
X92247266Y-109197573D01*
X92232751Y-109208118D01*
X92232745Y-109208123D01*
X92093123Y-109347745D01*
X92093113Y-109347756D01*
X91977058Y-109507494D01*
X91977058Y-109507495D01*
X91887410Y-109683437D01*
X91887406Y-109683444D01*
X91826392Y-109871229D01*
X91826390Y-109871234D01*
X91826390Y-109871237D01*
X91795500Y-110066269D01*
X91795500Y-110263731D01*
X91825715Y-110454500D01*
X91826390Y-110458761D01*
X91826392Y-110458770D01*
X91887406Y-110646555D01*
X91887408Y-110646559D01*
X91887409Y-110646561D01*
X91977056Y-110822501D01*
X91977058Y-110822504D01*
X91977058Y-110822505D01*
X92093113Y-110982243D01*
X92093120Y-110982251D01*
X92093121Y-110982252D01*
X92232748Y-111121879D01*
X92232751Y-111121881D01*
X92247266Y-111132427D01*
X92333600Y-111220200D01*
X92386757Y-111331251D01*
X92400975Y-111453544D01*
X92374714Y-111573827D01*
X92310821Y-111679066D01*
X92247266Y-111737573D01*
X92232751Y-111748118D01*
X92232745Y-111748123D01*
X92093123Y-111887745D01*
X92093113Y-111887756D01*
X91977058Y-112047494D01*
X91977058Y-112047495D01*
X91887410Y-112223437D01*
X91887406Y-112223444D01*
X91826392Y-112411229D01*
X91826390Y-112411234D01*
X91826390Y-112411237D01*
X91795500Y-112606269D01*
X91795500Y-112803731D01*
X91826390Y-112998761D01*
X91826392Y-112998770D01*
X91887406Y-113186555D01*
X91887408Y-113186559D01*
X91887409Y-113186561D01*
X91977056Y-113362501D01*
X91977058Y-113362504D01*
X91977058Y-113362505D01*
X92093113Y-113522243D01*
X92093123Y-113522254D01*
X92232745Y-113661876D01*
X92232756Y-113661886D01*
X92392494Y-113777941D01*
X92392496Y-113777942D01*
X92392499Y-113777944D01*
X92478142Y-113821581D01*
X92577142Y-113894769D01*
X92647016Y-113996137D01*
X92680189Y-114114700D01*
X92675161Y-114227780D01*
X92656570Y-114321240D01*
X93049999Y-114714669D01*
X93443427Y-114321241D01*
X93424837Y-114227782D01*
X93421021Y-114104724D01*
X93457368Y-113987095D01*
X93529939Y-113887641D01*
X93621856Y-113821582D01*
X93707501Y-113777944D01*
X93748973Y-113747813D01*
X93867243Y-113661886D01*
X93867249Y-113661881D01*
X93867252Y-113661879D01*
X94006879Y-113522252D01*
X94019020Y-113505542D01*
X94122941Y-113362505D01*
X94122944Y-113362501D01*
X94212591Y-113186561D01*
X94273610Y-112998763D01*
X94304500Y-112803731D01*
X94304500Y-112606269D01*
X94273610Y-112411237D01*
X94217780Y-112239408D01*
X94212593Y-112223444D01*
X94212592Y-112223442D01*
X94212591Y-112223439D01*
X94122944Y-112047499D01*
X94122941Y-112047494D01*
X94006886Y-111887756D01*
X94006876Y-111887745D01*
X93867253Y-111748122D01*
X93867252Y-111748121D01*
X93852734Y-111737573D01*
X93766403Y-111649805D01*
X93713244Y-111538756D01*
X93699024Y-111416463D01*
X93725282Y-111296179D01*
X93789174Y-111190939D01*
X93852733Y-111132427D01*
X93867252Y-111121879D01*
X94006879Y-110982252D01*
X94019020Y-110965542D01*
X94122941Y-110822505D01*
X94122944Y-110822501D01*
X94212591Y-110646561D01*
X94273610Y-110458763D01*
X94304500Y-110263731D01*
X94304500Y-110066269D01*
X94273610Y-109871237D01*
X94217780Y-109699408D01*
X94212593Y-109683444D01*
X94212592Y-109683442D01*
X94212591Y-109683439D01*
X94122944Y-109507499D01*
X94122941Y-109507494D01*
X94006886Y-109347756D01*
X94006876Y-109347745D01*
X93867253Y-109208122D01*
X93867252Y-109208121D01*
X93852734Y-109197573D01*
X93766403Y-109109805D01*
X93713244Y-108998756D01*
X93699024Y-108876463D01*
X93725282Y-108756179D01*
X93789174Y-108650939D01*
X93852733Y-108592427D01*
X93867252Y-108581879D01*
X94006879Y-108442252D01*
X94053936Y-108377484D01*
X94122941Y-108282505D01*
X94122944Y-108282501D01*
X94212591Y-108106561D01*
X94273610Y-107918763D01*
X94304500Y-107723731D01*
X94304500Y-107526269D01*
X94273610Y-107331237D01*
X94222125Y-107172782D01*
X94212593Y-107143444D01*
X94212592Y-107143442D01*
X94212591Y-107143439D01*
X94122944Y-106967499D01*
X94122941Y-106967494D01*
X94006886Y-106807756D01*
X94006876Y-106807745D01*
X93867253Y-106668122D01*
X93867252Y-106668121D01*
X93852734Y-106657573D01*
X93766403Y-106569805D01*
X93713244Y-106458756D01*
X93699024Y-106336463D01*
X93725282Y-106216179D01*
X93789174Y-106110939D01*
X93852733Y-106052427D01*
X93867252Y-106041879D01*
X94006879Y-105902252D01*
X94027317Y-105874122D01*
X94122941Y-105742505D01*
X94122944Y-105742501D01*
X94212591Y-105566561D01*
X94244429Y-105468572D01*
X94301225Y-105359344D01*
X94390414Y-105274473D01*
X94491565Y-105226249D01*
X94501481Y-105223240D01*
X94501497Y-105223237D01*
X94647179Y-105162894D01*
X94778289Y-105075289D01*
X94867460Y-104986118D01*
X104746000Y-104986118D01*
X104746000Y-105183883D01*
X104784583Y-105377854D01*
X104826241Y-105478427D01*
X105219669Y-105084999D01*
X104826241Y-104691571D01*
X104784584Y-104792141D01*
X104746000Y-104986118D01*
X94867460Y-104986118D01*
X94889789Y-104963789D01*
X94977394Y-104832679D01*
X95037737Y-104686997D01*
X95068500Y-104532342D01*
X95068500Y-104374658D01*
X95037737Y-104220003D01*
X94977394Y-104074321D01*
X94889789Y-103943211D01*
X94778289Y-103831711D01*
X94647179Y-103744106D01*
X94644016Y-103742796D01*
X94604744Y-103726529D01*
X94535374Y-103697795D01*
X94430938Y-103632603D01*
X94353326Y-103537030D01*
X94310951Y-103421436D01*
X94304499Y-103352265D01*
X94304499Y-103346882D01*
X94304500Y-103346873D01*
X94304499Y-102446269D01*
X104495500Y-102446269D01*
X104495500Y-102643731D01*
X104522966Y-102817145D01*
X104526390Y-102838761D01*
X104526392Y-102838770D01*
X104587406Y-103026555D01*
X104587408Y-103026559D01*
X104587409Y-103026561D01*
X104677056Y-103202501D01*
X104677058Y-103202504D01*
X104677058Y-103202505D01*
X104793113Y-103362243D01*
X104793123Y-103362254D01*
X104932745Y-103501876D01*
X104932756Y-103501886D01*
X105092494Y-103617941D01*
X105092496Y-103617942D01*
X105092499Y-103617944D01*
X105178142Y-103661581D01*
X105277142Y-103734769D01*
X105347016Y-103836137D01*
X105380189Y-103954700D01*
X105375161Y-104067780D01*
X105356570Y-104161240D01*
X105780330Y-104585000D01*
X105684174Y-104585000D01*
X105557007Y-104619075D01*
X105442993Y-104684901D01*
X105349901Y-104777993D01*
X105284075Y-104892007D01*
X105250000Y-105019174D01*
X105250000Y-105150826D01*
X105284075Y-105277993D01*
X105349901Y-105392007D01*
X105442993Y-105485099D01*
X105557007Y-105550925D01*
X105684174Y-105585000D01*
X105815826Y-105585000D01*
X105942993Y-105550925D01*
X106057007Y-105485099D01*
X106150099Y-105392007D01*
X106215925Y-105277993D01*
X106250000Y-105150826D01*
X106250000Y-105054670D01*
X106673758Y-105478428D01*
X106715416Y-105377858D01*
X106753999Y-105183883D01*
X106754000Y-105183883D01*
X106754000Y-104986117D01*
X106753999Y-104986111D01*
X106746312Y-104947465D01*
X106742495Y-104824408D01*
X106778841Y-104706778D01*
X106851413Y-104607324D01*
X106952345Y-104536823D01*
X107070700Y-104502914D01*
X107113125Y-104500500D01*
X119121042Y-104500500D01*
X119121042Y-104500499D01*
X119217688Y-104481275D01*
X119314336Y-104462051D01*
X119367665Y-104439961D01*
X119496414Y-104386632D01*
X119660282Y-104277139D01*
X119799639Y-104137782D01*
X119799639Y-104137780D01*
X119820950Y-104116470D01*
X119820955Y-104116463D01*
X120594878Y-103342542D01*
X120695077Y-103271002D01*
X120813075Y-103235872D01*
X120859336Y-103233000D01*
X121090011Y-103233000D01*
X121120844Y-103229849D01*
X121192797Y-103222499D01*
X121359334Y-103167314D01*
X121508655Y-103075211D01*
X121632711Y-102951155D01*
X121724814Y-102801834D01*
X121779999Y-102635297D01*
X121790500Y-102532508D01*
X121790500Y-101432492D01*
X121779999Y-101329703D01*
X121724814Y-101163166D01*
X121632711Y-101013845D01*
X121508655Y-100889789D01*
X121508654Y-100889788D01*
X121401374Y-100823617D01*
X121359334Y-100797686D01*
X121192797Y-100742501D01*
X121192794Y-100742500D01*
X121192790Y-100742500D01*
X121090011Y-100732000D01*
X121090008Y-100732000D01*
X119989992Y-100732000D01*
X119989989Y-100732000D01*
X119887209Y-100742500D01*
X119887203Y-100742501D01*
X119720666Y-100797686D01*
X119571345Y-100889788D01*
X119447288Y-101013845D01*
X119355185Y-101163167D01*
X119298889Y-101333056D01*
X119241455Y-101441955D01*
X119151773Y-101526305D01*
X119039562Y-101576966D01*
X118925147Y-101587681D01*
X118529622Y-101983206D01*
X118516945Y-101992256D01*
X118506880Y-102004141D01*
X118500000Y-102008240D01*
X118500000Y-101916674D01*
X118465925Y-101789507D01*
X118400099Y-101675493D01*
X118307007Y-101582401D01*
X118192993Y-101516575D01*
X118065826Y-101482500D01*
X117934174Y-101482500D01*
X117807007Y-101516575D01*
X117692993Y-101582401D01*
X117599901Y-101675493D01*
X117534075Y-101789507D01*
X117500000Y-101916674D01*
X117500000Y-102006263D01*
X117470377Y-101983207D01*
X117079300Y-101592130D01*
X116980404Y-101611803D01*
X116857346Y-101615620D01*
X116739717Y-101579273D01*
X116640263Y-101506702D01*
X116574201Y-101414780D01*
X116566647Y-101399955D01*
X116539769Y-101347202D01*
X116529525Y-101327096D01*
X116529524Y-101327095D01*
X116413828Y-101167854D01*
X116307776Y-101061802D01*
X117609632Y-101061802D01*
X117999999Y-101452169D01*
X118390366Y-101061801D01*
X118291687Y-101020928D01*
X118098491Y-100982500D01*
X117901508Y-100982500D01*
X117708316Y-101020927D01*
X117609632Y-101061802D01*
X116307776Y-101061802D01*
X116274646Y-101028672D01*
X116115405Y-100912976D01*
X116115406Y-100912976D01*
X116115404Y-100912975D01*
X116115397Y-100912971D01*
X115940028Y-100823617D01*
X115752828Y-100762791D01*
X115752823Y-100762790D01*
X115664737Y-100748839D01*
X115558417Y-100732000D01*
X115361583Y-100732000D01*
X115268050Y-100746813D01*
X115167176Y-100762790D01*
X115167171Y-100762791D01*
X114979971Y-100823617D01*
X114804602Y-100912971D01*
X114804595Y-100912975D01*
X114645359Y-101028668D01*
X114645350Y-101028675D01*
X114506175Y-101167850D01*
X114506168Y-101167859D01*
X114390475Y-101327095D01*
X114390471Y-101327102D01*
X114301117Y-101502471D01*
X114240291Y-101689671D01*
X114240290Y-101689676D01*
X114231824Y-101743131D01*
X114215868Y-101843881D01*
X114209500Y-101884086D01*
X114209500Y-102080914D01*
X114210653Y-102095563D01*
X114207035Y-102095847D01*
X114206320Y-102189866D01*
X114165458Y-102306004D01*
X114089100Y-102402582D01*
X113985521Y-102469133D01*
X113865945Y-102498447D01*
X113837900Y-102499500D01*
X107326002Y-102499500D01*
X107204564Y-102479236D01*
X107096286Y-102420639D01*
X107012902Y-102330059D01*
X106970307Y-102241071D01*
X106912594Y-102063448D01*
X106912593Y-102063447D01*
X106912591Y-102063439D01*
X106822944Y-101887499D01*
X106822941Y-101887494D01*
X106706886Y-101727756D01*
X106706876Y-101727745D01*
X106567254Y-101588123D01*
X106567243Y-101588113D01*
X106407505Y-101472058D01*
X106329845Y-101432488D01*
X106231561Y-101382409D01*
X106231559Y-101382408D01*
X106231555Y-101382406D01*
X106043770Y-101321392D01*
X106043767Y-101321391D01*
X106043763Y-101321390D01*
X105848731Y-101290500D01*
X105651269Y-101290500D01*
X105456237Y-101321390D01*
X105456234Y-101321390D01*
X105456229Y-101321392D01*
X105268444Y-101382406D01*
X105268437Y-101382410D01*
X105092495Y-101472058D01*
X105092494Y-101472058D01*
X104932756Y-101588113D01*
X104932745Y-101588123D01*
X104793123Y-101727745D01*
X104793113Y-101727756D01*
X104677058Y-101887494D01*
X104677058Y-101887495D01*
X104587410Y-102063437D01*
X104587406Y-102063444D01*
X104526392Y-102251229D01*
X104526390Y-102251234D01*
X104526390Y-102251237D01*
X104495500Y-102446269D01*
X94304499Y-102446269D01*
X94304499Y-101743128D01*
X94298091Y-101683517D01*
X94247796Y-101548669D01*
X94247792Y-101548663D01*
X94161548Y-101433456D01*
X94161543Y-101433451D01*
X94046336Y-101347207D01*
X94046333Y-101347205D01*
X94046331Y-101347204D01*
X94046326Y-101347202D01*
X93911484Y-101296909D01*
X93911479Y-101296908D01*
X93851874Y-101290500D01*
X92248131Y-101290500D01*
X92188517Y-101296909D01*
X92051107Y-101348159D01*
X91930244Y-101371609D01*
X91868668Y-101362990D01*
X91876419Y-101399955D01*
X91861190Y-101522127D01*
X91853159Y-101546106D01*
X91801909Y-101683515D01*
X91801908Y-101683520D01*
X91795500Y-101743125D01*
X90625901Y-101743125D01*
X90673716Y-101715520D01*
X90785520Y-101603716D01*
X90785521Y-101603713D01*
X91238284Y-101150949D01*
X91338478Y-101079413D01*
X91456477Y-101044283D01*
X91554847Y-101048351D01*
X91547005Y-100976663D01*
X91574080Y-100856561D01*
X91638686Y-100751757D01*
X91655932Y-100733301D01*
X92651901Y-99737333D01*
X92752097Y-99665796D01*
X92870095Y-99630666D01*
X92974859Y-99632397D01*
X93051269Y-99644500D01*
X93051272Y-99644500D01*
X93248727Y-99644500D01*
X93248731Y-99644500D01*
X93443763Y-99613610D01*
X93631561Y-99552591D01*
X93807501Y-99462944D01*
X93807505Y-99462941D01*
X93967243Y-99346886D01*
X93967245Y-99346883D01*
X93967252Y-99346879D01*
X94000374Y-99313757D01*
X105456571Y-99313757D01*
X105557145Y-99355416D01*
X105751116Y-99393999D01*
X105751117Y-99394000D01*
X105948883Y-99394000D01*
X105948883Y-99393999D01*
X106142858Y-99355416D01*
X106243428Y-99313758D01*
X105850000Y-98920330D01*
X105456571Y-99313757D01*
X94000374Y-99313757D01*
X94106879Y-99207252D01*
X94134135Y-99169738D01*
X94222941Y-99047505D01*
X94222942Y-99047504D01*
X94236519Y-99020859D01*
X94236520Y-99020856D01*
X94255094Y-98984404D01*
X94312591Y-98871561D01*
X94373610Y-98683763D01*
X94404500Y-98488731D01*
X94404500Y-98291269D01*
X94404476Y-98291118D01*
X104846000Y-98291118D01*
X104846000Y-98488883D01*
X104884583Y-98682854D01*
X104926241Y-98783427D01*
X105319669Y-98389999D01*
X105253844Y-98324174D01*
X105350000Y-98324174D01*
X105350000Y-98455826D01*
X105384075Y-98582993D01*
X105449901Y-98697007D01*
X105542993Y-98790099D01*
X105657007Y-98855925D01*
X105784174Y-98890000D01*
X105915826Y-98890000D01*
X106042993Y-98855925D01*
X106157007Y-98790099D01*
X106250099Y-98697007D01*
X106315925Y-98582993D01*
X106350000Y-98455826D01*
X106350000Y-98390000D01*
X106380330Y-98390000D01*
X106773758Y-98783428D01*
X106815416Y-98682858D01*
X106853999Y-98488883D01*
X106854000Y-98488883D01*
X106854000Y-98291117D01*
X106853999Y-98291116D01*
X106815416Y-98097145D01*
X106773757Y-97996571D01*
X106380330Y-98390000D01*
X106350000Y-98390000D01*
X106350000Y-98324174D01*
X106315925Y-98197007D01*
X106250099Y-98082993D01*
X106157007Y-97989901D01*
X106042993Y-97924075D01*
X105915826Y-97890000D01*
X105784174Y-97890000D01*
X105657007Y-97924075D01*
X105542993Y-97989901D01*
X105449901Y-98082993D01*
X105384075Y-98197007D01*
X105350000Y-98324174D01*
X105253844Y-98324174D01*
X104926241Y-97996571D01*
X104884584Y-98097141D01*
X104846000Y-98291118D01*
X94404476Y-98291118D01*
X94373610Y-98096237D01*
X94339182Y-97990278D01*
X94312593Y-97908444D01*
X94312592Y-97908442D01*
X94312591Y-97908439D01*
X94222944Y-97732499D01*
X94222941Y-97732494D01*
X94106886Y-97572756D01*
X94106876Y-97572745D01*
X93967253Y-97433122D01*
X93967252Y-97433121D01*
X93952734Y-97422573D01*
X93866403Y-97334805D01*
X93813244Y-97223756D01*
X93799024Y-97101463D01*
X93825282Y-96981179D01*
X93889174Y-96875939D01*
X93952733Y-96817427D01*
X93967252Y-96806879D01*
X94106879Y-96667252D01*
X94114323Y-96657007D01*
X94222941Y-96507505D01*
X94222944Y-96507501D01*
X94312591Y-96331561D01*
X94373610Y-96143763D01*
X94404500Y-95948731D01*
X94404500Y-95751269D01*
X94373610Y-95556237D01*
X94336226Y-95441179D01*
X94312593Y-95368444D01*
X94312592Y-95368442D01*
X94312591Y-95368439D01*
X94222944Y-95192499D01*
X94222941Y-95192494D01*
X94106886Y-95032756D01*
X94106876Y-95032745D01*
X93967254Y-94893123D01*
X93967243Y-94893113D01*
X93807505Y-94777058D01*
X93735472Y-94740355D01*
X93721855Y-94733416D01*
X93622856Y-94660230D01*
X93552982Y-94558862D01*
X93519809Y-94440299D01*
X93524837Y-94327219D01*
X93543427Y-94233757D01*
X93150000Y-93840330D01*
X92756570Y-94233758D01*
X92775161Y-94327220D01*
X92778977Y-94450278D01*
X92742629Y-94567907D01*
X92670057Y-94667360D01*
X92649547Y-94686012D01*
X92616575Y-94713834D01*
X92492499Y-94777056D01*
X92332748Y-94893121D01*
X92193121Y-95032748D01*
X92120970Y-95132055D01*
X92086279Y-95161330D01*
X92071844Y-95169895D01*
X92059879Y-95181665D01*
X92019190Y-95201141D01*
X91980401Y-95224160D01*
X91963970Y-95227574D01*
X91948829Y-95234822D01*
X91886984Y-95243571D01*
X91859859Y-95249208D01*
X91853145Y-95248358D01*
X91845079Y-95249500D01*
X91147000Y-95249500D01*
X91146984Y-95249499D01*
X91124058Y-95249499D01*
X90965943Y-95249499D01*
X90813216Y-95290423D01*
X90813212Y-95290425D01*
X90676285Y-95369478D01*
X90676284Y-95369479D01*
X90236996Y-95808766D01*
X90136798Y-95880306D01*
X90018799Y-95915435D01*
X89895788Y-95910347D01*
X89781093Y-95865593D01*
X89687145Y-95786022D01*
X89624124Y-95680258D01*
X89616854Y-95659908D01*
X89590568Y-95579008D01*
X89483343Y-95368567D01*
X89344517Y-95177490D01*
X89316481Y-95149454D01*
X89244944Y-95049260D01*
X89209814Y-94931261D01*
X89214902Y-94808249D01*
X89259656Y-94693555D01*
X89316480Y-94620546D01*
X89344517Y-94592510D01*
X89483343Y-94401433D01*
X89590568Y-94190992D01*
X89663553Y-93966368D01*
X89700500Y-93733092D01*
X89700500Y-93496908D01*
X89663553Y-93263632D01*
X89646490Y-93211118D01*
X92146000Y-93211118D01*
X92146000Y-93408883D01*
X92184583Y-93602854D01*
X92226241Y-93703427D01*
X92619669Y-93309999D01*
X92553844Y-93244174D01*
X92650000Y-93244174D01*
X92650000Y-93375826D01*
X92684075Y-93502993D01*
X92749901Y-93617007D01*
X92842993Y-93710099D01*
X92957007Y-93775925D01*
X93084174Y-93810000D01*
X93215826Y-93810000D01*
X93342993Y-93775925D01*
X93457007Y-93710099D01*
X93550099Y-93617007D01*
X93615925Y-93502993D01*
X93650000Y-93375826D01*
X93650000Y-93310000D01*
X93680330Y-93310000D01*
X94073758Y-93703428D01*
X94115416Y-93602858D01*
X94153999Y-93408883D01*
X94154000Y-93408883D01*
X94154000Y-93211117D01*
X94153999Y-93211116D01*
X94115416Y-93017145D01*
X94073757Y-92916571D01*
X93680330Y-93310000D01*
X93650000Y-93310000D01*
X93650000Y-93244174D01*
X93615925Y-93117007D01*
X93550099Y-93002993D01*
X93457007Y-92909901D01*
X93342993Y-92844075D01*
X93215826Y-92810000D01*
X93084174Y-92810000D01*
X92957007Y-92844075D01*
X92842993Y-92909901D01*
X92749901Y-93002993D01*
X92684075Y-93117007D01*
X92650000Y-93244174D01*
X92553844Y-93244174D01*
X92226241Y-92916571D01*
X92184584Y-93017141D01*
X92146000Y-93211118D01*
X89646490Y-93211118D01*
X89590568Y-93039008D01*
X89483343Y-92828567D01*
X89344517Y-92637490D01*
X89316481Y-92609454D01*
X89244944Y-92509260D01*
X89209814Y-92391261D01*
X89214902Y-92268249D01*
X89259656Y-92153555D01*
X89316480Y-92080546D01*
X89344517Y-92052510D01*
X89483343Y-91861433D01*
X89590568Y-91650992D01*
X89663553Y-91426368D01*
X89700500Y-91193092D01*
X89700500Y-90956908D01*
X89663553Y-90723632D01*
X89590568Y-90499008D01*
X89483343Y-90288567D01*
X89344517Y-90097490D01*
X89316481Y-90069454D01*
X89244944Y-89969260D01*
X89209814Y-89851261D01*
X89214902Y-89728249D01*
X89259656Y-89613555D01*
X89316480Y-89540546D01*
X89344517Y-89512510D01*
X89483343Y-89321433D01*
X89590568Y-89110992D01*
X89663553Y-88886368D01*
X89700500Y-88653092D01*
X89700500Y-88416908D01*
X89663553Y-88183632D01*
X89590568Y-87959008D01*
X89483343Y-87748567D01*
X89344517Y-87557490D01*
X89316481Y-87529454D01*
X89244944Y-87429260D01*
X89209814Y-87311261D01*
X89214902Y-87188249D01*
X89259656Y-87073555D01*
X89316480Y-87000546D01*
X89344517Y-86972510D01*
X89483343Y-86781433D01*
X89590568Y-86570992D01*
X89663553Y-86346368D01*
X89700500Y-86113092D01*
X89700500Y-85876908D01*
X89663553Y-85643632D01*
X89590568Y-85419008D01*
X89483343Y-85208567D01*
X89344517Y-85017490D01*
X89316481Y-84989454D01*
X89244944Y-84889260D01*
X89209814Y-84771261D01*
X89214902Y-84648249D01*
X89259656Y-84533555D01*
X89316480Y-84460546D01*
X89344517Y-84432510D01*
X89483343Y-84241433D01*
X89590568Y-84030992D01*
X89663553Y-83806368D01*
X89700500Y-83573092D01*
X89700500Y-83513651D01*
X89720764Y-83392213D01*
X89779361Y-83283935D01*
X89869941Y-83200551D01*
X89982688Y-83151095D01*
X90105385Y-83140928D01*
X90224734Y-83171152D01*
X90327803Y-83238490D01*
X90338958Y-83249193D01*
X91685478Y-84595713D01*
X91685480Y-84595716D01*
X91797284Y-84707520D01*
X91864386Y-84746260D01*
X91890903Y-84769053D01*
X91908247Y-84789837D01*
X91929145Y-84807047D01*
X91947422Y-84836779D01*
X91969787Y-84863579D01*
X91979444Y-84888871D01*
X91993620Y-84911932D01*
X92001252Y-84945988D01*
X92013703Y-84978596D01*
X92014624Y-85005651D01*
X92020545Y-85032068D01*
X92016705Y-85066759D01*
X92017894Y-85101642D01*
X92009980Y-85127530D01*
X92007003Y-85154438D01*
X91992647Y-85195793D01*
X91987408Y-85208441D01*
X91926392Y-85396229D01*
X91926392Y-85396230D01*
X91926390Y-85396237D01*
X91895500Y-85591269D01*
X91895500Y-85788731D01*
X91926390Y-85983761D01*
X91926392Y-85983770D01*
X91987406Y-86171555D01*
X91987408Y-86171559D01*
X91987409Y-86171561D01*
X92014167Y-86224075D01*
X92077058Y-86347504D01*
X92077058Y-86347505D01*
X92193113Y-86507243D01*
X92193120Y-86507251D01*
X92193121Y-86507252D01*
X92332748Y-86646879D01*
X92333581Y-86647484D01*
X92347266Y-86657427D01*
X92433600Y-86745200D01*
X92486757Y-86856251D01*
X92500975Y-86978544D01*
X92474714Y-87098827D01*
X92410821Y-87204066D01*
X92347266Y-87262573D01*
X92332751Y-87273118D01*
X92332745Y-87273123D01*
X92193123Y-87412745D01*
X92193113Y-87412756D01*
X92077058Y-87572494D01*
X92077058Y-87572495D01*
X91987410Y-87748437D01*
X91987406Y-87748444D01*
X91926392Y-87936229D01*
X91926390Y-87936234D01*
X91926390Y-87936237D01*
X91895500Y-88131269D01*
X91895500Y-88328731D01*
X91926390Y-88523761D01*
X91926392Y-88523770D01*
X91987406Y-88711555D01*
X91987408Y-88711559D01*
X91987409Y-88711561D01*
X92076478Y-88886366D01*
X92077058Y-88887504D01*
X92077058Y-88887505D01*
X92193113Y-89047243D01*
X92193120Y-89047251D01*
X92193121Y-89047252D01*
X92332748Y-89186879D01*
X92332751Y-89186881D01*
X92347266Y-89197427D01*
X92433600Y-89285200D01*
X92486757Y-89396251D01*
X92500975Y-89518544D01*
X92474714Y-89638827D01*
X92410821Y-89744066D01*
X92347266Y-89802573D01*
X92332751Y-89813118D01*
X92332745Y-89813123D01*
X92193123Y-89952745D01*
X92193113Y-89952756D01*
X92077058Y-90112494D01*
X92077058Y-90112495D01*
X91987410Y-90288437D01*
X91987406Y-90288444D01*
X91926392Y-90476229D01*
X91926390Y-90476234D01*
X91926390Y-90476237D01*
X91895500Y-90671269D01*
X91895500Y-90868731D01*
X91926390Y-91063761D01*
X91926392Y-91063770D01*
X91987406Y-91251555D01*
X91987408Y-91251559D01*
X91987409Y-91251561D01*
X92069631Y-91412928D01*
X92077058Y-91427504D01*
X92077058Y-91427505D01*
X92193113Y-91587243D01*
X92193123Y-91587254D01*
X92332745Y-91726876D01*
X92332756Y-91726886D01*
X92492494Y-91842941D01*
X92492496Y-91842942D01*
X92492499Y-91842944D01*
X92578142Y-91886581D01*
X92677142Y-91959769D01*
X92747016Y-92061137D01*
X92780189Y-92179700D01*
X92775161Y-92292780D01*
X92756570Y-92386240D01*
X93149999Y-92779669D01*
X93543427Y-92386241D01*
X93524837Y-92292782D01*
X93521021Y-92169724D01*
X93557368Y-92052095D01*
X93629939Y-91952641D01*
X93721856Y-91886582D01*
X93807501Y-91842944D01*
X93841311Y-91818380D01*
X93967243Y-91726886D01*
X93967249Y-91726881D01*
X93967252Y-91726879D01*
X94106879Y-91587252D01*
X94108366Y-91585206D01*
X94222941Y-91427505D01*
X94222944Y-91427501D01*
X94312591Y-91251561D01*
X94373610Y-91063763D01*
X94404500Y-90868731D01*
X94404500Y-90671269D01*
X94373610Y-90476237D01*
X94312591Y-90288439D01*
X94222944Y-90112499D01*
X94222941Y-90112494D01*
X94106886Y-89952756D01*
X94106876Y-89952745D01*
X93967253Y-89813122D01*
X93967252Y-89813121D01*
X93952734Y-89802573D01*
X93866403Y-89714805D01*
X93813244Y-89603756D01*
X93799024Y-89481463D01*
X93825282Y-89361179D01*
X93889174Y-89255939D01*
X93952733Y-89197427D01*
X93967252Y-89186879D01*
X94106879Y-89047252D01*
X94118534Y-89031211D01*
X94222941Y-88887505D01*
X94222944Y-88887501D01*
X94312591Y-88711561D01*
X94373610Y-88523763D01*
X94404500Y-88328731D01*
X94404500Y-88131269D01*
X94373610Y-87936237D01*
X94327960Y-87795740D01*
X94312593Y-87748444D01*
X94312592Y-87748442D01*
X94312591Y-87748439D01*
X94222944Y-87572499D01*
X94222941Y-87572494D01*
X94106886Y-87412756D01*
X94106876Y-87412745D01*
X93967253Y-87273122D01*
X93967252Y-87273121D01*
X93952734Y-87262573D01*
X93866403Y-87174805D01*
X93813244Y-87063756D01*
X93799024Y-86941463D01*
X93825282Y-86821179D01*
X93889174Y-86715939D01*
X93952733Y-86657427D01*
X93967252Y-86646879D01*
X94106879Y-86507252D01*
X94114323Y-86497007D01*
X94222941Y-86347505D01*
X94222944Y-86347501D01*
X94312591Y-86171561D01*
X94373610Y-85983763D01*
X94404500Y-85788731D01*
X94404500Y-85591269D01*
X94373610Y-85396237D01*
X94347888Y-85317072D01*
X94329634Y-85195316D01*
X94351904Y-85074230D01*
X94412283Y-84966936D01*
X94504229Y-84885060D01*
X94617779Y-84837476D01*
X94703583Y-84827500D01*
X104296417Y-84827500D01*
X104417855Y-84847764D01*
X104526133Y-84906361D01*
X104609517Y-84996941D01*
X104658973Y-85109688D01*
X104669140Y-85232385D01*
X104652112Y-85317072D01*
X104626393Y-85396229D01*
X104626390Y-85396237D01*
X104595500Y-85591269D01*
X104595500Y-85788731D01*
X104626390Y-85983761D01*
X104626392Y-85983770D01*
X104687406Y-86171555D01*
X104687408Y-86171559D01*
X104687409Y-86171561D01*
X104714167Y-86224075D01*
X104777058Y-86347504D01*
X104777058Y-86347505D01*
X104893113Y-86507243D01*
X104893120Y-86507251D01*
X104893121Y-86507252D01*
X105032748Y-86646879D01*
X105033581Y-86647484D01*
X105047266Y-86657427D01*
X105133600Y-86745200D01*
X105186757Y-86856251D01*
X105200975Y-86978544D01*
X105174714Y-87098827D01*
X105110821Y-87204066D01*
X105047266Y-87262573D01*
X105032751Y-87273118D01*
X105032745Y-87273123D01*
X104893123Y-87412745D01*
X104893113Y-87412756D01*
X104777058Y-87572494D01*
X104777058Y-87572495D01*
X104687410Y-87748437D01*
X104687406Y-87748444D01*
X104626392Y-87936229D01*
X104626390Y-87936234D01*
X104626390Y-87936237D01*
X104595500Y-88131269D01*
X104595500Y-88328731D01*
X104626390Y-88523761D01*
X104626392Y-88523770D01*
X104687406Y-88711555D01*
X104687408Y-88711559D01*
X104687409Y-88711561D01*
X104776478Y-88886366D01*
X104777058Y-88887504D01*
X104777058Y-88887505D01*
X104893113Y-89047243D01*
X104893120Y-89047251D01*
X104893121Y-89047252D01*
X105032748Y-89186879D01*
X105032751Y-89186881D01*
X105047266Y-89197427D01*
X105133600Y-89285200D01*
X105186757Y-89396251D01*
X105200975Y-89518544D01*
X105174714Y-89638827D01*
X105110821Y-89744066D01*
X105047266Y-89802573D01*
X105032751Y-89813118D01*
X105032745Y-89813123D01*
X104893123Y-89952745D01*
X104893113Y-89952756D01*
X104777058Y-90112494D01*
X104777058Y-90112495D01*
X104687410Y-90288437D01*
X104687406Y-90288444D01*
X104626392Y-90476229D01*
X104626390Y-90476234D01*
X104626390Y-90476237D01*
X104595500Y-90671269D01*
X104595500Y-90868731D01*
X104626390Y-91063761D01*
X104626392Y-91063770D01*
X104687406Y-91251555D01*
X104687408Y-91251559D01*
X104687409Y-91251561D01*
X104769631Y-91412928D01*
X104777058Y-91427504D01*
X104777058Y-91427505D01*
X104893113Y-91587243D01*
X104893120Y-91587251D01*
X104893121Y-91587252D01*
X105032748Y-91726879D01*
X105032751Y-91726881D01*
X105047266Y-91737427D01*
X105133600Y-91825200D01*
X105186757Y-91936251D01*
X105200975Y-92058544D01*
X105174714Y-92178827D01*
X105110821Y-92284066D01*
X105047266Y-92342573D01*
X105032751Y-92353118D01*
X105032745Y-92353123D01*
X104893123Y-92492745D01*
X104893113Y-92492756D01*
X104777058Y-92652494D01*
X104777058Y-92652495D01*
X104687410Y-92828437D01*
X104687406Y-92828444D01*
X104626392Y-93016229D01*
X104626390Y-93016234D01*
X104626390Y-93016237D01*
X104595500Y-93211269D01*
X104595500Y-93408731D01*
X104626246Y-93602854D01*
X104626390Y-93603761D01*
X104626392Y-93603770D01*
X104687406Y-93791555D01*
X104687408Y-93791559D01*
X104687409Y-93791561D01*
X104776478Y-93966366D01*
X104777058Y-93967504D01*
X104777058Y-93967505D01*
X104893113Y-94127243D01*
X104893120Y-94127251D01*
X104893121Y-94127252D01*
X105032748Y-94266879D01*
X105032751Y-94266881D01*
X105047266Y-94277427D01*
X105133600Y-94365200D01*
X105186757Y-94476251D01*
X105200975Y-94598544D01*
X105174714Y-94718827D01*
X105110821Y-94824066D01*
X105047266Y-94882573D01*
X105032751Y-94893118D01*
X105032745Y-94893123D01*
X104893123Y-95032745D01*
X104893113Y-95032756D01*
X104777058Y-95192494D01*
X104777058Y-95192495D01*
X104687410Y-95368437D01*
X104687406Y-95368444D01*
X104626392Y-95556229D01*
X104626390Y-95556234D01*
X104626390Y-95556237D01*
X104595500Y-95751269D01*
X104595500Y-95948731D01*
X104614501Y-96068698D01*
X104626390Y-96143761D01*
X104626392Y-96143770D01*
X104687406Y-96331555D01*
X104687408Y-96331559D01*
X104687409Y-96331561D01*
X104772444Y-96498449D01*
X104777058Y-96507504D01*
X104777058Y-96507505D01*
X104893113Y-96667243D01*
X104893123Y-96667254D01*
X105032745Y-96806876D01*
X105032756Y-96806886D01*
X105192494Y-96922941D01*
X105192496Y-96922942D01*
X105192499Y-96922944D01*
X105278142Y-96966581D01*
X105377142Y-97039769D01*
X105447016Y-97141137D01*
X105480189Y-97259700D01*
X105475161Y-97372780D01*
X105456570Y-97466240D01*
X105849999Y-97859669D01*
X106243427Y-97466241D01*
X106224837Y-97372782D01*
X106221021Y-97249724D01*
X106257368Y-97132095D01*
X106329939Y-97032641D01*
X106421856Y-96966582D01*
X106507501Y-96922944D01*
X106534516Y-96903316D01*
X106667243Y-96806886D01*
X106667245Y-96806883D01*
X106667252Y-96806879D01*
X106806879Y-96667252D01*
X106814323Y-96657007D01*
X106922941Y-96507505D01*
X106922944Y-96507501D01*
X107012591Y-96331561D01*
X107073610Y-96143763D01*
X107104500Y-95948731D01*
X107104500Y-95751269D01*
X107073610Y-95556237D01*
X107036226Y-95441179D01*
X107012593Y-95368444D01*
X107012592Y-95368442D01*
X107012591Y-95368439D01*
X106922944Y-95192499D01*
X106922941Y-95192494D01*
X106806886Y-95032756D01*
X106806876Y-95032745D01*
X106667253Y-94893122D01*
X106667252Y-94893121D01*
X106652734Y-94882573D01*
X106566403Y-94794805D01*
X106513244Y-94683756D01*
X106499024Y-94561463D01*
X106525282Y-94441179D01*
X106589174Y-94335939D01*
X106652733Y-94277427D01*
X106667252Y-94266879D01*
X106806879Y-94127252D01*
X106886391Y-94017813D01*
X106922941Y-93967505D01*
X106922944Y-93967501D01*
X107012591Y-93791561D01*
X107073610Y-93603763D01*
X107104500Y-93408731D01*
X107104500Y-93211269D01*
X107073610Y-93016237D01*
X107039601Y-92911568D01*
X107012593Y-92828444D01*
X107012592Y-92828442D01*
X107012591Y-92828439D01*
X106922944Y-92652499D01*
X106922941Y-92652494D01*
X106806886Y-92492756D01*
X106806876Y-92492745D01*
X106667253Y-92353122D01*
X106667252Y-92353121D01*
X106652734Y-92342573D01*
X106566403Y-92254805D01*
X106513244Y-92143756D01*
X106499024Y-92021463D01*
X106525282Y-91901179D01*
X106589174Y-91795939D01*
X106652733Y-91737427D01*
X106667252Y-91726879D01*
X106806879Y-91587252D01*
X106808366Y-91585206D01*
X106922941Y-91427505D01*
X106922944Y-91427501D01*
X107012591Y-91251561D01*
X107073610Y-91063763D01*
X107104500Y-90868731D01*
X107104500Y-90671269D01*
X107073610Y-90476237D01*
X107012591Y-90288439D01*
X106922944Y-90112499D01*
X106922941Y-90112494D01*
X106806886Y-89952756D01*
X106806876Y-89952745D01*
X106667253Y-89813122D01*
X106667252Y-89813121D01*
X106652734Y-89802573D01*
X106566403Y-89714805D01*
X106513244Y-89603756D01*
X106499024Y-89481463D01*
X106525282Y-89361179D01*
X106589174Y-89255939D01*
X106652733Y-89197427D01*
X106667252Y-89186879D01*
X106806879Y-89047252D01*
X106818534Y-89031211D01*
X106922941Y-88887505D01*
X106922944Y-88887501D01*
X107012591Y-88711561D01*
X107073610Y-88523763D01*
X107104500Y-88328731D01*
X107104500Y-88131269D01*
X107073610Y-87936237D01*
X107027960Y-87795740D01*
X107012593Y-87748444D01*
X107012592Y-87748442D01*
X107012591Y-87748439D01*
X106922944Y-87572499D01*
X106922941Y-87572494D01*
X106806886Y-87412756D01*
X106806876Y-87412745D01*
X106667253Y-87273122D01*
X106667252Y-87273121D01*
X106652734Y-87262573D01*
X106566403Y-87174805D01*
X106513244Y-87063756D01*
X106499024Y-86941463D01*
X106525282Y-86821179D01*
X106589174Y-86715939D01*
X106652733Y-86657427D01*
X106667252Y-86646879D01*
X106806879Y-86507252D01*
X106814323Y-86497007D01*
X106922941Y-86347505D01*
X106922944Y-86347501D01*
X107012591Y-86171561D01*
X107073610Y-85983763D01*
X107104500Y-85788731D01*
X107104500Y-85591269D01*
X107073610Y-85396237D01*
X107047888Y-85317072D01*
X107029634Y-85195316D01*
X107051904Y-85074230D01*
X107112283Y-84966936D01*
X107204229Y-84885060D01*
X107317779Y-84837476D01*
X107403583Y-84827500D01*
X108275500Y-84827500D01*
X108396938Y-84847764D01*
X108505216Y-84906361D01*
X108588600Y-84996941D01*
X108638056Y-85109688D01*
X108649500Y-85201500D01*
X108649500Y-86587868D01*
X108649866Y-86591269D01*
X108655909Y-86647483D01*
X108706204Y-86782331D01*
X108706205Y-86782333D01*
X108706207Y-86782336D01*
X108792451Y-86897543D01*
X108792454Y-86897546D01*
X108825251Y-86922098D01*
X108910322Y-87011096D01*
X108961886Y-87122895D01*
X108974356Y-87245378D01*
X108946379Y-87365274D01*
X108903693Y-87441329D01*
X108844947Y-87522185D01*
X108844947Y-87522186D01*
X108748443Y-87711587D01*
X108682754Y-87913753D01*
X108682754Y-87913757D01*
X108649500Y-88123713D01*
X108649500Y-88336287D01*
X108679195Y-88523770D01*
X108682754Y-88546242D01*
X108682754Y-88546246D01*
X108748443Y-88748412D01*
X108840270Y-88928634D01*
X108844949Y-88937816D01*
X108941248Y-89070361D01*
X108969893Y-89109788D01*
X108969898Y-89109794D01*
X109095646Y-89235542D01*
X109167186Y-89335740D01*
X109202316Y-89453739D01*
X109197228Y-89576751D01*
X109152474Y-89691445D01*
X109095646Y-89764458D01*
X108969898Y-89890205D01*
X108969893Y-89890211D01*
X108844949Y-90062184D01*
X108844947Y-90062186D01*
X108748443Y-90251587D01*
X108682754Y-90453753D01*
X108682754Y-90453757D01*
X108649500Y-90663713D01*
X108649500Y-90876287D01*
X108679195Y-91063770D01*
X108682754Y-91086242D01*
X108682754Y-91086246D01*
X108748443Y-91288412D01*
X108827572Y-91443713D01*
X108844949Y-91477816D01*
X108924460Y-91587254D01*
X108969893Y-91649788D01*
X108969898Y-91649794D01*
X109095646Y-91775542D01*
X109167186Y-91875740D01*
X109202316Y-91993739D01*
X109197228Y-92116751D01*
X109152474Y-92231445D01*
X109095646Y-92304458D01*
X108969898Y-92430205D01*
X108969893Y-92430211D01*
X108844949Y-92602184D01*
X108844947Y-92602186D01*
X108748443Y-92791587D01*
X108682754Y-92993753D01*
X108682754Y-92993757D01*
X108649500Y-93203713D01*
X108649500Y-93416287D01*
X108680543Y-93612284D01*
X108682754Y-93626242D01*
X108682754Y-93626246D01*
X108748443Y-93828412D01*
X108819313Y-93967504D01*
X108844949Y-94017816D01*
X108969896Y-94189792D01*
X109120208Y-94340104D01*
X109292184Y-94465051D01*
X109481588Y-94561557D01*
X109683757Y-94627246D01*
X109893713Y-94660500D01*
X109893717Y-94660500D01*
X110106283Y-94660500D01*
X110106287Y-94660500D01*
X110316243Y-94627246D01*
X110518412Y-94561557D01*
X110707816Y-94465051D01*
X110879792Y-94340104D01*
X111030104Y-94189792D01*
X111155051Y-94017816D01*
X111251557Y-93828412D01*
X111317246Y-93626243D01*
X111350500Y-93416287D01*
X111350500Y-93203713D01*
X111317246Y-92993757D01*
X111317198Y-92993610D01*
X111286782Y-92900000D01*
X111251557Y-92791588D01*
X111189006Y-92668825D01*
X111157111Y-92606226D01*
X111157109Y-92606224D01*
X111155051Y-92602184D01*
X111030104Y-92430208D01*
X110997538Y-92397642D01*
X116159500Y-92397642D01*
X116159500Y-92602357D01*
X116191520Y-92804524D01*
X116191522Y-92804532D01*
X116254780Y-92999221D01*
X116294869Y-93077898D01*
X116347713Y-93181610D01*
X116347717Y-93181615D01*
X116347719Y-93181619D01*
X116468026Y-93347210D01*
X116468036Y-93347221D01*
X116612778Y-93491963D01*
X116612789Y-93491973D01*
X116771867Y-93607548D01*
X116778390Y-93612287D01*
X116912574Y-93680657D01*
X116960778Y-93705219D01*
X116960780Y-93705219D01*
X116960781Y-93705220D01*
X117155466Y-93768477D01*
X117155468Y-93768477D01*
X117155475Y-93768479D01*
X117341552Y-93797950D01*
X117357648Y-93800500D01*
X117562352Y-93800500D01*
X117629746Y-93789825D01*
X117764524Y-93768479D01*
X117764528Y-93768477D01*
X117764534Y-93768477D01*
X117959219Y-93705220D01*
X118141610Y-93612287D01*
X118307219Y-93491966D01*
X118307233Y-93491951D01*
X118308130Y-93491187D01*
X118309073Y-93490619D01*
X118319108Y-93483329D01*
X118319741Y-93484201D01*
X118413628Y-93427721D01*
X118534017Y-93401949D01*
X118656251Y-93416664D01*
X118767085Y-93470270D01*
X118850445Y-93551430D01*
X118892451Y-93607543D01*
X118892456Y-93607548D01*
X119007663Y-93693792D01*
X119007664Y-93693792D01*
X119007669Y-93693796D01*
X119142517Y-93744091D01*
X119202127Y-93750500D01*
X120797872Y-93750499D01*
X120857483Y-93744091D01*
X120992331Y-93693796D01*
X121107546Y-93607546D01*
X121193796Y-93492331D01*
X121206241Y-93458965D01*
X122111363Y-93458965D01*
X122233724Y-93509649D01*
X122233723Y-93509649D01*
X122436583Y-93549999D01*
X122436588Y-93550000D01*
X122643412Y-93550000D01*
X122643416Y-93549999D01*
X122846271Y-93509650D01*
X122968634Y-93458964D01*
X122540000Y-93030330D01*
X122111363Y-93458965D01*
X121206241Y-93458965D01*
X121244091Y-93357483D01*
X121250500Y-93297873D01*
X121250499Y-93296595D01*
X121251072Y-93289297D01*
X121264818Y-93233960D01*
X121277190Y-93178328D01*
X121279628Y-93174346D01*
X121280755Y-93169812D01*
X121311724Y-93121937D01*
X121341489Y-93073336D01*
X121345088Y-93070361D01*
X121347626Y-93066439D01*
X121392466Y-93031211D01*
X121436395Y-92994911D01*
X121440764Y-92993266D01*
X121444439Y-92990380D01*
X121498277Y-92971624D01*
X121551623Y-92951550D01*
X121556292Y-92951413D01*
X121559303Y-92950364D01*
X122009669Y-92499999D01*
X121957009Y-92447339D01*
X122140000Y-92447339D01*
X122140000Y-92552661D01*
X122167259Y-92654394D01*
X122219920Y-92745606D01*
X122294394Y-92820080D01*
X122385606Y-92872741D01*
X122487339Y-92900000D01*
X122592661Y-92900000D01*
X122694394Y-92872741D01*
X122785606Y-92820080D01*
X122860080Y-92745606D01*
X122912741Y-92654394D01*
X122940000Y-92552661D01*
X122940000Y-92499999D01*
X123070330Y-92499999D01*
X123070330Y-92500000D01*
X123498964Y-92928634D01*
X123549650Y-92806271D01*
X123589999Y-92603416D01*
X123590000Y-92603412D01*
X123590000Y-92396587D01*
X123589999Y-92396583D01*
X123549649Y-92193723D01*
X123498965Y-92071364D01*
X123070330Y-92499999D01*
X122940000Y-92499999D01*
X122940000Y-92447339D01*
X122912741Y-92345606D01*
X122860080Y-92254394D01*
X122785606Y-92179920D01*
X122694394Y-92127259D01*
X122592661Y-92100000D01*
X122487339Y-92100000D01*
X122385606Y-92127259D01*
X122294394Y-92179920D01*
X122219920Y-92254394D01*
X122167259Y-92345606D01*
X122140000Y-92447339D01*
X121957009Y-92447339D01*
X121556422Y-92046752D01*
X121537932Y-92041038D01*
X121500894Y-92034686D01*
X121479501Y-92022983D01*
X121456203Y-92015784D01*
X121425845Y-91993631D01*
X121392882Y-91975599D01*
X121376450Y-91957587D01*
X121356750Y-91943211D01*
X121335228Y-91912399D01*
X121309908Y-91884643D01*
X121300215Y-91862272D01*
X121286250Y-91842278D01*
X121275899Y-91806148D01*
X121260963Y-91771674D01*
X121255431Y-91734703D01*
X121252343Y-91723922D01*
X121251072Y-91710701D01*
X121250499Y-91703388D01*
X121250499Y-91702128D01*
X121249807Y-91695695D01*
X121246370Y-91663716D01*
X121244091Y-91642517D01*
X121206240Y-91541033D01*
X122111364Y-91541033D01*
X122111364Y-91541034D01*
X122539999Y-91969669D01*
X122968634Y-91541034D01*
X122846272Y-91490350D01*
X122643416Y-91450000D01*
X122436581Y-91450000D01*
X122233730Y-91490348D01*
X122111364Y-91541033D01*
X121206240Y-91541033D01*
X121193796Y-91507669D01*
X121180831Y-91490350D01*
X121107548Y-91392456D01*
X121107543Y-91392451D01*
X120992336Y-91306207D01*
X120992333Y-91306205D01*
X120992331Y-91306204D01*
X120961702Y-91294780D01*
X120857484Y-91255909D01*
X120857479Y-91255908D01*
X120797874Y-91249500D01*
X119202131Y-91249500D01*
X119142517Y-91255909D01*
X119007671Y-91306203D01*
X119007663Y-91306207D01*
X118892456Y-91392451D01*
X118892452Y-91392455D01*
X118850444Y-91448571D01*
X118761446Y-91533642D01*
X118649647Y-91585206D01*
X118527164Y-91597675D01*
X118407268Y-91569698D01*
X118319667Y-91515900D01*
X118319108Y-91516671D01*
X118309200Y-91509472D01*
X118308144Y-91508824D01*
X118307213Y-91508029D01*
X118141619Y-91387719D01*
X118141615Y-91387717D01*
X118141610Y-91387713D01*
X118052154Y-91342132D01*
X117959221Y-91294780D01*
X117764532Y-91231522D01*
X117764524Y-91231520D01*
X117562357Y-91199500D01*
X117562352Y-91199500D01*
X117357648Y-91199500D01*
X117357642Y-91199500D01*
X117155475Y-91231520D01*
X117155467Y-91231522D01*
X116960778Y-91294780D01*
X116821378Y-91365809D01*
X116778390Y-91387713D01*
X116778387Y-91387714D01*
X116778387Y-91387715D01*
X116778380Y-91387719D01*
X116612789Y-91508026D01*
X116612778Y-91508036D01*
X116468036Y-91652778D01*
X116468026Y-91652789D01*
X116347719Y-91818380D01*
X116347715Y-91818387D01*
X116347713Y-91818390D01*
X116335204Y-91842941D01*
X116254780Y-92000778D01*
X116191522Y-92195467D01*
X116191520Y-92195475D01*
X116159500Y-92397642D01*
X110997538Y-92397642D01*
X110893140Y-92293244D01*
X110882918Y-92281124D01*
X110859494Y-92241628D01*
X110832814Y-92204260D01*
X110828259Y-92188960D01*
X110820116Y-92175230D01*
X110810785Y-92130269D01*
X110797684Y-92086261D01*
X110798343Y-92070311D01*
X110795100Y-92054681D01*
X110800874Y-92009125D01*
X110802772Y-91963249D01*
X110808574Y-91948378D01*
X110810582Y-91932542D01*
X110830833Y-91891333D01*
X110847526Y-91848555D01*
X110859275Y-91833458D01*
X110864884Y-91822047D01*
X110879441Y-91807549D01*
X110904354Y-91775542D01*
X110959121Y-91720775D01*
X111030104Y-91649792D01*
X111155051Y-91477816D01*
X111251557Y-91288412D01*
X111317246Y-91086243D01*
X111350500Y-90876287D01*
X111350500Y-90663713D01*
X111317246Y-90453757D01*
X111317198Y-90453610D01*
X111276246Y-90327572D01*
X111251557Y-90251588D01*
X111155051Y-90062184D01*
X111030104Y-89890208D01*
X110904354Y-89764458D01*
X110832814Y-89664260D01*
X110797684Y-89546261D01*
X110802772Y-89423249D01*
X110847526Y-89308555D01*
X110904354Y-89235542D01*
X110965550Y-89174346D01*
X111030104Y-89109792D01*
X111155051Y-88937816D01*
X111251557Y-88748412D01*
X111317246Y-88546243D01*
X111350500Y-88336287D01*
X111350500Y-88123713D01*
X111317246Y-87913757D01*
X111317198Y-87913610D01*
X111287165Y-87821179D01*
X111251557Y-87711588D01*
X111155051Y-87522184D01*
X111096307Y-87441329D01*
X111041323Y-87331174D01*
X111025084Y-87209133D01*
X111049353Y-87088432D01*
X111111498Y-86982151D01*
X111174744Y-86922101D01*
X111207546Y-86897546D01*
X111293796Y-86782331D01*
X111344091Y-86647483D01*
X111350500Y-86587873D01*
X111350499Y-85201498D01*
X111370763Y-85080063D01*
X111429360Y-84971785D01*
X111519940Y-84888400D01*
X111632687Y-84838944D01*
X111724499Y-84827500D01*
X112783349Y-84827500D01*
X112904787Y-84847764D01*
X113013065Y-84906361D01*
X113047807Y-84937042D01*
X116072458Y-87961694D01*
X116143998Y-88061893D01*
X116179128Y-88179891D01*
X116177396Y-88284658D01*
X116167014Y-88350211D01*
X116159500Y-88397650D01*
X116159500Y-88602357D01*
X116191520Y-88804524D01*
X116191522Y-88804532D01*
X116254780Y-88999221D01*
X116302132Y-89092154D01*
X116347713Y-89181610D01*
X116347717Y-89181615D01*
X116347719Y-89181619D01*
X116468026Y-89347210D01*
X116468036Y-89347221D01*
X116612778Y-89491963D01*
X116612789Y-89491973D01*
X116771867Y-89607548D01*
X116778390Y-89612287D01*
X116880393Y-89664260D01*
X116960778Y-89705219D01*
X116960780Y-89705219D01*
X116960781Y-89705220D01*
X117155466Y-89768477D01*
X117155468Y-89768477D01*
X117155475Y-89768479D01*
X117341552Y-89797950D01*
X117357648Y-89800500D01*
X117562352Y-89800500D01*
X117629746Y-89789825D01*
X117764524Y-89768479D01*
X117764528Y-89768477D01*
X117764534Y-89768477D01*
X117959219Y-89705220D01*
X118141610Y-89612287D01*
X118307219Y-89491966D01*
X118307233Y-89491951D01*
X118308130Y-89491187D01*
X118309073Y-89490619D01*
X118319108Y-89483329D01*
X118319741Y-89484201D01*
X118413628Y-89427721D01*
X118534017Y-89401949D01*
X118656251Y-89416664D01*
X118767085Y-89470270D01*
X118850445Y-89551430D01*
X118892451Y-89607543D01*
X118892456Y-89607548D01*
X119007663Y-89693792D01*
X119007664Y-89693792D01*
X119007669Y-89693796D01*
X119142517Y-89744091D01*
X119202127Y-89750500D01*
X120797872Y-89750499D01*
X120857483Y-89744091D01*
X120992331Y-89693796D01*
X121107546Y-89607546D01*
X121193796Y-89492331D01*
X121206241Y-89458965D01*
X122111363Y-89458965D01*
X122233724Y-89509649D01*
X122233723Y-89509649D01*
X122436583Y-89549999D01*
X122436588Y-89550000D01*
X122643412Y-89550000D01*
X122643416Y-89549999D01*
X122846271Y-89509650D01*
X122968634Y-89458964D01*
X122540000Y-89030330D01*
X122111363Y-89458965D01*
X121206241Y-89458965D01*
X121244091Y-89357483D01*
X121250500Y-89297873D01*
X121250499Y-89296595D01*
X121251072Y-89289297D01*
X121264818Y-89233960D01*
X121277190Y-89178328D01*
X121279628Y-89174346D01*
X121280755Y-89169812D01*
X121311724Y-89121937D01*
X121341489Y-89073336D01*
X121345088Y-89070361D01*
X121347626Y-89066439D01*
X121392466Y-89031211D01*
X121436395Y-88994911D01*
X121440764Y-88993266D01*
X121444439Y-88990380D01*
X121498277Y-88971624D01*
X121551623Y-88951550D01*
X121556292Y-88951413D01*
X121559303Y-88950364D01*
X122009669Y-88499999D01*
X121957009Y-88447339D01*
X122140000Y-88447339D01*
X122140000Y-88552661D01*
X122167259Y-88654394D01*
X122219920Y-88745606D01*
X122294394Y-88820080D01*
X122385606Y-88872741D01*
X122487339Y-88900000D01*
X122592661Y-88900000D01*
X122694394Y-88872741D01*
X122785606Y-88820080D01*
X122860080Y-88745606D01*
X122912741Y-88654394D01*
X122940000Y-88552661D01*
X122940000Y-88499999D01*
X123070330Y-88499999D01*
X123070330Y-88500000D01*
X123498964Y-88928634D01*
X123549650Y-88806271D01*
X123589999Y-88603416D01*
X123590000Y-88603412D01*
X123590000Y-88396587D01*
X123589999Y-88396583D01*
X123549649Y-88193723D01*
X123498965Y-88071364D01*
X123070330Y-88499999D01*
X122940000Y-88499999D01*
X122940000Y-88447339D01*
X122912741Y-88345606D01*
X122860080Y-88254394D01*
X122785606Y-88179920D01*
X122694394Y-88127259D01*
X122592661Y-88100000D01*
X122487339Y-88100000D01*
X122385606Y-88127259D01*
X122294394Y-88179920D01*
X122219920Y-88254394D01*
X122167259Y-88345606D01*
X122140000Y-88447339D01*
X121957009Y-88447339D01*
X121556422Y-88046752D01*
X121537932Y-88041038D01*
X121500894Y-88034686D01*
X121479501Y-88022983D01*
X121456203Y-88015784D01*
X121425845Y-87993631D01*
X121392882Y-87975599D01*
X121376450Y-87957587D01*
X121356750Y-87943211D01*
X121335228Y-87912399D01*
X121309908Y-87884643D01*
X121300215Y-87862272D01*
X121286250Y-87842278D01*
X121275899Y-87806148D01*
X121260963Y-87771674D01*
X121255431Y-87734703D01*
X121252343Y-87723922D01*
X121251072Y-87710701D01*
X121250499Y-87703388D01*
X121250499Y-87702128D01*
X121244091Y-87642517D01*
X121206240Y-87541033D01*
X122111364Y-87541033D01*
X122111364Y-87541034D01*
X122539999Y-87969669D01*
X122968634Y-87541034D01*
X122846272Y-87490350D01*
X122643416Y-87450000D01*
X122436581Y-87450000D01*
X122233730Y-87490348D01*
X122111364Y-87541033D01*
X121206240Y-87541033D01*
X121193796Y-87507669D01*
X121193792Y-87507663D01*
X121107548Y-87392456D01*
X121107543Y-87392451D01*
X120992336Y-87306207D01*
X120992333Y-87306205D01*
X120992331Y-87306204D01*
X120961702Y-87294780D01*
X120857484Y-87255909D01*
X120857479Y-87255908D01*
X120797874Y-87249500D01*
X119202131Y-87249500D01*
X119142517Y-87255909D01*
X119007671Y-87306203D01*
X119007663Y-87306207D01*
X118892456Y-87392451D01*
X118892452Y-87392455D01*
X118850444Y-87448571D01*
X118761446Y-87533642D01*
X118649647Y-87585206D01*
X118527164Y-87597675D01*
X118407268Y-87569698D01*
X118319667Y-87515900D01*
X118319108Y-87516671D01*
X118309200Y-87509472D01*
X118308144Y-87508824D01*
X118307213Y-87508029D01*
X118141619Y-87387719D01*
X118141615Y-87387717D01*
X118141610Y-87387713D01*
X118052154Y-87342132D01*
X117959221Y-87294780D01*
X117764532Y-87231522D01*
X117764524Y-87231520D01*
X117562357Y-87199500D01*
X117562352Y-87199500D01*
X117357648Y-87199500D01*
X117296829Y-87209133D01*
X117244658Y-87217396D01*
X117121545Y-87216377D01*
X117005434Y-87175440D01*
X116921694Y-87112458D01*
X113702204Y-83892969D01*
X113667521Y-83858286D01*
X113667520Y-83858284D01*
X113555716Y-83746480D01*
X113468904Y-83696360D01*
X113429964Y-83673877D01*
X113418787Y-83667424D01*
X113418786Y-83667423D01*
X113418785Y-83667423D01*
X113266057Y-83626499D01*
X113107943Y-83626499D01*
X113085017Y-83626499D01*
X113085001Y-83626500D01*
X107228000Y-83626500D01*
X107174667Y-83617600D01*
X107121015Y-83610872D01*
X107114127Y-83607498D01*
X107106562Y-83606236D01*
X107059002Y-83580497D01*
X107010448Y-83556716D01*
X107005029Y-83551289D01*
X106998284Y-83547639D01*
X106961661Y-83507856D01*
X106923457Y-83469594D01*
X106920093Y-83462700D01*
X106914900Y-83457059D01*
X106893178Y-83407539D01*
X106869468Y-83358946D01*
X106868281Y-83350780D01*
X106865444Y-83344312D01*
X106856837Y-83298482D01*
X106790273Y-82761182D01*
X106790759Y-82749639D01*
X106788155Y-82738385D01*
X106793338Y-82688391D01*
X106795454Y-82638174D01*
X106799661Y-82627414D01*
X106800853Y-82615925D01*
X106821985Y-82570330D01*
X106840294Y-82523513D01*
X106847768Y-82514701D01*
X106852625Y-82504223D01*
X106887418Y-82467957D01*
X106919935Y-82429625D01*
X106929862Y-82423719D01*
X106937861Y-82415383D01*
X106982554Y-82392375D01*
X107025746Y-82366683D01*
X107037052Y-82364321D01*
X107047325Y-82359033D01*
X107107046Y-82349699D01*
X107146262Y-82341508D01*
X107153586Y-82342426D01*
X107161436Y-82341200D01*
X114337049Y-82341200D01*
X114458487Y-82361464D01*
X114566765Y-82420061D01*
X114601507Y-82450742D01*
X116112458Y-83961693D01*
X116183998Y-84061891D01*
X116219128Y-84179890D01*
X116217396Y-84284656D01*
X116199500Y-84397649D01*
X116199500Y-84602357D01*
X116231520Y-84804524D01*
X116231522Y-84804532D01*
X116294780Y-84999221D01*
X116333000Y-85074230D01*
X116387713Y-85181610D01*
X116387717Y-85181615D01*
X116387719Y-85181619D01*
X116508026Y-85347210D01*
X116508036Y-85347221D01*
X116652778Y-85491963D01*
X116652789Y-85491973D01*
X116811867Y-85607548D01*
X116818390Y-85612287D01*
X116937114Y-85672780D01*
X117000778Y-85705219D01*
X117000780Y-85705219D01*
X117000781Y-85705220D01*
X117195466Y-85768477D01*
X117195468Y-85768477D01*
X117195475Y-85768479D01*
X117381552Y-85797950D01*
X117397648Y-85800500D01*
X117602352Y-85800500D01*
X117676683Y-85788727D01*
X117804524Y-85768479D01*
X117804528Y-85768477D01*
X117804534Y-85768477D01*
X117999219Y-85705220D01*
X118181610Y-85612287D01*
X118347219Y-85491966D01*
X118347233Y-85491951D01*
X118348130Y-85491187D01*
X118349073Y-85490619D01*
X118359108Y-85483329D01*
X118359741Y-85484201D01*
X118453628Y-85427721D01*
X118574017Y-85401949D01*
X118696251Y-85416664D01*
X118807085Y-85470270D01*
X118890445Y-85551430D01*
X118932451Y-85607543D01*
X118932456Y-85607548D01*
X119047663Y-85693792D01*
X119047664Y-85693792D01*
X119047669Y-85693796D01*
X119182517Y-85744091D01*
X119242127Y-85750500D01*
X120837872Y-85750499D01*
X120897483Y-85744091D01*
X121032331Y-85693796D01*
X121147546Y-85607546D01*
X121233796Y-85492331D01*
X121246241Y-85458965D01*
X122151363Y-85458965D01*
X122273724Y-85509649D01*
X122273723Y-85509649D01*
X122476583Y-85549999D01*
X122476588Y-85550000D01*
X122683412Y-85550000D01*
X122683416Y-85549999D01*
X122886271Y-85509650D01*
X123008634Y-85458964D01*
X122580000Y-85030330D01*
X122151363Y-85458965D01*
X121246241Y-85458965D01*
X121284091Y-85357483D01*
X121290500Y-85297873D01*
X121290499Y-85296595D01*
X121291072Y-85289297D01*
X121304818Y-85233960D01*
X121317190Y-85178328D01*
X121319628Y-85174346D01*
X121320755Y-85169812D01*
X121351724Y-85121937D01*
X121381489Y-85073336D01*
X121385088Y-85070361D01*
X121387626Y-85066439D01*
X121432466Y-85031211D01*
X121476395Y-84994911D01*
X121480764Y-84993266D01*
X121484439Y-84990380D01*
X121538277Y-84971624D01*
X121591623Y-84951550D01*
X121596292Y-84951413D01*
X121599303Y-84950364D01*
X122049669Y-84499999D01*
X121997009Y-84447339D01*
X122180000Y-84447339D01*
X122180000Y-84552661D01*
X122207259Y-84654394D01*
X122259920Y-84745606D01*
X122334394Y-84820080D01*
X122425606Y-84872741D01*
X122527339Y-84900000D01*
X122632661Y-84900000D01*
X122734394Y-84872741D01*
X122825606Y-84820080D01*
X122900080Y-84745606D01*
X122952741Y-84654394D01*
X122980000Y-84552661D01*
X122980000Y-84499999D01*
X123110330Y-84499999D01*
X123110330Y-84500000D01*
X123538964Y-84928634D01*
X123589650Y-84806271D01*
X123629999Y-84603416D01*
X123630000Y-84603412D01*
X123630000Y-84396587D01*
X123629999Y-84396583D01*
X123589649Y-84193723D01*
X123538965Y-84071364D01*
X123110330Y-84499999D01*
X122980000Y-84499999D01*
X122980000Y-84447339D01*
X122952741Y-84345606D01*
X122900080Y-84254394D01*
X122825606Y-84179920D01*
X122734394Y-84127259D01*
X122632661Y-84100000D01*
X122527339Y-84100000D01*
X122425606Y-84127259D01*
X122334394Y-84179920D01*
X122259920Y-84254394D01*
X122207259Y-84345606D01*
X122180000Y-84447339D01*
X121997009Y-84447339D01*
X121596422Y-84046752D01*
X121577932Y-84041038D01*
X121540894Y-84034686D01*
X121519501Y-84022983D01*
X121496203Y-84015784D01*
X121465845Y-83993631D01*
X121432882Y-83975599D01*
X121416450Y-83957587D01*
X121396750Y-83943211D01*
X121375228Y-83912399D01*
X121349908Y-83884643D01*
X121340215Y-83862272D01*
X121326250Y-83842278D01*
X121315899Y-83806148D01*
X121300963Y-83771674D01*
X121295431Y-83734703D01*
X121292343Y-83723922D01*
X121291072Y-83710701D01*
X121290499Y-83703388D01*
X121290499Y-83702128D01*
X121284091Y-83642517D01*
X121246240Y-83541033D01*
X122151364Y-83541033D01*
X122151364Y-83541034D01*
X122579999Y-83969669D01*
X123008634Y-83541034D01*
X122886272Y-83490350D01*
X122683416Y-83450000D01*
X122476581Y-83450000D01*
X122273730Y-83490348D01*
X122151364Y-83541033D01*
X121246240Y-83541033D01*
X121233796Y-83507669D01*
X121233792Y-83507663D01*
X121147548Y-83392456D01*
X121147543Y-83392451D01*
X121032336Y-83306207D01*
X121032333Y-83306205D01*
X121032331Y-83306204D01*
X121032326Y-83306202D01*
X120897484Y-83255909D01*
X120897479Y-83255908D01*
X120837874Y-83249500D01*
X119242131Y-83249500D01*
X119182517Y-83255909D01*
X119047671Y-83306203D01*
X119047663Y-83306207D01*
X118932456Y-83392451D01*
X118932452Y-83392455D01*
X118890444Y-83448571D01*
X118801446Y-83533642D01*
X118689647Y-83585206D01*
X118567164Y-83597675D01*
X118447268Y-83569698D01*
X118359667Y-83515900D01*
X118359108Y-83516671D01*
X118349200Y-83509472D01*
X118348144Y-83508824D01*
X118347213Y-83508029D01*
X118181619Y-83387719D01*
X118181615Y-83387717D01*
X118181610Y-83387713D01*
X118073751Y-83332756D01*
X117999221Y-83294780D01*
X117804532Y-83231522D01*
X117804524Y-83231520D01*
X117602357Y-83199500D01*
X117602352Y-83199500D01*
X117397648Y-83199500D01*
X117351786Y-83206763D01*
X117284656Y-83217396D01*
X117161544Y-83216377D01*
X117045432Y-83175440D01*
X116961693Y-83112458D01*
X115258644Y-81409409D01*
X115221221Y-81371986D01*
X115221220Y-81371984D01*
X115109416Y-81260180D01*
X114973328Y-81181610D01*
X114972485Y-81181123D01*
X114963798Y-81178795D01*
X114819758Y-81140199D01*
X114819757Y-81140199D01*
X114661643Y-81140199D01*
X114638717Y-81140199D01*
X114638701Y-81140200D01*
X107474060Y-81140200D01*
X107455422Y-81137090D01*
X107436567Y-81138316D01*
X107395058Y-81127017D01*
X107352622Y-81119936D01*
X107336002Y-81110942D01*
X107317773Y-81105980D01*
X107282184Y-81081817D01*
X107244344Y-81061339D01*
X107231545Y-81047435D01*
X107215914Y-81036823D01*
X107190097Y-81002410D01*
X107160960Y-80970759D01*
X107153369Y-80953455D01*
X107142030Y-80938340D01*
X107128786Y-80897411D01*
X107111504Y-80858012D01*
X107108982Y-80836208D01*
X107104127Y-80821203D01*
X107104249Y-80795280D01*
X107100119Y-80759564D01*
X107100582Y-80733467D01*
X107104500Y-80708731D01*
X107104500Y-80512688D01*
X107104559Y-80509364D01*
X107115167Y-80452074D01*
X107124764Y-80394562D01*
X107126363Y-80391605D01*
X107126975Y-80388305D01*
X107155599Y-80337582D01*
X107183361Y-80286284D01*
X107185834Y-80284007D01*
X107187484Y-80281084D01*
X107231033Y-80242398D01*
X107273941Y-80202900D01*
X107277018Y-80201550D01*
X107279529Y-80199320D01*
X107333295Y-80176864D01*
X107386688Y-80153444D01*
X107390513Y-80152967D01*
X107393136Y-80151872D01*
X107406020Y-80151034D01*
X107478500Y-80142000D01*
X115785500Y-80142000D01*
X115906938Y-80162264D01*
X116015216Y-80220861D01*
X116098600Y-80311441D01*
X116148056Y-80424188D01*
X116159500Y-80516000D01*
X116159500Y-80602357D01*
X116191520Y-80804524D01*
X116191522Y-80804532D01*
X116254780Y-80999221D01*
X116295583Y-81079299D01*
X116347713Y-81181610D01*
X116347717Y-81181615D01*
X116347719Y-81181619D01*
X116468026Y-81347210D01*
X116468036Y-81347221D01*
X116612778Y-81491963D01*
X116612789Y-81491973D01*
X116775242Y-81610000D01*
X116778390Y-81612287D01*
X116903092Y-81675826D01*
X116960778Y-81705219D01*
X116960780Y-81705219D01*
X116960781Y-81705220D01*
X117155466Y-81768477D01*
X117155468Y-81768477D01*
X117155475Y-81768479D01*
X117341552Y-81797950D01*
X117357648Y-81800500D01*
X117562352Y-81800500D01*
X117629746Y-81789825D01*
X117764524Y-81768479D01*
X117764528Y-81768477D01*
X117764534Y-81768477D01*
X117959219Y-81705220D01*
X118141610Y-81612287D01*
X118307219Y-81491966D01*
X118307233Y-81491951D01*
X118308130Y-81491187D01*
X118309073Y-81490619D01*
X118319108Y-81483329D01*
X118319741Y-81484201D01*
X118413628Y-81427721D01*
X118534017Y-81401949D01*
X118656251Y-81416664D01*
X118767085Y-81470270D01*
X118850445Y-81551430D01*
X118892451Y-81607543D01*
X118892456Y-81607548D01*
X119007663Y-81693792D01*
X119007664Y-81693792D01*
X119007669Y-81693796D01*
X119142517Y-81744091D01*
X119202127Y-81750500D01*
X120797872Y-81750499D01*
X120857483Y-81744091D01*
X120992331Y-81693796D01*
X121107546Y-81607546D01*
X121193796Y-81492331D01*
X121206241Y-81458965D01*
X122111363Y-81458965D01*
X122233724Y-81509649D01*
X122233723Y-81509649D01*
X122436583Y-81549999D01*
X122436588Y-81550000D01*
X122643412Y-81550000D01*
X122643416Y-81549999D01*
X122846271Y-81509650D01*
X122968634Y-81458964D01*
X122540000Y-81030330D01*
X122111363Y-81458965D01*
X121206241Y-81458965D01*
X121244091Y-81357483D01*
X121250500Y-81297873D01*
X121250499Y-81296595D01*
X121251072Y-81289297D01*
X121264818Y-81233960D01*
X121277190Y-81178328D01*
X121279628Y-81174346D01*
X121280755Y-81169812D01*
X121311724Y-81121937D01*
X121341489Y-81073336D01*
X121345088Y-81070361D01*
X121347626Y-81066439D01*
X121392466Y-81031211D01*
X121436395Y-80994911D01*
X121440764Y-80993266D01*
X121444439Y-80990380D01*
X121498277Y-80971624D01*
X121551623Y-80951550D01*
X121556292Y-80951413D01*
X121559303Y-80950364D01*
X122009669Y-80499999D01*
X121957009Y-80447339D01*
X122140000Y-80447339D01*
X122140000Y-80552661D01*
X122167259Y-80654394D01*
X122219920Y-80745606D01*
X122294394Y-80820080D01*
X122385606Y-80872741D01*
X122487339Y-80900000D01*
X122592661Y-80900000D01*
X122694394Y-80872741D01*
X122785606Y-80820080D01*
X122860080Y-80745606D01*
X122912741Y-80654394D01*
X122940000Y-80552661D01*
X122940000Y-80499999D01*
X123070330Y-80499999D01*
X123070330Y-80500000D01*
X123498964Y-80928634D01*
X123549650Y-80806271D01*
X123589999Y-80603416D01*
X123590000Y-80603412D01*
X123590000Y-80396587D01*
X123589999Y-80396583D01*
X123549649Y-80193723D01*
X123498965Y-80071364D01*
X123070330Y-80499999D01*
X122940000Y-80499999D01*
X122940000Y-80447339D01*
X122912741Y-80345606D01*
X122860080Y-80254394D01*
X122785606Y-80179920D01*
X122694394Y-80127259D01*
X122592661Y-80100000D01*
X122487339Y-80100000D01*
X122385606Y-80127259D01*
X122294394Y-80179920D01*
X122219920Y-80254394D01*
X122167259Y-80345606D01*
X122140000Y-80447339D01*
X121957009Y-80447339D01*
X121556422Y-80046752D01*
X121537932Y-80041038D01*
X121500894Y-80034686D01*
X121479501Y-80022983D01*
X121456203Y-80015784D01*
X121425845Y-79993631D01*
X121392882Y-79975599D01*
X121376450Y-79957587D01*
X121356750Y-79943211D01*
X121335228Y-79912399D01*
X121309908Y-79884643D01*
X121300215Y-79862272D01*
X121286250Y-79842278D01*
X121275899Y-79806148D01*
X121260963Y-79771674D01*
X121255431Y-79734703D01*
X121252343Y-79723922D01*
X121251072Y-79710701D01*
X121250499Y-79703388D01*
X121250499Y-79702128D01*
X121244091Y-79642517D01*
X121206240Y-79541033D01*
X122111364Y-79541033D01*
X122111364Y-79541034D01*
X122539999Y-79969669D01*
X122968634Y-79541034D01*
X122846272Y-79490350D01*
X122643416Y-79450000D01*
X122436581Y-79450000D01*
X122233730Y-79490348D01*
X122111364Y-79541033D01*
X121206240Y-79541033D01*
X121193796Y-79507669D01*
X121193792Y-79507663D01*
X121107548Y-79392456D01*
X121107543Y-79392451D01*
X120992336Y-79306207D01*
X120992333Y-79306205D01*
X120992331Y-79306204D01*
X120961702Y-79294780D01*
X120857484Y-79255909D01*
X120857479Y-79255908D01*
X120797874Y-79249500D01*
X119202131Y-79249500D01*
X119142517Y-79255909D01*
X119007671Y-79306203D01*
X119007663Y-79306207D01*
X118892456Y-79392451D01*
X118892452Y-79392455D01*
X118850444Y-79448571D01*
X118761446Y-79533642D01*
X118649647Y-79585206D01*
X118527164Y-79597675D01*
X118407268Y-79569698D01*
X118319667Y-79515900D01*
X118319108Y-79516671D01*
X118309200Y-79509472D01*
X118308144Y-79508824D01*
X118307213Y-79508029D01*
X118141619Y-79387719D01*
X118141615Y-79387717D01*
X118141610Y-79387713D01*
X118043262Y-79337602D01*
X117959221Y-79294780D01*
X117764532Y-79231522D01*
X117764524Y-79231520D01*
X117562357Y-79199500D01*
X117562352Y-79199500D01*
X117357648Y-79199500D01*
X117271339Y-79213170D01*
X117244658Y-79217396D01*
X117121545Y-79216377D01*
X117005434Y-79175440D01*
X116962443Y-79147717D01*
X116940794Y-79131558D01*
X116870216Y-79060980D01*
X116783404Y-79010860D01*
X116764342Y-78999854D01*
X116764339Y-78999852D01*
X116733287Y-78981924D01*
X116733286Y-78981923D01*
X116733285Y-78981923D01*
X116580557Y-78940999D01*
X116422443Y-78940999D01*
X116399517Y-78940999D01*
X116399501Y-78941000D01*
X113805421Y-78941000D01*
X113683983Y-78920736D01*
X113650078Y-78902387D01*
X113621591Y-78910984D01*
X113594992Y-78924330D01*
X113559716Y-78929655D01*
X113532221Y-78937953D01*
X113510239Y-78937125D01*
X113484579Y-78941000D01*
X87449157Y-78941000D01*
X87291043Y-78941000D01*
X87291041Y-78941000D01*
X87291036Y-78941001D01*
X87138319Y-78981921D01*
X87138313Y-78981923D01*
X87119519Y-78992774D01*
X87119515Y-78992776D01*
X87088195Y-79010860D01*
X87001384Y-79060980D01*
X86889580Y-79172784D01*
X86889578Y-79172786D01*
X86733235Y-79329129D01*
X86723505Y-79337602D01*
X86681908Y-79363166D01*
X86642166Y-79391542D01*
X86627903Y-79396356D01*
X86618614Y-79402065D01*
X86595942Y-79407143D01*
X86550870Y-79422357D01*
X86469907Y-79438461D01*
X86324222Y-79498805D01*
X86193110Y-79586411D01*
X86193110Y-79586412D01*
X86081612Y-79697910D01*
X86081611Y-79697910D01*
X85994005Y-79829022D01*
X85959470Y-79912399D01*
X85933663Y-79974703D01*
X85902900Y-80129358D01*
X85902900Y-80287042D01*
X85933663Y-80441697D01*
X85994006Y-80587379D01*
X86037935Y-80653123D01*
X86081611Y-80718489D01*
X86132885Y-80769763D01*
X86204425Y-80869961D01*
X86239555Y-80987960D01*
X86234467Y-81110972D01*
X86189713Y-81225666D01*
X86132885Y-81298679D01*
X85448962Y-81982602D01*
X85348764Y-82054142D01*
X85257470Y-82084957D01*
X85176507Y-82101062D01*
X85176506Y-82101062D01*
X85176503Y-82101063D01*
X85099499Y-82132958D01*
X85030822Y-82161405D01*
X84899710Y-82249011D01*
X84899710Y-82249012D01*
X84788212Y-82360510D01*
X84788211Y-82360510D01*
X84700605Y-82491622D01*
X84660713Y-82587932D01*
X84640263Y-82637303D01*
X84609500Y-82791958D01*
X84609500Y-82949642D01*
X84640263Y-83104297D01*
X84648452Y-83124066D01*
X84700407Y-83249500D01*
X84700606Y-83249979D01*
X84755909Y-83332745D01*
X84788211Y-83381089D01*
X84902535Y-83495413D01*
X84974075Y-83595611D01*
X85009205Y-83713610D01*
X85004117Y-83836622D01*
X84959363Y-83951316D01*
X84902535Y-84024329D01*
X78561907Y-90364958D01*
X78461709Y-90436498D01*
X78343710Y-90471628D01*
X78297449Y-90474500D01*
X64406733Y-90474500D01*
X64389721Y-90471661D01*
X64372523Y-90472932D01*
X64329340Y-90461585D01*
X64285295Y-90454236D01*
X64270126Y-90446027D01*
X64253448Y-90441645D01*
X64216290Y-90416892D01*
X64177017Y-90395639D01*
X64162700Y-90381193D01*
X64150984Y-90373389D01*
X64132562Y-90350785D01*
X64109556Y-90327572D01*
X64090529Y-90302671D01*
X64083343Y-90288567D01*
X63944517Y-90097490D01*
X63898878Y-90051851D01*
X63883765Y-90032072D01*
X63866445Y-89999375D01*
X63844944Y-89969260D01*
X63837820Y-89945334D01*
X63826137Y-89923276D01*
X63820372Y-89886727D01*
X63809814Y-89851261D01*
X63810845Y-89826318D01*
X63806957Y-89801662D01*
X63813372Y-89765219D01*
X63814902Y-89728249D01*
X63823975Y-89704995D01*
X63828304Y-89680410D01*
X63846206Y-89648023D01*
X63859656Y-89613555D01*
X63878991Y-89588712D01*
X63887865Y-89572660D01*
X63900087Y-89561608D01*
X63916480Y-89540546D01*
X63944517Y-89512510D01*
X64083343Y-89321433D01*
X64190568Y-89110992D01*
X64263553Y-88886368D01*
X64300500Y-88653092D01*
X64300500Y-88416908D01*
X64263553Y-88183632D01*
X64190568Y-87959008D01*
X64083343Y-87748567D01*
X63944517Y-87557490D01*
X63916481Y-87529454D01*
X63844944Y-87429260D01*
X63809814Y-87311261D01*
X63814902Y-87188249D01*
X63859656Y-87073555D01*
X63916480Y-87000546D01*
X63944517Y-86972510D01*
X64083343Y-86781433D01*
X64190568Y-86570992D01*
X64263553Y-86346368D01*
X64300500Y-86113092D01*
X64300500Y-85876908D01*
X64263553Y-85643632D01*
X64190568Y-85419008D01*
X64083343Y-85208567D01*
X63944517Y-85017490D01*
X63916481Y-84989454D01*
X63844944Y-84889260D01*
X63809814Y-84771261D01*
X63814902Y-84648249D01*
X63859656Y-84533555D01*
X63916480Y-84460546D01*
X63944517Y-84432510D01*
X64083343Y-84241433D01*
X64190568Y-84030992D01*
X64263553Y-83806368D01*
X64300500Y-83573092D01*
X64300500Y-83336908D01*
X64263553Y-83103632D01*
X64190568Y-82879008D01*
X64083343Y-82668567D01*
X63954784Y-82491621D01*
X63944520Y-82477494D01*
X63944519Y-82477493D01*
X63944517Y-82477490D01*
X63777510Y-82310483D01*
X63777506Y-82310480D01*
X63777505Y-82310479D01*
X63692901Y-82249011D01*
X63586433Y-82171657D01*
X63375992Y-82064432D01*
X63151368Y-81991447D01*
X62918092Y-81954500D01*
X62681908Y-81954500D01*
X62448632Y-81991447D01*
X62411762Y-82003427D01*
X62224005Y-82064433D01*
X62134576Y-82110000D01*
X62013567Y-82171657D01*
X62013564Y-82171658D01*
X62013564Y-82171659D01*
X61822494Y-82310479D01*
X61655479Y-82477494D01*
X61521593Y-82661773D01*
X61516657Y-82668567D01*
X61475349Y-82749639D01*
X61409433Y-82879005D01*
X61409432Y-82879007D01*
X61409432Y-82879008D01*
X61336447Y-83103632D01*
X61299500Y-83336908D01*
X61299500Y-83573092D01*
X61336447Y-83806368D01*
X61409432Y-84030992D01*
X61516657Y-84241433D01*
X61579697Y-84328200D01*
X61655481Y-84432508D01*
X61655484Y-84432512D01*
X61683518Y-84460546D01*
X61755057Y-84560745D01*
X61790185Y-84678744D01*
X61785096Y-84801755D01*
X61740341Y-84916449D01*
X61683518Y-84989454D01*
X61655484Y-85017487D01*
X61655481Y-85017491D01*
X61516659Y-85208564D01*
X61516657Y-85208567D01*
X61479659Y-85281179D01*
X61409433Y-85419005D01*
X61409432Y-85419007D01*
X61409432Y-85419008D01*
X61336447Y-85643632D01*
X61299500Y-85876908D01*
X61299500Y-86113092D01*
X61336447Y-86346368D01*
X61409432Y-86570992D01*
X61516657Y-86781433D01*
X61571016Y-86856251D01*
X61655481Y-86972508D01*
X61655484Y-86972512D01*
X61683518Y-87000546D01*
X61755057Y-87100745D01*
X61790185Y-87218744D01*
X61785096Y-87341755D01*
X61740341Y-87456449D01*
X61683518Y-87529454D01*
X61655484Y-87557487D01*
X61655481Y-87557491D01*
X61526730Y-87734703D01*
X61516657Y-87748567D01*
X61480108Y-87820299D01*
X61409433Y-87959005D01*
X61409432Y-87959007D01*
X61409432Y-87959008D01*
X61336447Y-88183632D01*
X61299500Y-88416908D01*
X61299500Y-88653092D01*
X61336447Y-88886368D01*
X61409432Y-89110992D01*
X61516657Y-89321433D01*
X61585847Y-89416664D01*
X61655481Y-89512508D01*
X61655484Y-89512512D01*
X61683518Y-89540546D01*
X61755057Y-89640745D01*
X61790185Y-89758744D01*
X61785096Y-89881755D01*
X61740341Y-89996449D01*
X61683518Y-90069454D01*
X61655484Y-90097487D01*
X61655481Y-90097491D01*
X61519103Y-90285200D01*
X61516657Y-90288567D01*
X61479659Y-90361179D01*
X61409433Y-90499005D01*
X61409432Y-90499007D01*
X61409432Y-90499008D01*
X61336447Y-90723632D01*
X61299500Y-90956908D01*
X61299500Y-91193092D01*
X61336447Y-91426368D01*
X61409432Y-91650992D01*
X61516657Y-91861433D01*
X61571016Y-91936251D01*
X61655481Y-92052508D01*
X61655484Y-92052512D01*
X61683518Y-92080546D01*
X61755057Y-92180745D01*
X61790185Y-92298744D01*
X61785096Y-92421755D01*
X61740341Y-92536449D01*
X61683518Y-92609454D01*
X61655484Y-92637487D01*
X61655481Y-92637491D01*
X61522823Y-92820080D01*
X61516657Y-92828567D01*
X61494149Y-92872741D01*
X61409433Y-93039005D01*
X61409432Y-93039007D01*
X61409432Y-93039008D01*
X61336447Y-93263632D01*
X61299500Y-93496908D01*
X61299500Y-93733092D01*
X61336447Y-93966368D01*
X61409432Y-94190992D01*
X61516657Y-94401433D01*
X61586070Y-94496971D01*
X61655481Y-94592508D01*
X61655484Y-94592512D01*
X61683518Y-94620546D01*
X61755057Y-94720745D01*
X61790185Y-94838744D01*
X61785096Y-94961755D01*
X61740341Y-95076449D01*
X61683518Y-95149454D01*
X61655484Y-95177487D01*
X61655481Y-95177491D01*
X61516751Y-95368437D01*
X61516657Y-95368567D01*
X61479659Y-95441179D01*
X61409433Y-95579005D01*
X61409432Y-95579007D01*
X61409432Y-95579008D01*
X61336447Y-95803632D01*
X61299500Y-96036908D01*
X61299500Y-96273092D01*
X61314602Y-96368444D01*
X61336447Y-96506370D01*
X61338458Y-96514744D01*
X61347103Y-96637557D01*
X61315403Y-96756523D01*
X61246792Y-96858749D01*
X61239250Y-96866513D01*
X59425807Y-98679958D01*
X59381907Y-98711301D01*
X59339353Y-98744423D01*
X59331966Y-98746958D01*
X59325609Y-98751498D01*
X59273912Y-98766888D01*
X59222907Y-98784399D01*
X59212084Y-98785295D01*
X59207610Y-98786628D01*
X59161349Y-98789500D01*
X58955105Y-98789500D01*
X58833667Y-98769236D01*
X58725389Y-98710639D01*
X58642005Y-98620059D01*
X58604685Y-98546197D01*
X58598090Y-98528515D01*
X58547796Y-98393669D01*
X58547792Y-98393663D01*
X58461548Y-98278456D01*
X58461543Y-98278451D01*
X58368059Y-98208469D01*
X58282987Y-98119472D01*
X58231423Y-98007673D01*
X58218953Y-97885190D01*
X58246929Y-97765294D01*
X58299346Y-97679943D01*
X58298242Y-97679141D01*
X58422941Y-97507505D01*
X58422944Y-97507501D01*
X58512591Y-97331561D01*
X58573610Y-97143763D01*
X58604500Y-96948731D01*
X58604500Y-96751269D01*
X58573610Y-96556237D01*
X58539254Y-96450500D01*
X58512593Y-96368444D01*
X58512592Y-96368442D01*
X58512591Y-96368439D01*
X58422944Y-96192499D01*
X58422941Y-96192494D01*
X58306886Y-96032756D01*
X58306876Y-96032745D01*
X58167253Y-95893122D01*
X58167252Y-95893121D01*
X58152734Y-95882573D01*
X58066403Y-95794805D01*
X58013244Y-95683756D01*
X57999024Y-95561463D01*
X58025282Y-95441179D01*
X58089174Y-95335939D01*
X58152733Y-95277427D01*
X58167252Y-95266879D01*
X58306879Y-95127252D01*
X58343790Y-95076449D01*
X58422941Y-94967505D01*
X58422944Y-94967501D01*
X58512591Y-94791561D01*
X58573610Y-94603763D01*
X58604500Y-94408731D01*
X58604500Y-94211269D01*
X58573610Y-94016237D01*
X58512591Y-93828439D01*
X58422944Y-93652499D01*
X58422941Y-93652494D01*
X58306886Y-93492756D01*
X58306876Y-93492745D01*
X58167253Y-93353122D01*
X58167252Y-93353121D01*
X58152734Y-93342573D01*
X58066403Y-93254805D01*
X58013244Y-93143756D01*
X57999024Y-93021463D01*
X58025282Y-92901179D01*
X58089174Y-92795939D01*
X58152733Y-92737427D01*
X58167252Y-92726879D01*
X58306879Y-92587252D01*
X58343790Y-92536449D01*
X58422941Y-92427505D01*
X58422944Y-92427501D01*
X58512591Y-92251561D01*
X58573610Y-92063763D01*
X58604500Y-91868731D01*
X58604500Y-91671269D01*
X58573610Y-91476237D01*
X58518363Y-91306202D01*
X58512593Y-91288444D01*
X58512592Y-91288442D01*
X58512591Y-91288439D01*
X58422944Y-91112499D01*
X58422941Y-91112494D01*
X58306886Y-90952756D01*
X58306876Y-90952745D01*
X58167253Y-90813122D01*
X58167252Y-90813121D01*
X58152734Y-90802573D01*
X58066403Y-90714805D01*
X58013244Y-90603756D01*
X57999024Y-90481463D01*
X58025282Y-90361179D01*
X58089174Y-90255939D01*
X58152733Y-90197427D01*
X58167252Y-90186879D01*
X58306879Y-90047252D01*
X58341664Y-89999375D01*
X58422941Y-89887505D01*
X58422944Y-89887501D01*
X58512591Y-89711561D01*
X58573610Y-89523763D01*
X58604500Y-89328731D01*
X58604500Y-89131269D01*
X58573610Y-88936237D01*
X58542107Y-88839282D01*
X58512593Y-88748444D01*
X58512592Y-88748442D01*
X58512591Y-88748439D01*
X58422944Y-88572499D01*
X58422941Y-88572494D01*
X58306886Y-88412756D01*
X58306876Y-88412745D01*
X58167254Y-88273123D01*
X58167243Y-88273113D01*
X58007505Y-88157058D01*
X57996489Y-88151445D01*
X57921855Y-88113416D01*
X57822856Y-88040230D01*
X57752982Y-87938862D01*
X57719809Y-87820299D01*
X57724837Y-87707219D01*
X57743427Y-87613757D01*
X57350000Y-87220330D01*
X56956570Y-87613758D01*
X56975161Y-87707220D01*
X56978977Y-87830278D01*
X56942629Y-87947907D01*
X56870057Y-88047360D01*
X56778144Y-88113416D01*
X56692500Y-88157054D01*
X56692494Y-88157058D01*
X56532756Y-88273113D01*
X56532745Y-88273123D01*
X56393123Y-88412745D01*
X56393113Y-88412756D01*
X56277058Y-88572494D01*
X56277058Y-88572495D01*
X56187410Y-88748437D01*
X56187406Y-88748444D01*
X56126392Y-88936229D01*
X56126390Y-88936234D01*
X56126390Y-88936237D01*
X56095500Y-89131269D01*
X56095500Y-89328731D01*
X56126390Y-89523761D01*
X56126392Y-89523770D01*
X56187406Y-89711555D01*
X56187408Y-89711559D01*
X56187409Y-89711561D01*
X56276662Y-89886727D01*
X56277058Y-89887504D01*
X56277058Y-89887505D01*
X56393113Y-90047243D01*
X56393120Y-90047251D01*
X56393121Y-90047252D01*
X56532748Y-90186879D01*
X56532751Y-90186881D01*
X56547266Y-90197427D01*
X56633600Y-90285200D01*
X56686757Y-90396251D01*
X56700975Y-90518544D01*
X56674714Y-90638827D01*
X56610821Y-90744066D01*
X56547266Y-90802573D01*
X56532751Y-90813118D01*
X56532745Y-90813123D01*
X56393123Y-90952745D01*
X56393113Y-90952756D01*
X56277058Y-91112494D01*
X56277058Y-91112495D01*
X56187410Y-91288437D01*
X56187406Y-91288444D01*
X56126392Y-91476229D01*
X56126390Y-91476234D01*
X56126390Y-91476237D01*
X56095500Y-91671269D01*
X56095500Y-91868731D01*
X56125974Y-92061137D01*
X56126390Y-92063761D01*
X56126392Y-92063770D01*
X56187406Y-92251555D01*
X56187408Y-92251559D01*
X56187409Y-92251561D01*
X56277056Y-92427501D01*
X56277058Y-92427504D01*
X56277058Y-92427505D01*
X56393113Y-92587243D01*
X56393120Y-92587251D01*
X56393121Y-92587252D01*
X56532748Y-92726879D01*
X56532751Y-92726881D01*
X56547266Y-92737427D01*
X56633600Y-92825200D01*
X56686757Y-92936251D01*
X56700975Y-93058544D01*
X56674714Y-93178827D01*
X56610821Y-93284066D01*
X56547266Y-93342573D01*
X56532751Y-93353118D01*
X56532745Y-93353123D01*
X56393123Y-93492745D01*
X56393113Y-93492756D01*
X56277058Y-93652494D01*
X56277058Y-93652495D01*
X56187410Y-93828437D01*
X56187406Y-93828444D01*
X56126392Y-94016229D01*
X56126390Y-94016234D01*
X56126390Y-94016237D01*
X56098712Y-94190994D01*
X56095500Y-94211272D01*
X56095500Y-94408729D01*
X56096653Y-94423379D01*
X56094689Y-94423533D01*
X56093824Y-94527720D01*
X56052883Y-94643830D01*
X55976458Y-94740355D01*
X55872834Y-94806835D01*
X55753237Y-94836066D01*
X55725449Y-94837100D01*
X46400302Y-94837100D01*
X46389167Y-94835242D01*
X46377943Y-94836431D01*
X46328701Y-94825152D01*
X46278864Y-94816836D01*
X46266253Y-94810848D01*
X46257934Y-94808943D01*
X46222862Y-94790246D01*
X46202952Y-94780793D01*
X46197674Y-94777514D01*
X46123879Y-94728206D01*
X46107128Y-94721267D01*
X46081150Y-94705130D01*
X46057563Y-94684392D01*
X46030922Y-94667760D01*
X46011650Y-94644025D01*
X45988688Y-94623837D01*
X45973111Y-94596562D01*
X45953316Y-94572183D01*
X45942795Y-94543477D01*
X45927632Y-94516927D01*
X45921756Y-94486074D01*
X45910948Y-94456586D01*
X45905967Y-94403174D01*
X45904598Y-94395984D01*
X45905021Y-94393031D01*
X45904500Y-94387437D01*
X45904500Y-94211272D01*
X45904500Y-94211269D01*
X45873610Y-94016237D01*
X45812591Y-93828439D01*
X45722944Y-93652499D01*
X45722941Y-93652494D01*
X45606886Y-93492756D01*
X45606876Y-93492745D01*
X45467253Y-93353122D01*
X45467252Y-93353121D01*
X45452734Y-93342573D01*
X45366403Y-93254805D01*
X45313244Y-93143756D01*
X45299024Y-93021463D01*
X45325282Y-92901179D01*
X45389174Y-92795939D01*
X45452733Y-92737427D01*
X45467252Y-92726879D01*
X45606879Y-92587252D01*
X45643790Y-92536449D01*
X45722941Y-92427505D01*
X45722944Y-92427501D01*
X45812591Y-92251561D01*
X45873610Y-92063763D01*
X45904500Y-91868731D01*
X45904500Y-91671269D01*
X45873610Y-91476237D01*
X45818363Y-91306202D01*
X45812593Y-91288444D01*
X45812592Y-91288442D01*
X45812591Y-91288439D01*
X45722944Y-91112499D01*
X45722941Y-91112494D01*
X45606886Y-90952756D01*
X45606876Y-90952745D01*
X45467253Y-90813122D01*
X45467252Y-90813121D01*
X45452734Y-90802573D01*
X45366403Y-90714805D01*
X45313244Y-90603756D01*
X45299024Y-90481463D01*
X45325282Y-90361179D01*
X45389174Y-90255939D01*
X45452733Y-90197427D01*
X45467252Y-90186879D01*
X45606879Y-90047252D01*
X45641664Y-89999375D01*
X45722941Y-89887505D01*
X45722944Y-89887501D01*
X45812591Y-89711561D01*
X45873610Y-89523763D01*
X45904500Y-89328731D01*
X45904500Y-89131269D01*
X45873610Y-88936237D01*
X45842107Y-88839282D01*
X45812593Y-88748444D01*
X45812592Y-88748442D01*
X45812591Y-88748439D01*
X45722944Y-88572499D01*
X45722941Y-88572494D01*
X45606886Y-88412756D01*
X45606876Y-88412745D01*
X45467253Y-88273122D01*
X45467252Y-88273121D01*
X45452734Y-88262573D01*
X45366403Y-88174805D01*
X45313244Y-88063756D01*
X45299024Y-87941463D01*
X45325282Y-87821179D01*
X45389174Y-87715939D01*
X45452733Y-87657427D01*
X45467252Y-87646879D01*
X45606879Y-87507252D01*
X45619161Y-87490348D01*
X45722941Y-87347505D01*
X45722944Y-87347501D01*
X45812591Y-87171561D01*
X45873610Y-86983763D01*
X45904500Y-86788731D01*
X45904500Y-86591269D01*
X45904476Y-86591118D01*
X56346000Y-86591118D01*
X56346000Y-86788883D01*
X56384583Y-86982854D01*
X56426241Y-87083427D01*
X56819669Y-86689999D01*
X56753844Y-86624174D01*
X56850000Y-86624174D01*
X56850000Y-86755826D01*
X56884075Y-86882993D01*
X56949901Y-86997007D01*
X57042993Y-87090099D01*
X57157007Y-87155925D01*
X57284174Y-87190000D01*
X57415826Y-87190000D01*
X57542993Y-87155925D01*
X57657007Y-87090099D01*
X57750099Y-86997007D01*
X57815925Y-86882993D01*
X57850000Y-86755826D01*
X57850000Y-86690000D01*
X57880330Y-86690000D01*
X58273758Y-87083428D01*
X58315416Y-86982858D01*
X58353999Y-86788883D01*
X58354000Y-86788883D01*
X58354000Y-86591117D01*
X58353999Y-86591116D01*
X58315416Y-86397145D01*
X58273757Y-86296571D01*
X57880330Y-86690000D01*
X57850000Y-86690000D01*
X57850000Y-86624174D01*
X57815925Y-86497007D01*
X57750099Y-86382993D01*
X57657007Y-86289901D01*
X57542993Y-86224075D01*
X57415826Y-86190000D01*
X57284174Y-86190000D01*
X57157007Y-86224075D01*
X57042993Y-86289901D01*
X56949901Y-86382993D01*
X56884075Y-86497007D01*
X56850000Y-86624174D01*
X56753844Y-86624174D01*
X56426241Y-86296571D01*
X56384584Y-86397141D01*
X56346000Y-86591118D01*
X45904476Y-86591118D01*
X45873610Y-86396237D01*
X45841227Y-86296571D01*
X45812593Y-86208444D01*
X45812592Y-86208442D01*
X45812591Y-86208439D01*
X45722944Y-86032499D01*
X45722941Y-86032494D01*
X45606886Y-85872756D01*
X45606876Y-85872745D01*
X45467253Y-85733122D01*
X45467252Y-85733121D01*
X45452734Y-85722573D01*
X45366403Y-85634805D01*
X45313244Y-85523756D01*
X45299024Y-85401463D01*
X45325282Y-85281179D01*
X45389174Y-85175939D01*
X45452733Y-85117427D01*
X45467252Y-85106879D01*
X45606879Y-84967252D01*
X45631481Y-84933391D01*
X45722941Y-84807505D01*
X45722944Y-84807501D01*
X45812591Y-84631561D01*
X45873610Y-84443763D01*
X45904500Y-84248731D01*
X45904500Y-84051269D01*
X45873610Y-83856237D01*
X45834121Y-83734703D01*
X45812593Y-83668444D01*
X45812592Y-83668442D01*
X45812591Y-83668439D01*
X45722944Y-83492499D01*
X45722941Y-83492494D01*
X45606886Y-83332756D01*
X45606876Y-83332745D01*
X45467254Y-83193123D01*
X45467243Y-83193113D01*
X45307505Y-83077058D01*
X45298619Y-83072530D01*
X45221855Y-83033416D01*
X45122856Y-82960230D01*
X45052982Y-82858862D01*
X45019809Y-82740299D01*
X45024837Y-82627219D01*
X45043427Y-82533757D01*
X44650000Y-82140330D01*
X44256570Y-82533758D01*
X44275161Y-82627220D01*
X44278977Y-82750278D01*
X44242629Y-82867907D01*
X44170057Y-82967360D01*
X44078144Y-83033416D01*
X43992500Y-83077054D01*
X43992494Y-83077058D01*
X43832756Y-83193113D01*
X43832745Y-83193123D01*
X43693123Y-83332745D01*
X43693113Y-83332756D01*
X43577058Y-83492494D01*
X43577058Y-83492495D01*
X43487410Y-83668437D01*
X43487406Y-83668444D01*
X43426392Y-83856229D01*
X43426390Y-83856234D01*
X43426390Y-83856237D01*
X43395500Y-84051269D01*
X38005809Y-84051269D01*
X38006706Y-81511118D01*
X43646000Y-81511118D01*
X43646000Y-81708883D01*
X43684583Y-81902854D01*
X43726241Y-82003427D01*
X44119669Y-81609999D01*
X44053844Y-81544174D01*
X44150000Y-81544174D01*
X44150000Y-81675826D01*
X44184075Y-81802993D01*
X44249901Y-81917007D01*
X44342993Y-82010099D01*
X44457007Y-82075925D01*
X44584174Y-82110000D01*
X44715826Y-82110000D01*
X44842993Y-82075925D01*
X44957007Y-82010099D01*
X45050099Y-81917007D01*
X45115925Y-81802993D01*
X45150000Y-81675826D01*
X45150000Y-81610000D01*
X45180330Y-81610000D01*
X45573758Y-82003428D01*
X45615416Y-81902858D01*
X45653999Y-81708883D01*
X45654000Y-81708883D01*
X45654000Y-81511269D01*
X56095500Y-81511269D01*
X56095500Y-81708731D01*
X56110035Y-81800499D01*
X56126390Y-81903761D01*
X56126392Y-81903770D01*
X56187406Y-82091555D01*
X56187408Y-82091559D01*
X56187409Y-82091561D01*
X56277056Y-82267501D01*
X56277058Y-82267504D01*
X56277058Y-82267505D01*
X56393113Y-82427243D01*
X56393120Y-82427251D01*
X56393121Y-82427252D01*
X56532748Y-82566879D01*
X56532751Y-82566881D01*
X56547266Y-82577427D01*
X56633600Y-82665200D01*
X56686757Y-82776251D01*
X56700975Y-82898544D01*
X56674714Y-83018827D01*
X56610821Y-83124066D01*
X56547266Y-83182573D01*
X56532751Y-83193118D01*
X56532745Y-83193123D01*
X56393123Y-83332745D01*
X56393113Y-83332756D01*
X56277058Y-83492494D01*
X56277058Y-83492495D01*
X56187410Y-83668437D01*
X56187406Y-83668444D01*
X56126392Y-83856229D01*
X56126390Y-83856234D01*
X56126390Y-83856237D01*
X56095500Y-84051269D01*
X56095500Y-84248731D01*
X56124608Y-84432510D01*
X56126390Y-84443761D01*
X56126392Y-84443770D01*
X56187406Y-84631555D01*
X56187408Y-84631559D01*
X56187409Y-84631561D01*
X56276825Y-84807047D01*
X56277058Y-84807504D01*
X56277058Y-84807505D01*
X56393113Y-84967243D01*
X56393123Y-84967254D01*
X56532745Y-85106876D01*
X56532756Y-85106886D01*
X56692494Y-85222941D01*
X56692496Y-85222942D01*
X56692499Y-85222944D01*
X56778142Y-85266581D01*
X56877142Y-85339769D01*
X56947016Y-85441137D01*
X56980189Y-85559700D01*
X56975161Y-85672780D01*
X56956570Y-85766240D01*
X57349999Y-86159669D01*
X57743427Y-85766241D01*
X57724837Y-85672782D01*
X57721021Y-85549724D01*
X57757368Y-85432095D01*
X57829939Y-85332641D01*
X57921856Y-85266582D01*
X58007501Y-85222944D01*
X58045528Y-85195316D01*
X58167243Y-85106886D01*
X58167249Y-85106881D01*
X58167252Y-85106879D01*
X58306879Y-84967252D01*
X58331481Y-84933391D01*
X58422941Y-84807505D01*
X58422944Y-84807501D01*
X58512591Y-84631561D01*
X58573610Y-84443763D01*
X58604500Y-84248731D01*
X58604500Y-84051269D01*
X58573610Y-83856237D01*
X58534121Y-83734703D01*
X58512593Y-83668444D01*
X58512592Y-83668442D01*
X58512591Y-83668439D01*
X58422944Y-83492499D01*
X58422941Y-83492494D01*
X58306886Y-83332756D01*
X58306876Y-83332745D01*
X58167253Y-83193122D01*
X58167252Y-83193121D01*
X58152734Y-83182573D01*
X58066403Y-83094805D01*
X58013244Y-82983756D01*
X57999024Y-82861463D01*
X58025282Y-82741179D01*
X58089174Y-82635939D01*
X58152733Y-82577427D01*
X58167252Y-82566879D01*
X58306879Y-82427252D01*
X58315503Y-82415383D01*
X58422941Y-82267505D01*
X58422944Y-82267501D01*
X58512591Y-82091561D01*
X58573610Y-81903763D01*
X58604500Y-81708731D01*
X58604500Y-81511269D01*
X58573610Y-81316237D01*
X58541227Y-81216571D01*
X58512593Y-81128444D01*
X58512592Y-81128442D01*
X58512591Y-81128439D01*
X58422944Y-80952499D01*
X58422941Y-80952494D01*
X58306886Y-80792756D01*
X58306876Y-80792745D01*
X58167254Y-80653123D01*
X58167243Y-80653113D01*
X58007505Y-80537058D01*
X57840716Y-80452074D01*
X57831561Y-80447409D01*
X57831559Y-80447408D01*
X57831555Y-80447406D01*
X57643770Y-80386392D01*
X57643767Y-80386391D01*
X57643763Y-80386390D01*
X57448731Y-80355500D01*
X57251269Y-80355500D01*
X57056237Y-80386390D01*
X57056234Y-80386390D01*
X57056229Y-80386392D01*
X56868444Y-80447406D01*
X56868437Y-80447410D01*
X56692495Y-80537058D01*
X56692494Y-80537058D01*
X56532756Y-80653113D01*
X56532745Y-80653123D01*
X56393123Y-80792745D01*
X56393113Y-80792756D01*
X56277058Y-80952494D01*
X56277058Y-80952495D01*
X56187410Y-81128437D01*
X56187406Y-81128444D01*
X56126392Y-81316229D01*
X56126390Y-81316234D01*
X56126390Y-81316237D01*
X56095500Y-81511269D01*
X45654000Y-81511269D01*
X45654000Y-81511117D01*
X45653999Y-81511116D01*
X45615416Y-81317145D01*
X45573757Y-81216571D01*
X45180330Y-81610000D01*
X45150000Y-81610000D01*
X45150000Y-81544174D01*
X45115925Y-81417007D01*
X45050099Y-81302993D01*
X44957007Y-81209901D01*
X44842993Y-81144075D01*
X44715826Y-81110000D01*
X44584174Y-81110000D01*
X44457007Y-81144075D01*
X44342993Y-81209901D01*
X44249901Y-81302993D01*
X44184075Y-81417007D01*
X44150000Y-81544174D01*
X44053844Y-81544174D01*
X43726241Y-81216571D01*
X43684584Y-81317141D01*
X43646000Y-81511118D01*
X38006706Y-81511118D01*
X38006997Y-80686241D01*
X44256571Y-80686241D01*
X44649999Y-81079669D01*
X45043427Y-80686241D01*
X44942854Y-80644583D01*
X44748883Y-80606000D01*
X44551118Y-80606000D01*
X44357141Y-80644584D01*
X44256571Y-80686241D01*
X38006997Y-80686241D01*
X38008344Y-76874367D01*
X38028651Y-76752937D01*
X38087287Y-76644680D01*
X38177896Y-76561327D01*
X38290661Y-76511912D01*
X38382344Y-76500500D01*
X64461979Y-76500500D01*
X64488755Y-76504968D01*
G37*
G04 #@! TD.AperFunction*
M02*
