M48
INCH,TZ
T1C0.0118
T2C0.0276
T3C0.0315
T4C0.0394
T5C0.0402
%
G90
G05
T1
X21511Y-47588
T2
X36008Y-31299
X38008Y-31299
T3
X42520Y-41929
X42520Y-42717
T4
X15945Y-34130
X15945Y-35130
X15945Y-36130
X15945Y-37130
X15945Y-42504
X15945Y-43504
X15945Y-44504
X15945Y-45504
X17579Y-32130
X17579Y-33130
X17579Y-34130
X17579Y-35130
X17579Y-36130
X17579Y-37130
X17579Y-38130
X17579Y-39130
X17579Y-40594
X17579Y-41594
X17579Y-42594
X17579Y-43594
X17579Y-44594
X17579Y-45594
X17579Y-46594
X17579Y-47594
X22579Y-32130
X22579Y-33130
X22579Y-34130
X22579Y-35130
X22579Y-36130
X22579Y-37130
X22579Y-38130
X22579Y-39130
X22579Y-40594
X22579Y-41594
X22579Y-42594
X22579Y-43594
X22579Y-44594
X22579Y-45594
X22579Y-46594
X22579Y-47594
X36673Y-32917
X36673Y-33917
X36673Y-34917
X36673Y-35917
X36673Y-36917
X36673Y-37917
X36673Y-38917
X36673Y-39917
X37386Y-41725
X38386Y-41725
X39386Y-41725
X41673Y-32917
X41673Y-33917
X41673Y-34917
X41673Y-35917
X41673Y-36917
X41673Y-37917
X41673Y-38917
X41673Y-39917
X43307Y-34917
X43307Y-35917
X43307Y-36917
X43307Y-37917
T5
X24724Y-32856
X24724Y-33856
X24724Y-34856
X24724Y-35856
X24724Y-36856
X24724Y-37856
X24724Y-38856
X24724Y-39856
X24724Y-40856
X24724Y-41856
X24724Y-42856
X24724Y-43856
X24724Y-44856
X24724Y-45856
X24724Y-46856
X34724Y-32856
X34724Y-33856
X34724Y-34856
X34724Y-35856
X34724Y-36856
X34724Y-37856
X34724Y-38856
X34724Y-39856
X34724Y-40856
X34724Y-41856
X34724Y-42856
X34724Y-43856
X34724Y-44856
X34724Y-45856
X34724Y-46856
T4
G00X39961Y-45079
M15
G01X40748Y-45079
M16
G05
G00X39961Y-47441
M15
G01X40748Y-47441
M16
G05
G00X42205Y-46654
M15
G01X42205Y-45866
M16
G05
M30
