M48
INCH,TZ
T1C0.0118
T2C0.0315
T3C0.0394
T4C0.0402
%
G90
G05
T1
X18010Y-37574
X25161Y-44356
X25793Y-30473
X25945Y-44087
X26240Y-45365
X30616Y-47691
X32957Y-41832
X32970Y-43801
X33626Y-32626
X33732Y-42189
X33945Y-44857
X34135Y-31578
X34244Y-45443
X37113Y-41123
X44742Y-30473
T2
X46244Y-31693
X46244Y-34843
X46244Y-36417
X46260Y-33268
X47244Y-31693
X47244Y-34843
X47244Y-36417
X47260Y-33268
X48244Y-31693
X48244Y-34843
X48244Y-36417
X48260Y-33268
T3
X15945Y-34130
X15945Y-35130
X15945Y-36130
X15945Y-37130
X15945Y-42504
X15945Y-43504
X15945Y-44504
X15945Y-45504
X17579Y-32130
X17579Y-33130
X17579Y-34130
X17579Y-35130
X17579Y-36130
X17579Y-37130
X17579Y-38130
X17579Y-39130
X17579Y-40594
X17579Y-41594
X17579Y-42594
X17579Y-43594
X17579Y-44594
X17579Y-45594
X17579Y-46594
X17579Y-47594
X22579Y-32130
X22579Y-33130
X22579Y-34130
X22579Y-35130
X22579Y-36130
X22579Y-37130
X22579Y-38130
X22579Y-39130
X22579Y-40594
X22579Y-41594
X22579Y-42594
X22579Y-43594
X22579Y-44594
X22579Y-45594
X22579Y-46594
X22579Y-47594
X36634Y-40372
X36634Y-41372
X36634Y-42372
X36634Y-43372
X36634Y-44372
X36634Y-45372
X36634Y-46372
X36634Y-47372
X36673Y-31736
X36673Y-32736
X36673Y-33736
X36673Y-34736
X36673Y-35736
X36673Y-36736
X36673Y-37736
X36673Y-38736
X41634Y-40372
X41634Y-41372
X41634Y-42372
X41634Y-43372
X41634Y-44372
X41634Y-45372
X41634Y-46372
X41634Y-47372
X41673Y-31736
X41673Y-32736
X41673Y-33736
X41673Y-34736
X41673Y-35736
X41673Y-36736
X41673Y-37736
X41673Y-38736
X43110Y-42291
X43110Y-43291
X43110Y-44291
X43110Y-45291
X43307Y-33736
X43307Y-34736
X43307Y-35736
X43307Y-36736
X45457Y-40151
X46457Y-40151
X47457Y-40151
T4
X24724Y-32856
X24724Y-33856
X24724Y-34856
X24724Y-35856
X24724Y-36856
X24724Y-37856
X24724Y-38856
X24724Y-39856
X24724Y-40856
X24724Y-41856
X24724Y-42856
X24724Y-43856
X24724Y-44856
X24724Y-45856
X24724Y-46856
X34724Y-32856
X34724Y-33856
X34724Y-34856
X34724Y-35856
X34724Y-36856
X34724Y-37856
X34724Y-38856
X34724Y-39856
X34724Y-40856
X34724Y-41856
X34724Y-42856
X34724Y-43856
X34724Y-44856
X34724Y-45856
X34724Y-46856
T3
G00X46063Y-44685
M15
G01X46850Y-44685
M16
G05
G00X46063Y-47047
M15
G01X46850Y-47047
M16
G05
G00X48307Y-46260
M15
G01X48307Y-45472
M16
G05
M30
