G04 #@! TF.GenerationSoftware,KiCad,Pcbnew,10.0.2*
G04 #@! TF.CreationDate,2026-05-31T13:56:21+10:00*
G04 #@! TF.ProjectId,Circuit Board V2,43697263-7569-4742-9042-6f6172642056,rev?*
G04 #@! TF.SameCoordinates,Original*
G04 #@! TF.FileFunction,Copper,L2,Bot*
G04 #@! TF.FilePolarity,Positive*
%FSLAX46Y46*%
G04 Gerber Fmt 4.6, Leading zero omitted, Abs format (unit mm)*
G04 Created by KiCad (PCBNEW 10.0.2) date 2026-05-31 13:56:21*
%MOMM*%
%LPD*%
G01*
G04 APERTURE LIST*
G04 Aperture macros list*
%AMRoundRect*
0 Rectangle with rounded corners*
0 $1 Rounding radius*
0 $2 $3 $4 $5 $6 $7 $8 $9 X,Y pos of 4 corners*
0 Add a 4 corners polygon primitive as box body*
4,1,4,$2,$3,$4,$5,$6,$7,$8,$9,$2,$3,0*
0 Add four circle primitives for the rounded corners*
1,1,$1+$1,$2,$3*
1,1,$1+$1,$4,$5*
1,1,$1+$1,$6,$7*
1,1,$1+$1,$8,$9*
0 Add four rect primitives between the rounded corners*
20,1,$1+$1,$2,$3,$4,$5,0*
20,1,$1+$1,$4,$5,$6,$7,0*
20,1,$1+$1,$6,$7,$8,$9,0*
20,1,$1+$1,$8,$9,$2,$3,0*%
G04 Aperture macros list end*
G04 #@! TA.AperFunction,ComponentPad*
%ADD10R,2.000000X2.000000*%
G04 #@! TD*
G04 #@! TA.AperFunction,ComponentPad*
%ADD11C,2.000000*%
G04 #@! TD*
G04 #@! TA.AperFunction,ComponentPad*
%ADD12C,1.700000*%
G04 #@! TD*
G04 #@! TA.AperFunction,ComponentPad*
%ADD13R,1.700000X1.700000*%
G04 #@! TD*
G04 #@! TA.AperFunction,ComponentPad*
%ADD14C,1.508000*%
G04 #@! TD*
G04 #@! TA.AperFunction,ComponentPad*
%ADD15R,1.508000X1.508000*%
G04 #@! TD*
G04 #@! TA.AperFunction,ComponentPad*
%ADD16R,1.500000X1.500000*%
G04 #@! TD*
G04 #@! TA.AperFunction,ComponentPad*
%ADD17C,1.600000*%
G04 #@! TD*
G04 #@! TA.AperFunction,ComponentPad*
%ADD18RoundRect,0.250001X-0.499999X0.499999X-0.499999X-0.499999X0.499999X-0.499999X0.499999X0.499999X0*%
G04 #@! TD*
G04 #@! TA.AperFunction,ComponentPad*
%ADD19C,1.500000*%
G04 #@! TD*
G04 #@! TA.AperFunction,ComponentPad*
%ADD20R,3.500000X3.500000*%
G04 #@! TD*
G04 #@! TA.AperFunction,ComponentPad*
%ADD21RoundRect,0.750000X1.000000X-0.750000X1.000000X0.750000X-1.000000X0.750000X-1.000000X-0.750000X0*%
G04 #@! TD*
G04 #@! TA.AperFunction,ComponentPad*
%ADD22RoundRect,0.875000X0.875000X-0.875000X0.875000X0.875000X-0.875000X0.875000X-0.875000X-0.875000X0*%
G04 #@! TD*
G04 #@! TA.AperFunction,ViaPad*
%ADD23C,0.600000*%
G04 #@! TD*
G04 #@! TA.AperFunction,Conductor*
%ADD24C,0.200000*%
G04 #@! TD*
G04 #@! TA.AperFunction,Conductor*
%ADD25C,0.800000*%
G04 #@! TD*
G04 #@! TA.AperFunction,Conductor*
%ADD26C,1.000000*%
G04 #@! TD*
G04 APERTURE END LIST*
D10*
X88200000Y-119015000D03*
D11*
X88200000Y-116475000D03*
X88200000Y-113935000D03*
X88200000Y-111395000D03*
X88200000Y-108855000D03*
X88200000Y-106315000D03*
X88200000Y-103775000D03*
X88200000Y-101235000D03*
X88200000Y-98695000D03*
X88200000Y-96155000D03*
X88200000Y-93615000D03*
X88200000Y-91075000D03*
X88200000Y-88535000D03*
X88200000Y-85995000D03*
X88200000Y-83455000D03*
X62800000Y-83455000D03*
X62800000Y-85995000D03*
X62800000Y-88535000D03*
X62800000Y-91075000D03*
X62800000Y-93615000D03*
X62800000Y-96155000D03*
X62800000Y-98695000D03*
X62800000Y-101235000D03*
X62800000Y-103775000D03*
X62800000Y-106315000D03*
X62800000Y-108855000D03*
X62800000Y-111395000D03*
X62800000Y-113935000D03*
X62800000Y-116475000D03*
X62800000Y-119015000D03*
D12*
X109500000Y-115040000D03*
X109500000Y-112500000D03*
X109500000Y-109960000D03*
D13*
X109500000Y-107420000D03*
D14*
X105850000Y-98390000D03*
X105850000Y-95850000D03*
X105850000Y-93310000D03*
X105850000Y-90770000D03*
X105850000Y-88230000D03*
X105850000Y-85690000D03*
X105850000Y-83150000D03*
X105850000Y-80610000D03*
X93150000Y-98390000D03*
X93150000Y-95850000D03*
X93150000Y-93310000D03*
X93150000Y-90770000D03*
X93150000Y-88230000D03*
X93150000Y-85690000D03*
X93150000Y-83150000D03*
D15*
X93150000Y-80610000D03*
X93050000Y-102545000D03*
D14*
X93050000Y-105085000D03*
X93050000Y-107625000D03*
X93050000Y-110165000D03*
X93050000Y-112705000D03*
X93050000Y-115245000D03*
X93050000Y-117785000D03*
X93050000Y-120325000D03*
X105750000Y-102545000D03*
X105750000Y-105085000D03*
X105750000Y-107625000D03*
X105750000Y-110165000D03*
X105750000Y-112705000D03*
X105750000Y-115245000D03*
X105750000Y-117785000D03*
X105750000Y-120325000D03*
D16*
X120000000Y-92500000D03*
D17*
X117460000Y-92500000D03*
X122540000Y-92500000D03*
D16*
X120000000Y-88500000D03*
D17*
X117460000Y-88500000D03*
X122540000Y-88500000D03*
D16*
X120040000Y-84500000D03*
D17*
X117500000Y-84500000D03*
X122580000Y-84500000D03*
D16*
X120000000Y-80500000D03*
D17*
X117460000Y-80500000D03*
X122540000Y-80500000D03*
D13*
X40500000Y-94310000D03*
D12*
X40500000Y-91770000D03*
X40500000Y-89230000D03*
X40500000Y-86690000D03*
D13*
X110000000Y-85690000D03*
D12*
X110000000Y-88230000D03*
X110000000Y-90770000D03*
X110000000Y-93310000D03*
D15*
X57350000Y-120890000D03*
D14*
X57350000Y-118350000D03*
X57350000Y-115810000D03*
X57350000Y-113270000D03*
X57350000Y-110730000D03*
X57350000Y-108190000D03*
X57350000Y-105650000D03*
X57350000Y-103110000D03*
X44650000Y-120890000D03*
X44650000Y-118350000D03*
X44650000Y-115810000D03*
X44650000Y-113270000D03*
X44650000Y-110730000D03*
X44650000Y-108190000D03*
X44650000Y-105650000D03*
X44650000Y-103110000D03*
D18*
X120540000Y-101982500D03*
D19*
X118000000Y-101982500D03*
X115460000Y-101982500D03*
D20*
X118000000Y-113500000D03*
D21*
X118000000Y-119500000D03*
D22*
X122700000Y-116500000D03*
D13*
X40500000Y-115580000D03*
D12*
X40500000Y-113040000D03*
X40500000Y-110500000D03*
X40500000Y-107960000D03*
D15*
X57350000Y-99390000D03*
D14*
X57350000Y-96850000D03*
X57350000Y-94310000D03*
X57350000Y-91770000D03*
X57350000Y-89230000D03*
X57350000Y-86690000D03*
X57350000Y-84150000D03*
X57350000Y-81610000D03*
X44650000Y-99390000D03*
X44650000Y-96850000D03*
X44650000Y-94310000D03*
X44650000Y-91770000D03*
X44650000Y-89230000D03*
X44650000Y-86690000D03*
X44650000Y-84150000D03*
X44650000Y-81610000D03*
D23*
X94268000Y-104453500D03*
X86979700Y-115424700D03*
X66650000Y-115226800D03*
X86220000Y-113936200D03*
X83745000Y-111255000D03*
X63908600Y-112665000D03*
X65515000Y-77401400D03*
X113645000Y-77401400D03*
X85410000Y-82870800D03*
X83710600Y-106253300D03*
X45744700Y-95437600D03*
X85680000Y-107161200D03*
X86703400Y-80208200D03*
X65900000Y-111981100D03*
X77765000Y-121136200D03*
D24*
X105850000Y-95850000D02*
X109327500Y-95850000D01*
X109327500Y-95850000D02*
X115460000Y-101982500D01*
X94226000Y-103644700D02*
X104644700Y-103644700D01*
X104644700Y-103644700D02*
X105000000Y-104000000D01*
X105000000Y-104000000D02*
X113442500Y-104000000D01*
X113442500Y-104000000D02*
X115460000Y-101982500D01*
D25*
X105850000Y-93310000D02*
X110000000Y-93310000D01*
X105850000Y-90770000D02*
X110000000Y-90770000D01*
X105850000Y-88230000D02*
X110000000Y-88230000D01*
X105850000Y-85690000D02*
X110000000Y-85690000D01*
X40500000Y-94310000D02*
X44650000Y-94310000D01*
X40500000Y-91770000D02*
X44650000Y-91770000D01*
X40500000Y-89230000D02*
X44650000Y-89230000D01*
X40500000Y-86690000D02*
X44650000Y-86690000D01*
X105750000Y-115245000D02*
X109295000Y-115245000D01*
D24*
X109295000Y-115245000D02*
X109500000Y-115040000D01*
D25*
X105750000Y-112705000D02*
X109295000Y-112705000D01*
D24*
X109295000Y-112705000D02*
X109500000Y-112500000D01*
D25*
X105750000Y-110165000D02*
X109295000Y-110165000D01*
D24*
X109295000Y-110165000D02*
X109500000Y-109960000D01*
D25*
X105750000Y-107625000D02*
X109295000Y-107625000D01*
D24*
X109295000Y-107625000D02*
X109500000Y-107420000D01*
D26*
X44650000Y-99390000D02*
X42500000Y-101540000D01*
X42500000Y-101540000D02*
X42500000Y-118740000D01*
X42500000Y-118740000D02*
X44650000Y-120890000D01*
X105850000Y-80610000D02*
X104000000Y-82460000D01*
X104000000Y-82460000D02*
X104000000Y-100795000D01*
X104000000Y-100795000D02*
X105750000Y-102545000D01*
D24*
X86860000Y-115544400D02*
X86979700Y-115424700D01*
X86860000Y-120105200D02*
X86860000Y-115544400D01*
X87079800Y-120325000D02*
X86860000Y-120105200D01*
X89340900Y-120325000D02*
X87079800Y-120325000D01*
X91994300Y-117671600D02*
X89340900Y-120325000D01*
X91994300Y-112261700D02*
X91994300Y-117671600D01*
X92821000Y-111435000D02*
X91994300Y-112261700D01*
X93316100Y-111435000D02*
X92821000Y-111435000D01*
X94268000Y-110483100D02*
X93316100Y-111435000D01*
X94268000Y-104453500D02*
X94268000Y-110483100D01*
X66650000Y-107625000D02*
X62800000Y-103775000D01*
X66650000Y-115226800D02*
X66650000Y-107625000D01*
X92976500Y-117785000D02*
X93050000Y-117785000D01*
X90034800Y-120726700D02*
X92976500Y-117785000D01*
X86913500Y-120726700D02*
X90034800Y-120726700D01*
X86458300Y-120271500D02*
X86913500Y-120726700D01*
X86458300Y-119703500D02*
X86458300Y-120271500D01*
X86220000Y-119465200D02*
X86458300Y-119703500D01*
X86220000Y-113936200D02*
X86220000Y-119465200D01*
X92648300Y-120726700D02*
X93050000Y-120325000D01*
X90602900Y-120726700D02*
X92648300Y-120726700D01*
X90436600Y-120893000D02*
X90602900Y-120726700D01*
X90436600Y-120893000D02*
X90602900Y-120726700D01*
X90201200Y-121128400D02*
X90436600Y-120893000D01*
X86747200Y-121128400D02*
X90201200Y-121128400D01*
X83745000Y-118126200D02*
X86747200Y-121128400D01*
X83745000Y-111255000D02*
X83745000Y-118126200D01*
X56256900Y-82703100D02*
X57350000Y-81610000D01*
X56256900Y-89635900D02*
X56256900Y-82703100D01*
X57121000Y-90500000D02*
X56256900Y-89635900D01*
X57616100Y-90500000D02*
X57121000Y-90500000D01*
X59945800Y-92829700D02*
X57616100Y-90500000D01*
X59945800Y-98380800D02*
X59945800Y-92829700D01*
X62800000Y-101235000D02*
X59945800Y-98380800D01*
X93150000Y-97583800D02*
X93150000Y-98390000D01*
X93146200Y-97580000D02*
X93150000Y-97583800D01*
X92895400Y-97580000D02*
X93146200Y-97580000D01*
X93146200Y-97580000D02*
X93397000Y-97580000D01*
X64370800Y-113127200D02*
X63908600Y-112665000D01*
X64370800Y-119351600D02*
X64370800Y-113127200D01*
X63362900Y-120359500D02*
X64370800Y-119351600D01*
X62264600Y-120359500D02*
X63362900Y-120359500D01*
X60521300Y-118616200D02*
X62264600Y-120359500D01*
X60521300Y-106281300D02*
X60521300Y-118616200D01*
X57350000Y-103110000D02*
X60521300Y-106281300D01*
X65515000Y-90900000D02*
X65515000Y-77401400D01*
X62800000Y-93615000D02*
X65515000Y-90900000D01*
X113645000Y-88685000D02*
X117460000Y-92500000D01*
X113645000Y-77401400D02*
X113645000Y-88685000D01*
X85410000Y-104553900D02*
X83710600Y-106253300D01*
X85410000Y-82870800D02*
X85410000Y-104553900D01*
X120000000Y-97442500D02*
X120000000Y-92500000D01*
X115460000Y-101982500D02*
X120000000Y-97442500D01*
X120000000Y-88500000D02*
X120000000Y-92500000D01*
X120000000Y-85591700D02*
X120000000Y-88500000D01*
X120040000Y-85551700D02*
X120000000Y-85591700D01*
X120040000Y-84500000D02*
X120040000Y-85551700D01*
X120040000Y-81591700D02*
X120040000Y-84500000D01*
X120000000Y-81551700D02*
X120040000Y-81591700D01*
X120000000Y-80500000D02*
X120000000Y-81551700D01*
X93050000Y-107625000D02*
X93050000Y-105085000D01*
X57350000Y-118350000D02*
X57350000Y-115810000D01*
X93150000Y-83150000D02*
X93150000Y-85690000D01*
X45744700Y-85244700D02*
X45744700Y-95437600D01*
X44650000Y-84150000D02*
X45744700Y-85244700D01*
X57350000Y-96850000D02*
X57350000Y-94310000D01*
X56999400Y-115810000D02*
X57350000Y-115810000D01*
X45744700Y-104555300D02*
X56999400Y-115810000D01*
X45744700Y-95437600D02*
X45744700Y-104555300D01*
X45744700Y-104555300D02*
X44650000Y-105650000D01*
X91397900Y-115817100D02*
X88200000Y-119015000D01*
X91397900Y-109277100D02*
X91397900Y-115817100D01*
X93050000Y-107625000D02*
X91397900Y-109277100D01*
X93050000Y-104820700D02*
X93050000Y-105085000D01*
X94226000Y-103644700D02*
X93050000Y-104820700D01*
X94226000Y-86766000D02*
X94226000Y-103644700D01*
X93150000Y-85690000D02*
X94226000Y-86766000D01*
X86703400Y-106137800D02*
X86703400Y-80208200D01*
X85680000Y-107161200D02*
X86703400Y-106137800D01*
X60347500Y-87147500D02*
X57350000Y-84150000D01*
X60347500Y-96242500D02*
X60347500Y-87147500D01*
X62800000Y-98695000D02*
X60347500Y-96242500D01*
X65900000Y-118390400D02*
X65900000Y-111981100D01*
X63529200Y-120761200D02*
X65900000Y-118390400D01*
X62098300Y-120761200D02*
X63529200Y-120761200D01*
X60078300Y-118741200D02*
X62098300Y-120761200D01*
X60078300Y-108378300D02*
X60078300Y-118741200D01*
X57350000Y-105650000D02*
X60078300Y-108378300D01*
X77765100Y-121136200D02*
X77765000Y-121136200D01*
X77765100Y-116381900D02*
X77765100Y-121136200D01*
X85292000Y-108855000D02*
X77765100Y-116381900D01*
X88200000Y-108855000D02*
X85292000Y-108855000D01*
X93150000Y-80610000D02*
X93150000Y-81665700D01*
X91493500Y-92861500D02*
X88200000Y-96155000D01*
X91493500Y-83234700D02*
X91493500Y-92861500D01*
X93062500Y-81665700D02*
X91493500Y-83234700D01*
X93150000Y-81665700D02*
X93062500Y-81665700D01*
D26*
X120540000Y-108908300D02*
X118000000Y-111448300D01*
X120540000Y-101982500D02*
X120540000Y-108908300D01*
X118000000Y-113500000D02*
X118000000Y-111448300D01*
M02*
