G04 #@! TF.GenerationSoftware,KiCad,Pcbnew,10.0.2*
G04 #@! TF.CreationDate,2026-05-31T13:56:22+10:00*
G04 #@! TF.ProjectId,Circuit Board V2,43697263-7569-4742-9042-6f6172642056,rev?*
G04 #@! TF.SameCoordinates,Original*
G04 #@! TF.FileFunction,Legend,Top*
G04 #@! TF.FilePolarity,Positive*
%FSLAX46Y46*%
G04 Gerber Fmt 4.6, Leading zero omitted, Abs format (unit mm)*
G04 Created by KiCad (PCBNEW 10.0.2) date 2026-05-31 13:56:22*
%MOMM*%
%LPD*%
G01*
G04 APERTURE LIST*
%ADD10C,0.100000*%
%ADD11C,0.150000*%
%ADD12C,0.127000*%
%ADD13C,0.200000*%
%ADD14C,0.120000*%
G04 APERTURE END LIST*
D10*
X95303884Y-102848609D02*
X95637217Y-102848609D01*
X95780074Y-103372419D02*
X95303884Y-103372419D01*
X95303884Y-103372419D02*
X95303884Y-102372419D01*
X95303884Y-102372419D02*
X95780074Y-102372419D01*
X96208646Y-103372419D02*
X96208646Y-102372419D01*
X96208646Y-102372419D02*
X96780074Y-103372419D01*
X96780074Y-103372419D02*
X96780074Y-102372419D01*
X54303884Y-98738609D02*
X54637217Y-98738609D01*
X54780074Y-99262419D02*
X54303884Y-99262419D01*
X54303884Y-99262419D02*
X54303884Y-98262419D01*
X54303884Y-98262419D02*
X54780074Y-98262419D01*
X55208646Y-99262419D02*
X55208646Y-98262419D01*
X55208646Y-98262419D02*
X55780074Y-99262419D01*
X55780074Y-99262419D02*
X55780074Y-98262419D01*
X54303884Y-120338609D02*
X54637217Y-120338609D01*
X54780074Y-120862419D02*
X54303884Y-120862419D01*
X54303884Y-120862419D02*
X54303884Y-119862419D01*
X54303884Y-119862419D02*
X54780074Y-119862419D01*
X55208646Y-120862419D02*
X55208646Y-119862419D01*
X55208646Y-119862419D02*
X55780074Y-120862419D01*
X55780074Y-120862419D02*
X55780074Y-119862419D01*
X74303884Y-121872419D02*
X74303884Y-122681942D01*
X74303884Y-122681942D02*
X74351503Y-122777180D01*
X74351503Y-122777180D02*
X74399122Y-122824800D01*
X74399122Y-122824800D02*
X74494360Y-122872419D01*
X74494360Y-122872419D02*
X74684836Y-122872419D01*
X74684836Y-122872419D02*
X74780074Y-122824800D01*
X74780074Y-122824800D02*
X74827693Y-122777180D01*
X74827693Y-122777180D02*
X74875312Y-122681942D01*
X74875312Y-122681942D02*
X74875312Y-121872419D01*
X75303884Y-122824800D02*
X75446741Y-122872419D01*
X75446741Y-122872419D02*
X75684836Y-122872419D01*
X75684836Y-122872419D02*
X75780074Y-122824800D01*
X75780074Y-122824800D02*
X75827693Y-122777180D01*
X75827693Y-122777180D02*
X75875312Y-122681942D01*
X75875312Y-122681942D02*
X75875312Y-122586704D01*
X75875312Y-122586704D02*
X75827693Y-122491466D01*
X75827693Y-122491466D02*
X75780074Y-122443847D01*
X75780074Y-122443847D02*
X75684836Y-122396228D01*
X75684836Y-122396228D02*
X75494360Y-122348609D01*
X75494360Y-122348609D02*
X75399122Y-122300990D01*
X75399122Y-122300990D02*
X75351503Y-122253371D01*
X75351503Y-122253371D02*
X75303884Y-122158133D01*
X75303884Y-122158133D02*
X75303884Y-122062895D01*
X75303884Y-122062895D02*
X75351503Y-121967657D01*
X75351503Y-121967657D02*
X75399122Y-121920038D01*
X75399122Y-121920038D02*
X75494360Y-121872419D01*
X75494360Y-121872419D02*
X75732455Y-121872419D01*
X75732455Y-121872419D02*
X75875312Y-121920038D01*
X76637217Y-122348609D02*
X76780074Y-122396228D01*
X76780074Y-122396228D02*
X76827693Y-122443847D01*
X76827693Y-122443847D02*
X76875312Y-122539085D01*
X76875312Y-122539085D02*
X76875312Y-122681942D01*
X76875312Y-122681942D02*
X76827693Y-122777180D01*
X76827693Y-122777180D02*
X76780074Y-122824800D01*
X76780074Y-122824800D02*
X76684836Y-122872419D01*
X76684836Y-122872419D02*
X76303884Y-122872419D01*
X76303884Y-122872419D02*
X76303884Y-121872419D01*
X76303884Y-121872419D02*
X76637217Y-121872419D01*
X76637217Y-121872419D02*
X76732455Y-121920038D01*
X76732455Y-121920038D02*
X76780074Y-121967657D01*
X76780074Y-121967657D02*
X76827693Y-122062895D01*
X76827693Y-122062895D02*
X76827693Y-122158133D01*
X76827693Y-122158133D02*
X76780074Y-122253371D01*
X76780074Y-122253371D02*
X76732455Y-122300990D01*
X76732455Y-122300990D02*
X76637217Y-122348609D01*
X76637217Y-122348609D02*
X76303884Y-122348609D01*
X84208646Y-118872419D02*
X84827693Y-118872419D01*
X84827693Y-118872419D02*
X84494360Y-119253371D01*
X84494360Y-119253371D02*
X84637217Y-119253371D01*
X84637217Y-119253371D02*
X84732455Y-119300990D01*
X84732455Y-119300990D02*
X84780074Y-119348609D01*
X84780074Y-119348609D02*
X84827693Y-119443847D01*
X84827693Y-119443847D02*
X84827693Y-119681942D01*
X84827693Y-119681942D02*
X84780074Y-119777180D01*
X84780074Y-119777180D02*
X84732455Y-119824800D01*
X84732455Y-119824800D02*
X84637217Y-119872419D01*
X84637217Y-119872419D02*
X84351503Y-119872419D01*
X84351503Y-119872419D02*
X84256265Y-119824800D01*
X84256265Y-119824800D02*
X84208646Y-119777180D01*
X85256265Y-119777180D02*
X85303884Y-119824800D01*
X85303884Y-119824800D02*
X85256265Y-119872419D01*
X85256265Y-119872419D02*
X85208646Y-119824800D01*
X85208646Y-119824800D02*
X85256265Y-119777180D01*
X85256265Y-119777180D02*
X85256265Y-119872419D01*
X85637217Y-118872419D02*
X86256264Y-118872419D01*
X86256264Y-118872419D02*
X85922931Y-119253371D01*
X85922931Y-119253371D02*
X86065788Y-119253371D01*
X86065788Y-119253371D02*
X86161026Y-119300990D01*
X86161026Y-119300990D02*
X86208645Y-119348609D01*
X86208645Y-119348609D02*
X86256264Y-119443847D01*
X86256264Y-119443847D02*
X86256264Y-119681942D01*
X86256264Y-119681942D02*
X86208645Y-119777180D01*
X86208645Y-119777180D02*
X86161026Y-119824800D01*
X86161026Y-119824800D02*
X86065788Y-119872419D01*
X86065788Y-119872419D02*
X85780074Y-119872419D01*
X85780074Y-119872419D02*
X85684836Y-119824800D01*
X85684836Y-119824800D02*
X85637217Y-119777180D01*
X86589598Y-119205752D02*
X86827693Y-119872419D01*
X86827693Y-119872419D02*
X87065788Y-119205752D01*
X93827693Y-78372419D02*
X93256265Y-78372419D01*
X93541979Y-78372419D02*
X93541979Y-77372419D01*
X93541979Y-77372419D02*
X93446741Y-77515276D01*
X93446741Y-77515276D02*
X93351503Y-77610514D01*
X93351503Y-77610514D02*
X93256265Y-77658133D01*
X94256265Y-78372419D02*
X94256265Y-77372419D01*
X94351503Y-77991466D02*
X94637217Y-78372419D01*
X94637217Y-77705752D02*
X94256265Y-78086704D01*
X113708646Y-103372419D02*
X114327693Y-103372419D01*
X114327693Y-103372419D02*
X113994360Y-103753371D01*
X113994360Y-103753371D02*
X114137217Y-103753371D01*
X114137217Y-103753371D02*
X114232455Y-103800990D01*
X114232455Y-103800990D02*
X114280074Y-103848609D01*
X114280074Y-103848609D02*
X114327693Y-103943847D01*
X114327693Y-103943847D02*
X114327693Y-104181942D01*
X114327693Y-104181942D02*
X114280074Y-104277180D01*
X114280074Y-104277180D02*
X114232455Y-104324800D01*
X114232455Y-104324800D02*
X114137217Y-104372419D01*
X114137217Y-104372419D02*
X113851503Y-104372419D01*
X113851503Y-104372419D02*
X113756265Y-104324800D01*
X113756265Y-104324800D02*
X113708646Y-104277180D01*
X114756265Y-104277180D02*
X114803884Y-104324800D01*
X114803884Y-104324800D02*
X114756265Y-104372419D01*
X114756265Y-104372419D02*
X114708646Y-104324800D01*
X114708646Y-104324800D02*
X114756265Y-104277180D01*
X114756265Y-104277180D02*
X114756265Y-104372419D01*
X115137217Y-103372419D02*
X115756264Y-103372419D01*
X115756264Y-103372419D02*
X115422931Y-103753371D01*
X115422931Y-103753371D02*
X115565788Y-103753371D01*
X115565788Y-103753371D02*
X115661026Y-103800990D01*
X115661026Y-103800990D02*
X115708645Y-103848609D01*
X115708645Y-103848609D02*
X115756264Y-103943847D01*
X115756264Y-103943847D02*
X115756264Y-104181942D01*
X115756264Y-104181942D02*
X115708645Y-104277180D01*
X115708645Y-104277180D02*
X115661026Y-104324800D01*
X115661026Y-104324800D02*
X115565788Y-104372419D01*
X115565788Y-104372419D02*
X115280074Y-104372419D01*
X115280074Y-104372419D02*
X115184836Y-104324800D01*
X115184836Y-104324800D02*
X115137217Y-104277180D01*
X116089598Y-103705752D02*
X116327693Y-104372419D01*
X116327693Y-104372419D02*
X116565788Y-103705752D01*
X95303884Y-80848609D02*
X95637217Y-80848609D01*
X95780074Y-81372419D02*
X95303884Y-81372419D01*
X95303884Y-81372419D02*
X95303884Y-80372419D01*
X95303884Y-80372419D02*
X95780074Y-80372419D01*
X96208646Y-81372419D02*
X96208646Y-80372419D01*
X96208646Y-80372419D02*
X96780074Y-81372419D01*
X96780074Y-81372419D02*
X96780074Y-80372419D01*
D11*
X108690476Y-105494819D02*
X108690476Y-104494819D01*
X108690476Y-104494819D02*
X109023809Y-105209104D01*
X109023809Y-105209104D02*
X109357142Y-104494819D01*
X109357142Y-104494819D02*
X109357142Y-105494819D01*
X110261904Y-104828152D02*
X110261904Y-105494819D01*
X110023809Y-104447200D02*
X109785714Y-105161485D01*
X109785714Y-105161485D02*
X110404761Y-105161485D01*
X98738095Y-90954819D02*
X98738095Y-91764342D01*
X98738095Y-91764342D02*
X98785714Y-91859580D01*
X98785714Y-91859580D02*
X98833333Y-91907200D01*
X98833333Y-91907200D02*
X98928571Y-91954819D01*
X98928571Y-91954819D02*
X99119047Y-91954819D01*
X99119047Y-91954819D02*
X99214285Y-91907200D01*
X99214285Y-91907200D02*
X99261904Y-91859580D01*
X99261904Y-91859580D02*
X99309523Y-91764342D01*
X99309523Y-91764342D02*
X99309523Y-90954819D01*
X99738095Y-91050057D02*
X99785714Y-91002438D01*
X99785714Y-91002438D02*
X99880952Y-90954819D01*
X99880952Y-90954819D02*
X100119047Y-90954819D01*
X100119047Y-90954819D02*
X100214285Y-91002438D01*
X100214285Y-91002438D02*
X100261904Y-91050057D01*
X100261904Y-91050057D02*
X100309523Y-91145295D01*
X100309523Y-91145295D02*
X100309523Y-91240533D01*
X100309523Y-91240533D02*
X100261904Y-91383390D01*
X100261904Y-91383390D02*
X99690476Y-91954819D01*
X99690476Y-91954819D02*
X100309523Y-91954819D01*
X93563095Y-99734819D02*
X93563095Y-100544342D01*
X93563095Y-100544342D02*
X93610714Y-100639580D01*
X93610714Y-100639580D02*
X93658333Y-100687200D01*
X93658333Y-100687200D02*
X93753571Y-100734819D01*
X93753571Y-100734819D02*
X93944047Y-100734819D01*
X93944047Y-100734819D02*
X94039285Y-100687200D01*
X94039285Y-100687200D02*
X94086904Y-100639580D01*
X94086904Y-100639580D02*
X94134523Y-100544342D01*
X94134523Y-100544342D02*
X94134523Y-99734819D01*
X95039285Y-99734819D02*
X94848809Y-99734819D01*
X94848809Y-99734819D02*
X94753571Y-99782438D01*
X94753571Y-99782438D02*
X94705952Y-99830057D01*
X94705952Y-99830057D02*
X94610714Y-99972914D01*
X94610714Y-99972914D02*
X94563095Y-100163390D01*
X94563095Y-100163390D02*
X94563095Y-100544342D01*
X94563095Y-100544342D02*
X94610714Y-100639580D01*
X94610714Y-100639580D02*
X94658333Y-100687200D01*
X94658333Y-100687200D02*
X94753571Y-100734819D01*
X94753571Y-100734819D02*
X94944047Y-100734819D01*
X94944047Y-100734819D02*
X95039285Y-100687200D01*
X95039285Y-100687200D02*
X95086904Y-100639580D01*
X95086904Y-100639580D02*
X95134523Y-100544342D01*
X95134523Y-100544342D02*
X95134523Y-100306247D01*
X95134523Y-100306247D02*
X95086904Y-100211009D01*
X95086904Y-100211009D02*
X95039285Y-100163390D01*
X95039285Y-100163390D02*
X94944047Y-100115771D01*
X94944047Y-100115771D02*
X94753571Y-100115771D01*
X94753571Y-100115771D02*
X94658333Y-100163390D01*
X94658333Y-100163390D02*
X94610714Y-100211009D01*
X94610714Y-100211009D02*
X94563095Y-100306247D01*
X118666667Y-90367200D02*
X118809524Y-90414819D01*
X118809524Y-90414819D02*
X119047619Y-90414819D01*
X119047619Y-90414819D02*
X119142857Y-90367200D01*
X119142857Y-90367200D02*
X119190476Y-90319580D01*
X119190476Y-90319580D02*
X119238095Y-90224342D01*
X119238095Y-90224342D02*
X119238095Y-90129104D01*
X119238095Y-90129104D02*
X119190476Y-90033866D01*
X119190476Y-90033866D02*
X119142857Y-89986247D01*
X119142857Y-89986247D02*
X119047619Y-89938628D01*
X119047619Y-89938628D02*
X118857143Y-89891009D01*
X118857143Y-89891009D02*
X118761905Y-89843390D01*
X118761905Y-89843390D02*
X118714286Y-89795771D01*
X118714286Y-89795771D02*
X118666667Y-89700533D01*
X118666667Y-89700533D02*
X118666667Y-89605295D01*
X118666667Y-89605295D02*
X118714286Y-89510057D01*
X118714286Y-89510057D02*
X118761905Y-89462438D01*
X118761905Y-89462438D02*
X118857143Y-89414819D01*
X118857143Y-89414819D02*
X119095238Y-89414819D01*
X119095238Y-89414819D02*
X119238095Y-89462438D01*
X119571429Y-89414819D02*
X119809524Y-90414819D01*
X119809524Y-90414819D02*
X120000000Y-89700533D01*
X120000000Y-89700533D02*
X120190476Y-90414819D01*
X120190476Y-90414819D02*
X120428572Y-89414819D01*
X121238095Y-89748152D02*
X121238095Y-90414819D01*
X121000000Y-89367200D02*
X120761905Y-90081485D01*
X120761905Y-90081485D02*
X121380952Y-90081485D01*
X118666667Y-86367200D02*
X118809524Y-86414819D01*
X118809524Y-86414819D02*
X119047619Y-86414819D01*
X119047619Y-86414819D02*
X119142857Y-86367200D01*
X119142857Y-86367200D02*
X119190476Y-86319580D01*
X119190476Y-86319580D02*
X119238095Y-86224342D01*
X119238095Y-86224342D02*
X119238095Y-86129104D01*
X119238095Y-86129104D02*
X119190476Y-86033866D01*
X119190476Y-86033866D02*
X119142857Y-85986247D01*
X119142857Y-85986247D02*
X119047619Y-85938628D01*
X119047619Y-85938628D02*
X118857143Y-85891009D01*
X118857143Y-85891009D02*
X118761905Y-85843390D01*
X118761905Y-85843390D02*
X118714286Y-85795771D01*
X118714286Y-85795771D02*
X118666667Y-85700533D01*
X118666667Y-85700533D02*
X118666667Y-85605295D01*
X118666667Y-85605295D02*
X118714286Y-85510057D01*
X118714286Y-85510057D02*
X118761905Y-85462438D01*
X118761905Y-85462438D02*
X118857143Y-85414819D01*
X118857143Y-85414819D02*
X119095238Y-85414819D01*
X119095238Y-85414819D02*
X119238095Y-85462438D01*
X119571429Y-85414819D02*
X119809524Y-86414819D01*
X119809524Y-86414819D02*
X120000000Y-85700533D01*
X120000000Y-85700533D02*
X120190476Y-86414819D01*
X120190476Y-86414819D02*
X120428572Y-85414819D01*
X120714286Y-85414819D02*
X121333333Y-85414819D01*
X121333333Y-85414819D02*
X121000000Y-85795771D01*
X121000000Y-85795771D02*
X121142857Y-85795771D01*
X121142857Y-85795771D02*
X121238095Y-85843390D01*
X121238095Y-85843390D02*
X121285714Y-85891009D01*
X121285714Y-85891009D02*
X121333333Y-85986247D01*
X121333333Y-85986247D02*
X121333333Y-86224342D01*
X121333333Y-86224342D02*
X121285714Y-86319580D01*
X121285714Y-86319580D02*
X121238095Y-86367200D01*
X121238095Y-86367200D02*
X121142857Y-86414819D01*
X121142857Y-86414819D02*
X120857143Y-86414819D01*
X120857143Y-86414819D02*
X120761905Y-86367200D01*
X120761905Y-86367200D02*
X120714286Y-86319580D01*
X118706667Y-82367200D02*
X118849524Y-82414819D01*
X118849524Y-82414819D02*
X119087619Y-82414819D01*
X119087619Y-82414819D02*
X119182857Y-82367200D01*
X119182857Y-82367200D02*
X119230476Y-82319580D01*
X119230476Y-82319580D02*
X119278095Y-82224342D01*
X119278095Y-82224342D02*
X119278095Y-82129104D01*
X119278095Y-82129104D02*
X119230476Y-82033866D01*
X119230476Y-82033866D02*
X119182857Y-81986247D01*
X119182857Y-81986247D02*
X119087619Y-81938628D01*
X119087619Y-81938628D02*
X118897143Y-81891009D01*
X118897143Y-81891009D02*
X118801905Y-81843390D01*
X118801905Y-81843390D02*
X118754286Y-81795771D01*
X118754286Y-81795771D02*
X118706667Y-81700533D01*
X118706667Y-81700533D02*
X118706667Y-81605295D01*
X118706667Y-81605295D02*
X118754286Y-81510057D01*
X118754286Y-81510057D02*
X118801905Y-81462438D01*
X118801905Y-81462438D02*
X118897143Y-81414819D01*
X118897143Y-81414819D02*
X119135238Y-81414819D01*
X119135238Y-81414819D02*
X119278095Y-81462438D01*
X119611429Y-81414819D02*
X119849524Y-82414819D01*
X119849524Y-82414819D02*
X120040000Y-81700533D01*
X120040000Y-81700533D02*
X120230476Y-82414819D01*
X120230476Y-82414819D02*
X120468572Y-81414819D01*
X120801905Y-81510057D02*
X120849524Y-81462438D01*
X120849524Y-81462438D02*
X120944762Y-81414819D01*
X120944762Y-81414819D02*
X121182857Y-81414819D01*
X121182857Y-81414819D02*
X121278095Y-81462438D01*
X121278095Y-81462438D02*
X121325714Y-81510057D01*
X121325714Y-81510057D02*
X121373333Y-81605295D01*
X121373333Y-81605295D02*
X121373333Y-81700533D01*
X121373333Y-81700533D02*
X121325714Y-81843390D01*
X121325714Y-81843390D02*
X120754286Y-82414819D01*
X120754286Y-82414819D02*
X121373333Y-82414819D01*
X118666667Y-78367200D02*
X118809524Y-78414819D01*
X118809524Y-78414819D02*
X119047619Y-78414819D01*
X119047619Y-78414819D02*
X119142857Y-78367200D01*
X119142857Y-78367200D02*
X119190476Y-78319580D01*
X119190476Y-78319580D02*
X119238095Y-78224342D01*
X119238095Y-78224342D02*
X119238095Y-78129104D01*
X119238095Y-78129104D02*
X119190476Y-78033866D01*
X119190476Y-78033866D02*
X119142857Y-77986247D01*
X119142857Y-77986247D02*
X119047619Y-77938628D01*
X119047619Y-77938628D02*
X118857143Y-77891009D01*
X118857143Y-77891009D02*
X118761905Y-77843390D01*
X118761905Y-77843390D02*
X118714286Y-77795771D01*
X118714286Y-77795771D02*
X118666667Y-77700533D01*
X118666667Y-77700533D02*
X118666667Y-77605295D01*
X118666667Y-77605295D02*
X118714286Y-77510057D01*
X118714286Y-77510057D02*
X118761905Y-77462438D01*
X118761905Y-77462438D02*
X118857143Y-77414819D01*
X118857143Y-77414819D02*
X119095238Y-77414819D01*
X119095238Y-77414819D02*
X119238095Y-77462438D01*
X119571429Y-77414819D02*
X119809524Y-78414819D01*
X119809524Y-78414819D02*
X120000000Y-77700533D01*
X120000000Y-77700533D02*
X120190476Y-78414819D01*
X120190476Y-78414819D02*
X120428572Y-77414819D01*
X121333333Y-78414819D02*
X120761905Y-78414819D01*
X121047619Y-78414819D02*
X121047619Y-77414819D01*
X121047619Y-77414819D02*
X120952381Y-77557676D01*
X120952381Y-77557676D02*
X120857143Y-77652914D01*
X120857143Y-77652914D02*
X120761905Y-77700533D01*
X39690476Y-97144819D02*
X39690476Y-96144819D01*
X39690476Y-96144819D02*
X40023809Y-96859104D01*
X40023809Y-96859104D02*
X40357142Y-96144819D01*
X40357142Y-96144819D02*
X40357142Y-97144819D01*
X40738095Y-96144819D02*
X41357142Y-96144819D01*
X41357142Y-96144819D02*
X41023809Y-96525771D01*
X41023809Y-96525771D02*
X41166666Y-96525771D01*
X41166666Y-96525771D02*
X41261904Y-96573390D01*
X41261904Y-96573390D02*
X41309523Y-96621009D01*
X41309523Y-96621009D02*
X41357142Y-96716247D01*
X41357142Y-96716247D02*
X41357142Y-96954342D01*
X41357142Y-96954342D02*
X41309523Y-97049580D01*
X41309523Y-97049580D02*
X41261904Y-97097200D01*
X41261904Y-97097200D02*
X41166666Y-97144819D01*
X41166666Y-97144819D02*
X40880952Y-97144819D01*
X40880952Y-97144819D02*
X40785714Y-97097200D01*
X40785714Y-97097200D02*
X40738095Y-97049580D01*
X109190476Y-83764819D02*
X109190476Y-82764819D01*
X109190476Y-82764819D02*
X109523809Y-83479104D01*
X109523809Y-83479104D02*
X109857142Y-82764819D01*
X109857142Y-82764819D02*
X109857142Y-83764819D01*
X110285714Y-82860057D02*
X110333333Y-82812438D01*
X110333333Y-82812438D02*
X110428571Y-82764819D01*
X110428571Y-82764819D02*
X110666666Y-82764819D01*
X110666666Y-82764819D02*
X110761904Y-82812438D01*
X110761904Y-82812438D02*
X110809523Y-82860057D01*
X110809523Y-82860057D02*
X110857142Y-82955295D01*
X110857142Y-82955295D02*
X110857142Y-83050533D01*
X110857142Y-83050533D02*
X110809523Y-83193390D01*
X110809523Y-83193390D02*
X110238095Y-83764819D01*
X110238095Y-83764819D02*
X110857142Y-83764819D01*
X50238095Y-109954819D02*
X50238095Y-110764342D01*
X50238095Y-110764342D02*
X50285714Y-110859580D01*
X50285714Y-110859580D02*
X50333333Y-110907200D01*
X50333333Y-110907200D02*
X50428571Y-110954819D01*
X50428571Y-110954819D02*
X50619047Y-110954819D01*
X50619047Y-110954819D02*
X50714285Y-110907200D01*
X50714285Y-110907200D02*
X50761904Y-110859580D01*
X50761904Y-110859580D02*
X50809523Y-110764342D01*
X50809523Y-110764342D02*
X50809523Y-109954819D01*
X51809523Y-110954819D02*
X51238095Y-110954819D01*
X51523809Y-110954819D02*
X51523809Y-109954819D01*
X51523809Y-109954819D02*
X51428571Y-110097676D01*
X51428571Y-110097676D02*
X51333333Y-110192914D01*
X51333333Y-110192914D02*
X51238095Y-110240533D01*
X124204819Y-104444404D02*
X125014342Y-104444404D01*
X125014342Y-104444404D02*
X125109580Y-104396785D01*
X125109580Y-104396785D02*
X125157200Y-104349166D01*
X125157200Y-104349166D02*
X125204819Y-104253928D01*
X125204819Y-104253928D02*
X125204819Y-104063452D01*
X125204819Y-104063452D02*
X125157200Y-103968214D01*
X125157200Y-103968214D02*
X125109580Y-103920595D01*
X125109580Y-103920595D02*
X125014342Y-103872976D01*
X125014342Y-103872976D02*
X124204819Y-103872976D01*
X124204819Y-102920595D02*
X124204819Y-103396785D01*
X124204819Y-103396785D02*
X124681009Y-103444404D01*
X124681009Y-103444404D02*
X124633390Y-103396785D01*
X124633390Y-103396785D02*
X124585771Y-103301547D01*
X124585771Y-103301547D02*
X124585771Y-103063452D01*
X124585771Y-103063452D02*
X124633390Y-102968214D01*
X124633390Y-102968214D02*
X124681009Y-102920595D01*
X124681009Y-102920595D02*
X124776247Y-102872976D01*
X124776247Y-102872976D02*
X125014342Y-102872976D01*
X125014342Y-102872976D02*
X125109580Y-102920595D01*
X125109580Y-102920595D02*
X125157200Y-102968214D01*
X125157200Y-102968214D02*
X125204819Y-103063452D01*
X125204819Y-103063452D02*
X125204819Y-103301547D01*
X125204819Y-103301547D02*
X125157200Y-103396785D01*
X125157200Y-103396785D02*
X125109580Y-103444404D01*
X39690476Y-118414819D02*
X39690476Y-117414819D01*
X39690476Y-117414819D02*
X40023809Y-118129104D01*
X40023809Y-118129104D02*
X40357142Y-117414819D01*
X40357142Y-117414819D02*
X40357142Y-118414819D01*
X41357142Y-118414819D02*
X40785714Y-118414819D01*
X41071428Y-118414819D02*
X41071428Y-117414819D01*
X41071428Y-117414819D02*
X40976190Y-117557676D01*
X40976190Y-117557676D02*
X40880952Y-117652914D01*
X40880952Y-117652914D02*
X40785714Y-117700533D01*
X50238095Y-88454819D02*
X50238095Y-89264342D01*
X50238095Y-89264342D02*
X50285714Y-89359580D01*
X50285714Y-89359580D02*
X50333333Y-89407200D01*
X50333333Y-89407200D02*
X50428571Y-89454819D01*
X50428571Y-89454819D02*
X50619047Y-89454819D01*
X50619047Y-89454819D02*
X50714285Y-89407200D01*
X50714285Y-89407200D02*
X50761904Y-89359580D01*
X50761904Y-89359580D02*
X50809523Y-89264342D01*
X50809523Y-89264342D02*
X50809523Y-88454819D01*
X51190476Y-88454819D02*
X51809523Y-88454819D01*
X51809523Y-88454819D02*
X51476190Y-88835771D01*
X51476190Y-88835771D02*
X51619047Y-88835771D01*
X51619047Y-88835771D02*
X51714285Y-88883390D01*
X51714285Y-88883390D02*
X51761904Y-88931009D01*
X51761904Y-88931009D02*
X51809523Y-89026247D01*
X51809523Y-89026247D02*
X51809523Y-89264342D01*
X51809523Y-89264342D02*
X51761904Y-89359580D01*
X51761904Y-89359580D02*
X51714285Y-89407200D01*
X51714285Y-89407200D02*
X51619047Y-89454819D01*
X51619047Y-89454819D02*
X51333333Y-89454819D01*
X51333333Y-89454819D02*
X51238095Y-89407200D01*
X51238095Y-89407200D02*
X51190476Y-89359580D01*
D12*
X61270000Y-78025000D02*
X89780000Y-78025000D01*
X61270000Y-128975000D02*
X61270000Y-78025000D01*
X61270000Y-128975000D02*
X61270000Y-78025000D01*
X66720000Y-78025000D02*
X61270000Y-78025000D01*
X72000000Y-128975000D02*
X61270000Y-128975000D01*
X78711000Y-128975000D02*
X72000000Y-128975000D01*
X84410000Y-78025000D02*
X66720000Y-78025000D01*
X89780000Y-78025000D02*
X84410000Y-78025000D01*
X89780000Y-78025000D02*
X89780000Y-128975000D01*
X89780000Y-78025000D02*
X89780000Y-128975000D01*
X89780000Y-128975000D02*
X61270000Y-128975000D01*
X89780000Y-128975000D02*
X78711000Y-128975000D01*
D13*
X90450000Y-119015000D02*
G75*
G02*
X90250000Y-119015000I-100000J0D01*
G01*
X90250000Y-119015000D02*
G75*
G02*
X90450000Y-119015000I100000J0D01*
G01*
D14*
X110880000Y-108690000D02*
X110880000Y-116420000D01*
X108120000Y-116420000D02*
X110880000Y-116420000D01*
X108120000Y-108690000D02*
X110880000Y-108690000D01*
X108120000Y-108690000D02*
X108120000Y-116420000D01*
X108120000Y-107420000D02*
X108120000Y-106040000D01*
X108120000Y-106040000D02*
X109500000Y-106040000D01*
D13*
X91400000Y-80610000D02*
G75*
G02*
X91200000Y-80610000I-100000J0D01*
G01*
X91200000Y-80610000D02*
G75*
G02*
X91400000Y-80610000I100000J0D01*
G01*
D12*
X107120000Y-99660000D02*
X91880000Y-99660000D01*
X107120000Y-79340000D02*
X107120000Y-99660000D01*
X91880000Y-99660000D02*
X91880000Y-79340000D01*
X91880000Y-79340000D02*
X107120000Y-79340000D01*
X91780000Y-101275000D02*
X107020000Y-101275000D01*
X91780000Y-121595000D02*
X91780000Y-101275000D01*
X107020000Y-101275000D02*
X107020000Y-121595000D01*
X107020000Y-121595000D02*
X91780000Y-121595000D01*
D13*
X91300000Y-102545000D02*
G75*
G02*
X91100000Y-102545000I-100000J0D01*
G01*
X91100000Y-102545000D02*
G75*
G02*
X91300000Y-102545000I100000J0D01*
G01*
D14*
X114890000Y-91140000D02*
X125110000Y-91140000D01*
X125110000Y-93860000D01*
X114890000Y-93860000D01*
X114890000Y-91140000D01*
X114890000Y-87140000D02*
X125110000Y-87140000D01*
X125110000Y-89860000D01*
X114890000Y-89860000D01*
X114890000Y-87140000D01*
X114930000Y-83140000D02*
X125150000Y-83140000D01*
X125150000Y-85860000D01*
X114930000Y-85860000D01*
X114930000Y-83140000D01*
X114890000Y-79140000D02*
X125110000Y-79140000D01*
X125110000Y-81860000D01*
X114890000Y-81860000D01*
X114890000Y-79140000D01*
X39120000Y-93040000D02*
X39120000Y-85310000D01*
X41880000Y-85310000D02*
X39120000Y-85310000D01*
X41880000Y-93040000D02*
X39120000Y-93040000D01*
X41880000Y-93040000D02*
X41880000Y-85310000D01*
X41880000Y-94310000D02*
X41880000Y-95690000D01*
X41880000Y-95690000D02*
X40500000Y-95690000D01*
X108620000Y-84310000D02*
X110000000Y-84310000D01*
X108620000Y-85690000D02*
X108620000Y-84310000D01*
X108620000Y-86960000D02*
X108620000Y-94690000D01*
X108620000Y-86960000D02*
X111380000Y-86960000D01*
X108620000Y-94690000D02*
X111380000Y-94690000D01*
X111380000Y-86960000D02*
X111380000Y-94690000D01*
D12*
X43380000Y-101840000D02*
X58620000Y-101840000D01*
X43380000Y-122160000D02*
X43380000Y-101840000D01*
X58620000Y-101840000D02*
X58620000Y-122160000D01*
X58620000Y-122160000D02*
X43380000Y-122160000D01*
D13*
X59300000Y-120890000D02*
G75*
G02*
X59100000Y-120890000I-100000J0D01*
G01*
X59100000Y-120890000D02*
G75*
G02*
X59300000Y-120890000I100000J0D01*
G01*
D14*
X112090000Y-99822500D02*
X120244000Y-99822500D01*
X112090000Y-107542500D02*
X112090000Y-99822500D01*
X120836000Y-99822500D02*
X123910000Y-99822500D01*
X123910000Y-99822500D02*
X123910000Y-107542500D01*
X123910000Y-107542500D02*
X112090000Y-107542500D01*
X120540000Y-99822500D02*
X120200000Y-99352500D01*
X120880000Y-99352500D01*
X120540000Y-99822500D01*
G36*
X120540000Y-99822500D02*
G01*
X120200000Y-99352500D01*
X120880000Y-99352500D01*
X120540000Y-99822500D01*
G37*
X113200000Y-113450000D02*
X113200000Y-112400000D01*
X113400000Y-112600000D02*
X116000000Y-112600000D01*
X113400000Y-127300000D02*
X113400000Y-112600000D01*
X114250000Y-112400000D02*
X113200000Y-112400000D01*
X119900000Y-112600000D02*
X122600000Y-112600000D01*
X122600000Y-112600000D02*
X122600000Y-114500000D01*
X122600000Y-118500000D02*
X122600000Y-127300000D01*
X122600000Y-127300000D02*
X113400000Y-127300000D01*
X39120000Y-114310000D02*
X39120000Y-106580000D01*
X41880000Y-106580000D02*
X39120000Y-106580000D01*
X41880000Y-114310000D02*
X39120000Y-114310000D01*
X41880000Y-114310000D02*
X41880000Y-106580000D01*
X41880000Y-115580000D02*
X41880000Y-116960000D01*
X41880000Y-116960000D02*
X40500000Y-116960000D01*
D12*
X43380000Y-80340000D02*
X58620000Y-80340000D01*
X43380000Y-100660000D02*
X43380000Y-80340000D01*
X58620000Y-80340000D02*
X58620000Y-100660000D01*
X58620000Y-100660000D02*
X43380000Y-100660000D01*
D13*
X59300000Y-99390000D02*
G75*
G02*
X59100000Y-99390000I-100000J0D01*
G01*
X59100000Y-99390000D02*
G75*
G02*
X59300000Y-99390000I100000J0D01*
G01*
M02*
