G04 #@! TF.GenerationSoftware,KiCad,Pcbnew,10.0.0*
G04 #@! TF.CreationDate,2026-04-18T18:01:20+10:00*
G04 #@! TF.ProjectId,Circuit Board V2,43697263-7569-4742-9042-6f6172642056,rev?*
G04 #@! TF.SameCoordinates,Original*
G04 #@! TF.FileFunction,Copper,L2,Bot*
G04 #@! TF.FilePolarity,Positive*
%FSLAX46Y46*%
G04 Gerber Fmt 4.6, Leading zero omitted, Abs format (unit mm)*
G04 Created by KiCad (PCBNEW 10.0.0) date 2026-04-18 18:01:20*
%MOMM*%
%LPD*%
G01*
G04 APERTURE LIST*
G04 Aperture macros list*
%AMRoundRect*
0 Rectangle with rounded corners*
0 $1 Rounding radius*
0 $2 $3 $4 $5 $6 $7 $8 $9 X,Y pos of 4 corners*
0 Add a 4 corners polygon primitive as box body*
4,1,4,$2,$3,$4,$5,$6,$7,$8,$9,$2,$3,0*
0 Add four circle primitives for the rounded corners*
1,1,$1+$1,$2,$3*
1,1,$1+$1,$4,$5*
1,1,$1+$1,$6,$7*
1,1,$1+$1,$8,$9*
0 Add four rect primitives between the rounded corners*
20,1,$1+$1,$2,$3,$4,$5,0*
20,1,$1+$1,$4,$5,$6,$7,0*
20,1,$1+$1,$6,$7,$8,$9,0*
20,1,$1+$1,$8,$9,$2,$3,0*%
G04 Aperture macros list end*
G04 #@! TA.AperFunction,ComponentPad*
%ADD10C,1.600000*%
G04 #@! TD*
G04 #@! TA.AperFunction,ComponentPad*
%ADD11R,1.508000X1.508000*%
G04 #@! TD*
G04 #@! TA.AperFunction,ComponentPad*
%ADD12C,1.508000*%
G04 #@! TD*
G04 #@! TA.AperFunction,ComponentPad*
%ADD13R,1.700000X1.700000*%
G04 #@! TD*
G04 #@! TA.AperFunction,ComponentPad*
%ADD14C,1.700000*%
G04 #@! TD*
G04 #@! TA.AperFunction,ComponentPad*
%ADD15RoundRect,0.250001X-0.499999X0.499999X-0.499999X-0.499999X0.499999X-0.499999X0.499999X0.499999X0*%
G04 #@! TD*
G04 #@! TA.AperFunction,ComponentPad*
%ADD16C,1.500000*%
G04 #@! TD*
G04 #@! TA.AperFunction,ComponentPad*
%ADD17C,1.400000*%
G04 #@! TD*
G04 #@! TA.AperFunction,ComponentPad*
%ADD18R,3.500000X3.500000*%
G04 #@! TD*
G04 #@! TA.AperFunction,ComponentPad*
%ADD19RoundRect,0.750000X1.000000X-0.750000X1.000000X0.750000X-1.000000X0.750000X-1.000000X-0.750000X0*%
G04 #@! TD*
G04 #@! TA.AperFunction,ComponentPad*
%ADD20RoundRect,0.875000X0.875000X-0.875000X0.875000X0.875000X-0.875000X0.875000X-0.875000X-0.875000X0*%
G04 #@! TD*
G04 #@! TA.AperFunction,ComponentPad*
%ADD21R,2.000000X2.000000*%
G04 #@! TD*
G04 #@! TA.AperFunction,ComponentPad*
%ADD22C,2.000000*%
G04 #@! TD*
G04 #@! TA.AperFunction,ViaPad*
%ADD23C,0.600000*%
G04 #@! TD*
G04 #@! TA.AperFunction,Conductor*
%ADD24C,0.800000*%
G04 #@! TD*
G04 #@! TA.AperFunction,Conductor*
%ADD25C,0.600000*%
G04 #@! TD*
G04 #@! TA.AperFunction,Conductor*
%ADD26C,1.000000*%
G04 #@! TD*
G04 #@! TA.AperFunction,Conductor*
%ADD27C,0.300000*%
G04 #@! TD*
G04 #@! TA.AperFunction,Conductor*
%ADD28C,0.200000*%
G04 #@! TD*
G04 APERTURE END LIST*
D10*
X108000000Y-108500000D03*
X108000000Y-106500000D03*
D11*
X93150000Y-83610000D03*
D12*
X93150000Y-86150000D03*
X93150000Y-88690000D03*
X93150000Y-91230000D03*
X93150000Y-93770000D03*
X93150000Y-96310000D03*
X93150000Y-98850000D03*
X93150000Y-101390000D03*
X105850000Y-83610000D03*
X105850000Y-86150000D03*
X105850000Y-88690000D03*
X105850000Y-91230000D03*
X105850000Y-93770000D03*
X105850000Y-96310000D03*
X105850000Y-98850000D03*
X105850000Y-101390000D03*
D13*
X40500000Y-94310000D03*
D14*
X40500000Y-91770000D03*
X40500000Y-89230000D03*
X40500000Y-86690000D03*
D13*
X110000000Y-88690000D03*
D14*
X110000000Y-91230000D03*
X110000000Y-93770000D03*
X110000000Y-96310000D03*
D11*
X57350000Y-120890000D03*
D12*
X57350000Y-118350000D03*
X57350000Y-115810000D03*
X57350000Y-113270000D03*
X57350000Y-110730000D03*
X57350000Y-108190000D03*
X57350000Y-105650000D03*
X57350000Y-103110000D03*
X44650000Y-120890000D03*
X44650000Y-118350000D03*
X44650000Y-115810000D03*
X44650000Y-113270000D03*
X44650000Y-110730000D03*
X44650000Y-108190000D03*
X44650000Y-105650000D03*
X44650000Y-103110000D03*
D15*
X100040000Y-105982500D03*
D16*
X97500000Y-105982500D03*
X94960000Y-105982500D03*
D17*
X96540000Y-79500000D03*
X91460000Y-79500000D03*
D11*
X57350000Y-99390000D03*
D12*
X57350000Y-96850000D03*
X57350000Y-94310000D03*
X57350000Y-91770000D03*
X57350000Y-89230000D03*
X57350000Y-86690000D03*
X57350000Y-84150000D03*
X57350000Y-81610000D03*
X44650000Y-99390000D03*
X44650000Y-96850000D03*
X44650000Y-94310000D03*
X44650000Y-91770000D03*
X44650000Y-89230000D03*
X44650000Y-86690000D03*
X44650000Y-84150000D03*
X44650000Y-81610000D03*
D18*
X102500000Y-114500000D03*
D19*
X102500000Y-120500000D03*
D20*
X107200000Y-117500000D03*
D21*
X88200000Y-119015000D03*
D22*
X88200000Y-116475000D03*
X88200000Y-113935000D03*
X88200000Y-111395000D03*
X88200000Y-108855000D03*
X88200000Y-106315000D03*
X88200000Y-103775000D03*
X88200000Y-101235000D03*
X88200000Y-98695000D03*
X88200000Y-96155000D03*
X88200000Y-93615000D03*
X88200000Y-91075000D03*
X88200000Y-88535000D03*
X88200000Y-85995000D03*
X88200000Y-83455000D03*
X62800000Y-83455000D03*
X62800000Y-85995000D03*
X62800000Y-88535000D03*
X62800000Y-91075000D03*
X62800000Y-93615000D03*
X62800000Y-96155000D03*
X62800000Y-98695000D03*
X62800000Y-101235000D03*
X62800000Y-103775000D03*
X62800000Y-106315000D03*
X62800000Y-108855000D03*
X62800000Y-111395000D03*
X62800000Y-113935000D03*
X62800000Y-116475000D03*
X62800000Y-119015000D03*
D13*
X40500000Y-115580000D03*
D14*
X40500000Y-113040000D03*
X40500000Y-110500000D03*
X40500000Y-107960000D03*
D23*
X54636800Y-120874600D03*
D24*
X42500000Y-118740000D02*
X44650000Y-120890000D01*
X100040000Y-118040000D02*
X100040000Y-105982500D01*
X100040000Y-89420000D02*
X100040000Y-105982500D01*
X44650000Y-99390000D02*
X42500000Y-101540000D01*
X42500000Y-101540000D02*
X42500000Y-118740000D01*
X102500000Y-120500000D02*
X100040000Y-118040000D01*
X105850000Y-83610000D02*
X100040000Y-89420000D01*
D25*
X46000000Y-101760000D02*
X46000000Y-98200000D01*
D26*
X57350000Y-96850000D02*
X55500000Y-98700000D01*
X105850000Y-101390000D02*
X105850000Y-106500000D01*
X108000000Y-106500000D02*
X105850000Y-106500000D01*
X55500000Y-113960000D02*
X57350000Y-115810000D01*
X103500000Y-88500000D02*
X103500000Y-99040000D01*
X105850000Y-106500000D02*
X105850000Y-109098300D01*
D25*
X91600000Y-90240000D02*
X91600000Y-94760000D01*
D26*
X103500000Y-99040000D02*
X105850000Y-101390000D01*
D27*
X59000000Y-95200000D02*
X59000000Y-93500000D01*
D26*
X57350000Y-108190000D02*
X55500000Y-110040000D01*
X55500000Y-106340000D02*
X57350000Y-108190000D01*
X102500000Y-114500000D02*
X102500000Y-112448300D01*
X105850000Y-86150000D02*
X104735600Y-87264400D01*
X55500000Y-110040000D02*
X55500000Y-113960000D01*
D27*
X56000000Y-92500000D02*
X56000000Y-88040000D01*
D26*
X57350000Y-118350000D02*
X57350000Y-115810000D01*
D25*
X93150000Y-88690000D02*
X91600000Y-90240000D01*
D26*
X105850000Y-109098300D02*
X102500000Y-112448300D01*
D25*
X44650000Y-103110000D02*
X46000000Y-101760000D01*
D27*
X59000000Y-93500000D02*
X58500000Y-93000000D01*
D25*
X91600000Y-94760000D02*
X93150000Y-96310000D01*
D27*
X57350000Y-96850000D02*
X59000000Y-95200000D01*
D25*
X97500000Y-100660000D02*
X93150000Y-96310000D01*
X97500000Y-105982500D02*
X97500000Y-100660000D01*
D26*
X104735600Y-87264400D02*
X103500000Y-88500000D01*
D25*
X46000000Y-98200000D02*
X44650000Y-96850000D01*
D26*
X55500000Y-98700000D02*
X55500000Y-106340000D01*
D27*
X58500000Y-93000000D02*
X56500000Y-93000000D01*
X57350000Y-86690000D02*
X56000000Y-88040000D01*
X56500000Y-93000000D02*
X56000000Y-92500000D01*
D28*
X93150000Y-84665700D02*
X93017900Y-84665700D01*
X93017900Y-84665700D02*
X90369800Y-87313800D01*
X93150000Y-83610000D02*
X93150000Y-84665700D01*
X90369800Y-93985200D02*
X88200000Y-96155000D01*
X90369800Y-87313800D02*
X90369800Y-93985200D01*
X46215800Y-85715800D02*
X46215800Y-94310000D01*
X94960000Y-99143000D02*
X94960000Y-105982500D01*
X54636800Y-94310000D02*
X54636800Y-120874600D01*
X57350000Y-94310000D02*
X54636800Y-94310000D01*
X91000000Y-95684600D02*
X92895400Y-97580000D01*
X44650000Y-84150000D02*
X46215800Y-85715800D01*
X93150000Y-86150000D02*
X91000000Y-88300000D01*
X54636800Y-94310000D02*
X46215800Y-94310000D01*
X91000000Y-88300000D02*
X91000000Y-95684600D01*
X93397000Y-97580000D02*
X94960000Y-99143000D01*
X47000000Y-103300000D02*
X44650000Y-105650000D01*
X46215800Y-94310000D02*
X47000000Y-95094200D01*
X92895400Y-97580000D02*
X93397000Y-97580000D01*
X47000000Y-95094200D02*
X47000000Y-103300000D01*
X94960000Y-112255000D02*
X94960000Y-105982500D01*
X88200000Y-119015000D02*
X94960000Y-112255000D01*
X59500000Y-91380000D02*
X57350000Y-89230000D01*
X96540000Y-90380000D02*
X93150000Y-93770000D01*
X59500000Y-108580000D02*
X59500000Y-91380000D01*
X96540000Y-79500000D02*
X96540000Y-90380000D01*
X57350000Y-110730000D02*
X59500000Y-108580000D01*
X57350000Y-119834300D02*
X57482100Y-119834300D01*
X57350000Y-120890000D02*
X57350000Y-119834300D01*
X58405700Y-113249300D02*
X62800000Y-108855000D01*
X58405700Y-118910700D02*
X58405700Y-113249300D01*
X57482100Y-119834300D02*
X58405700Y-118910700D01*
X88200000Y-88535000D02*
X91460000Y-85275000D01*
X91460000Y-85275000D02*
X91460000Y-79500000D01*
X60248600Y-87048600D02*
X60248600Y-93603600D01*
X60248600Y-93603600D02*
X62800000Y-96155000D01*
X57350000Y-84150000D02*
X60248600Y-87048600D01*
M02*
